G04 EAGLE Gerber RS-274X export*
G75*
%MOMM*%
%FSLAX34Y34*%
%LPD*%
%INBottom Copper*%
%IPPOS*%
%AMOC8*
5,1,8,0,0,1.08239X$1,22.5*%
G01*
%ADD10C,1.651000*%
%ADD11R,1.651000X1.651000*%
%ADD12C,1.930400*%
%ADD13C,1.625600*%
%ADD14C,4.216000*%
%ADD15C,4.114800*%
%ADD16C,1.625600*%
%ADD17C,1.879600*%
%ADD18C,1.509600*%
%ADD19C,2.540000*%
%ADD20C,1.270000*%
%ADD21C,1.108000*%
%ADD22C,0.254000*%

G36*
X985638Y448326D02*
X985638Y448326D01*
X985757Y448333D01*
X985795Y448346D01*
X985836Y448351D01*
X985946Y448394D01*
X986059Y448431D01*
X986094Y448453D01*
X986131Y448468D01*
X986227Y448537D01*
X986328Y448601D01*
X986356Y448631D01*
X986389Y448654D01*
X986465Y448746D01*
X986546Y448833D01*
X986566Y448868D01*
X986591Y448899D01*
X986642Y449007D01*
X986700Y449111D01*
X986710Y449151D01*
X986727Y449187D01*
X986749Y449304D01*
X986779Y449419D01*
X986783Y449479D01*
X986787Y449499D01*
X986785Y449520D01*
X986789Y449580D01*
X986789Y985520D01*
X986774Y985638D01*
X986767Y985757D01*
X986754Y985795D01*
X986749Y985836D01*
X986706Y985946D01*
X986669Y986059D01*
X986647Y986094D01*
X986632Y986131D01*
X986563Y986227D01*
X986499Y986328D01*
X986469Y986356D01*
X986446Y986389D01*
X986354Y986465D01*
X986267Y986546D01*
X986232Y986566D01*
X986201Y986591D01*
X986093Y986642D01*
X985989Y986700D01*
X985949Y986710D01*
X985913Y986727D01*
X985796Y986749D01*
X985681Y986779D01*
X985621Y986783D01*
X985601Y986787D01*
X985580Y986785D01*
X985520Y986789D01*
X5080Y986789D01*
X4962Y986774D01*
X4843Y986767D01*
X4805Y986754D01*
X4764Y986749D01*
X4654Y986706D01*
X4541Y986669D01*
X4506Y986647D01*
X4469Y986632D01*
X4373Y986563D01*
X4272Y986499D01*
X4244Y986469D01*
X4211Y986446D01*
X4135Y986354D01*
X4054Y986267D01*
X4034Y986232D01*
X4009Y986201D01*
X3958Y986093D01*
X3900Y985989D01*
X3890Y985949D01*
X3873Y985913D01*
X3851Y985796D01*
X3821Y985681D01*
X3817Y985621D01*
X3813Y985601D01*
X3815Y985580D01*
X3811Y985520D01*
X3811Y449580D01*
X3826Y449462D01*
X3833Y449343D01*
X3846Y449305D01*
X3851Y449264D01*
X3894Y449154D01*
X3931Y449041D01*
X3953Y449006D01*
X3968Y448969D01*
X4037Y448873D01*
X4101Y448772D01*
X4131Y448744D01*
X4154Y448711D01*
X4246Y448635D01*
X4333Y448554D01*
X4368Y448534D01*
X4399Y448509D01*
X4507Y448458D01*
X4611Y448400D01*
X4651Y448390D01*
X4687Y448373D01*
X4804Y448351D01*
X4919Y448321D01*
X4979Y448317D01*
X4999Y448313D01*
X5020Y448315D01*
X5080Y448311D01*
X985520Y448311D01*
X985638Y448326D01*
G37*
%LPC*%
G36*
X327977Y458723D02*
X327977Y458723D01*
X323869Y460425D01*
X320725Y463569D01*
X319023Y467677D01*
X319023Y472123D01*
X320725Y476231D01*
X321878Y477385D01*
X321963Y477494D01*
X322052Y477601D01*
X322061Y477620D01*
X322073Y477636D01*
X322128Y477763D01*
X322188Y477889D01*
X322191Y477909D01*
X322200Y477928D01*
X322221Y478066D01*
X322247Y478202D01*
X322246Y478222D01*
X322249Y478242D01*
X322236Y478381D01*
X322228Y478519D01*
X322221Y478538D01*
X322220Y478558D01*
X322172Y478690D01*
X322130Y478821D01*
X322119Y478839D01*
X322112Y478858D01*
X322034Y478973D01*
X321960Y479090D01*
X321945Y479104D01*
X321933Y479121D01*
X321829Y479213D01*
X321728Y479308D01*
X321710Y479318D01*
X321695Y479331D01*
X321571Y479395D01*
X321449Y479462D01*
X321430Y479467D01*
X321412Y479476D01*
X321276Y479506D01*
X321141Y479541D01*
X321113Y479543D01*
X321101Y479546D01*
X321081Y479545D01*
X320981Y479551D01*
X299183Y479551D01*
X299085Y479539D01*
X298986Y479536D01*
X298928Y479519D01*
X298868Y479511D01*
X298776Y479475D01*
X298681Y479447D01*
X298628Y479417D01*
X298572Y479394D01*
X298492Y479336D01*
X298407Y479286D01*
X298331Y479220D01*
X298315Y479208D01*
X298307Y479198D01*
X298286Y479180D01*
X296965Y477859D01*
X293808Y476551D01*
X290392Y476551D01*
X287235Y477859D01*
X284819Y480275D01*
X283511Y483432D01*
X283511Y486848D01*
X284819Y490005D01*
X285612Y490799D01*
X285685Y490893D01*
X285764Y490982D01*
X285782Y491018D01*
X285807Y491050D01*
X285855Y491159D01*
X285909Y491265D01*
X285917Y491304D01*
X285933Y491342D01*
X285952Y491459D01*
X285978Y491575D01*
X285977Y491616D01*
X285983Y491656D01*
X285972Y491774D01*
X285969Y491893D01*
X285957Y491932D01*
X285954Y491972D01*
X285913Y492084D01*
X285880Y492199D01*
X285860Y492234D01*
X285846Y492272D01*
X285779Y492370D01*
X285719Y492473D01*
X285679Y492518D01*
X285667Y492535D01*
X285652Y492548D01*
X285612Y492594D01*
X284819Y493387D01*
X283511Y496544D01*
X283511Y499960D01*
X284819Y503117D01*
X285612Y503910D01*
X285685Y504004D01*
X285764Y504094D01*
X285782Y504130D01*
X285807Y504162D01*
X285854Y504271D01*
X285909Y504377D01*
X285917Y504416D01*
X285933Y504454D01*
X285952Y504571D01*
X285978Y504687D01*
X285977Y504728D01*
X285983Y504768D01*
X285972Y504886D01*
X285969Y505005D01*
X285957Y505044D01*
X285954Y505084D01*
X285913Y505197D01*
X285880Y505311D01*
X285860Y505345D01*
X285846Y505384D01*
X285779Y505482D01*
X285719Y505585D01*
X285679Y505630D01*
X285667Y505647D01*
X285652Y505660D01*
X285612Y505705D01*
X284819Y506499D01*
X283511Y509656D01*
X283511Y513072D01*
X284819Y516229D01*
X285612Y517022D01*
X285685Y517116D01*
X285764Y517206D01*
X285782Y517242D01*
X285807Y517274D01*
X285854Y517383D01*
X285909Y517489D01*
X285917Y517528D01*
X285933Y517566D01*
X285952Y517683D01*
X285978Y517799D01*
X285977Y517840D01*
X285983Y517880D01*
X285972Y517998D01*
X285969Y518117D01*
X285957Y518156D01*
X285954Y518196D01*
X285913Y518309D01*
X285880Y518423D01*
X285860Y518457D01*
X285846Y518496D01*
X285779Y518594D01*
X285719Y518697D01*
X285679Y518742D01*
X285667Y518759D01*
X285652Y518772D01*
X285612Y518817D01*
X284819Y519611D01*
X283511Y522768D01*
X283511Y526184D01*
X284819Y529341D01*
X284932Y529454D01*
X285017Y529564D01*
X285106Y529671D01*
X285115Y529690D01*
X285127Y529706D01*
X285183Y529834D01*
X285242Y529959D01*
X285245Y529979D01*
X285253Y529998D01*
X285275Y530135D01*
X285301Y530272D01*
X285300Y530292D01*
X285303Y530312D01*
X285290Y530450D01*
X285282Y530589D01*
X285275Y530608D01*
X285274Y530628D01*
X285226Y530759D01*
X285184Y530891D01*
X285173Y530909D01*
X285166Y530928D01*
X285088Y531043D01*
X285013Y531160D01*
X284999Y531174D01*
X284987Y531191D01*
X284883Y531283D01*
X284782Y531378D01*
X284764Y531388D01*
X284749Y531401D01*
X284625Y531464D01*
X284503Y531532D01*
X284484Y531537D01*
X284466Y531546D01*
X284330Y531576D01*
X284195Y531611D01*
X284167Y531613D01*
X284155Y531616D01*
X284135Y531615D01*
X284035Y531621D01*
X249653Y531621D01*
X249555Y531609D01*
X249456Y531606D01*
X249398Y531589D01*
X249338Y531581D01*
X249246Y531545D01*
X249151Y531517D01*
X249098Y531487D01*
X249042Y531464D01*
X248962Y531406D01*
X248877Y531356D01*
X248801Y531290D01*
X248785Y531278D01*
X248777Y531268D01*
X248756Y531250D01*
X246165Y528659D01*
X243008Y527351D01*
X239592Y527351D01*
X236435Y528659D01*
X234019Y531075D01*
X232630Y534428D01*
X232605Y534471D01*
X232588Y534518D01*
X232527Y534609D01*
X232472Y534705D01*
X232438Y534740D01*
X232410Y534781D01*
X232327Y534854D01*
X232251Y534933D01*
X232209Y534959D01*
X232171Y534992D01*
X232073Y535042D01*
X231980Y535099D01*
X231932Y535114D01*
X231888Y535136D01*
X231781Y535160D01*
X231676Y535193D01*
X231626Y535195D01*
X231578Y535206D01*
X231468Y535203D01*
X231358Y535208D01*
X231310Y535198D01*
X231260Y535196D01*
X231154Y535166D01*
X231047Y535144D01*
X231002Y535122D01*
X230954Y535108D01*
X230860Y535052D01*
X230761Y535004D01*
X230723Y534972D01*
X230681Y534946D01*
X230560Y534840D01*
X209922Y514203D01*
X209862Y514125D01*
X209794Y514052D01*
X209765Y513999D01*
X209728Y513952D01*
X209688Y513861D01*
X209640Y513774D01*
X209625Y513715D01*
X209601Y513660D01*
X209586Y513562D01*
X209561Y513466D01*
X209555Y513366D01*
X209551Y513346D01*
X209553Y513333D01*
X209551Y513305D01*
X209551Y495543D01*
X192289Y478281D01*
X188957Y478281D01*
X188927Y478278D01*
X188898Y478280D01*
X188770Y478258D01*
X188641Y478241D01*
X188614Y478231D01*
X188585Y478226D01*
X188466Y478172D01*
X188346Y478124D01*
X188322Y478107D01*
X188295Y478095D01*
X188193Y478014D01*
X188088Y477938D01*
X188069Y477915D01*
X188046Y477896D01*
X187968Y477793D01*
X187885Y477693D01*
X187873Y477666D01*
X187855Y477642D01*
X187784Y477498D01*
X187275Y476269D01*
X184131Y473125D01*
X180023Y471423D01*
X175577Y471423D01*
X171469Y473125D01*
X168325Y476269D01*
X166623Y480377D01*
X166623Y484823D01*
X168351Y488993D01*
X168382Y489031D01*
X168391Y489050D01*
X168403Y489066D01*
X168458Y489193D01*
X168518Y489319D01*
X168521Y489339D01*
X168529Y489357D01*
X168551Y489495D01*
X168577Y489632D01*
X168576Y489652D01*
X168579Y489671D01*
X168566Y489810D01*
X168558Y489949D01*
X168552Y489968D01*
X168550Y489988D01*
X168502Y490119D01*
X168460Y490251D01*
X168449Y490268D01*
X168442Y490287D01*
X168364Y490403D01*
X168290Y490520D01*
X168275Y490534D01*
X168264Y490551D01*
X168159Y490643D01*
X168058Y490738D01*
X168040Y490748D01*
X168025Y490761D01*
X167901Y490824D01*
X167779Y490892D01*
X167760Y490897D01*
X167742Y490906D01*
X167606Y490936D01*
X167471Y490971D01*
X167444Y490973D01*
X167432Y490975D01*
X167411Y490975D01*
X167311Y490981D01*
X40415Y490981D01*
X40316Y490969D01*
X40217Y490966D01*
X40159Y490949D01*
X40099Y490941D01*
X40007Y490905D01*
X39912Y490877D01*
X39860Y490847D01*
X39803Y490824D01*
X39723Y490766D01*
X39638Y490716D01*
X39563Y490650D01*
X39546Y490638D01*
X39538Y490628D01*
X39517Y490610D01*
X36343Y487435D01*
X36325Y487412D01*
X36302Y487393D01*
X36228Y487287D01*
X36148Y487184D01*
X36136Y487157D01*
X36119Y487133D01*
X36073Y487011D01*
X36022Y486892D01*
X36017Y486863D01*
X36006Y486835D01*
X35992Y486706D01*
X35972Y486578D01*
X35975Y486549D01*
X35971Y486519D01*
X35989Y486391D01*
X36002Y486261D01*
X36012Y486234D01*
X36016Y486204D01*
X36068Y486052D01*
X36577Y484823D01*
X36577Y480377D01*
X34875Y476269D01*
X31731Y473125D01*
X27623Y471423D01*
X23177Y471423D01*
X19069Y473125D01*
X15925Y476269D01*
X14223Y480377D01*
X14223Y484823D01*
X15925Y488931D01*
X19069Y492075D01*
X23177Y493777D01*
X27623Y493777D01*
X28852Y493268D01*
X28880Y493260D01*
X28907Y493247D01*
X29034Y493218D01*
X29159Y493184D01*
X29188Y493183D01*
X29217Y493177D01*
X29347Y493181D01*
X29477Y493179D01*
X29505Y493186D01*
X29535Y493187D01*
X29660Y493223D01*
X29786Y493253D01*
X29812Y493267D01*
X29840Y493275D01*
X29952Y493341D01*
X30067Y493402D01*
X30089Y493421D01*
X30114Y493436D01*
X30235Y493543D01*
X33170Y496478D01*
X33213Y496533D01*
X33263Y496582D01*
X33310Y496658D01*
X33365Y496729D01*
X33393Y496793D01*
X33429Y496853D01*
X33456Y496938D01*
X33492Y497021D01*
X33503Y497090D01*
X33523Y497157D01*
X33527Y497246D01*
X33541Y497335D01*
X33535Y497405D01*
X33538Y497474D01*
X33520Y497562D01*
X33512Y497652D01*
X33488Y497717D01*
X33474Y497786D01*
X33434Y497867D01*
X33404Y497951D01*
X33365Y498009D01*
X33334Y498071D01*
X33276Y498140D01*
X33225Y498214D01*
X33173Y498260D01*
X33128Y498313D01*
X33054Y498365D01*
X32987Y498425D01*
X32925Y498456D01*
X32868Y498497D01*
X32784Y498528D01*
X32704Y498569D01*
X32636Y498584D01*
X32570Y498609D01*
X32481Y498619D01*
X32393Y498639D01*
X32324Y498637D01*
X32254Y498644D01*
X32165Y498632D01*
X32076Y498629D01*
X32008Y498610D01*
X31939Y498600D01*
X31787Y498548D01*
X27623Y496823D01*
X23177Y496823D01*
X19069Y498525D01*
X15925Y501669D01*
X14223Y505777D01*
X14223Y510223D01*
X15925Y514331D01*
X19069Y517475D01*
X23177Y519177D01*
X27623Y519177D01*
X28852Y518668D01*
X28880Y518660D01*
X28907Y518647D01*
X29034Y518618D01*
X29159Y518584D01*
X29188Y518583D01*
X29217Y518577D01*
X29347Y518581D01*
X29477Y518579D01*
X29505Y518586D01*
X29535Y518587D01*
X29660Y518623D01*
X29786Y518653D01*
X29812Y518667D01*
X29840Y518675D01*
X29952Y518741D01*
X30067Y518802D01*
X30089Y518821D01*
X30114Y518836D01*
X30235Y518943D01*
X33170Y521878D01*
X33213Y521933D01*
X33263Y521982D01*
X33310Y522058D01*
X33365Y522129D01*
X33393Y522193D01*
X33429Y522253D01*
X33456Y522338D01*
X33492Y522421D01*
X33503Y522490D01*
X33523Y522557D01*
X33527Y522646D01*
X33541Y522735D01*
X33535Y522805D01*
X33538Y522874D01*
X33520Y522962D01*
X33512Y523052D01*
X33488Y523117D01*
X33474Y523186D01*
X33434Y523267D01*
X33404Y523351D01*
X33365Y523409D01*
X33334Y523471D01*
X33276Y523540D01*
X33225Y523614D01*
X33173Y523660D01*
X33128Y523713D01*
X33054Y523765D01*
X32987Y523825D01*
X32925Y523856D01*
X32868Y523897D01*
X32784Y523928D01*
X32704Y523969D01*
X32636Y523984D01*
X32570Y524009D01*
X32481Y524019D01*
X32393Y524039D01*
X32324Y524037D01*
X32254Y524044D01*
X32165Y524032D01*
X32076Y524029D01*
X32008Y524010D01*
X31939Y524000D01*
X31787Y523948D01*
X27623Y522223D01*
X23177Y522223D01*
X19069Y523925D01*
X15925Y527069D01*
X14223Y531177D01*
X14223Y535623D01*
X15925Y539731D01*
X19069Y542875D01*
X23177Y544577D01*
X27623Y544577D01*
X28852Y544068D01*
X28880Y544060D01*
X28907Y544047D01*
X29034Y544018D01*
X29159Y543984D01*
X29188Y543983D01*
X29217Y543977D01*
X29347Y543981D01*
X29477Y543979D01*
X29505Y543986D01*
X29535Y543987D01*
X29660Y544023D01*
X29786Y544053D01*
X29812Y544067D01*
X29840Y544075D01*
X29952Y544141D01*
X30067Y544202D01*
X30089Y544221D01*
X30114Y544236D01*
X30235Y544343D01*
X33170Y547278D01*
X33213Y547333D01*
X33263Y547382D01*
X33310Y547458D01*
X33365Y547529D01*
X33393Y547593D01*
X33429Y547653D01*
X33456Y547738D01*
X33492Y547821D01*
X33503Y547890D01*
X33523Y547957D01*
X33527Y548046D01*
X33541Y548135D01*
X33535Y548205D01*
X33538Y548274D01*
X33520Y548362D01*
X33512Y548452D01*
X33488Y548517D01*
X33474Y548586D01*
X33434Y548667D01*
X33404Y548751D01*
X33365Y548809D01*
X33334Y548871D01*
X33276Y548940D01*
X33225Y549014D01*
X33173Y549060D01*
X33128Y549113D01*
X33054Y549165D01*
X32987Y549225D01*
X32925Y549256D01*
X32868Y549297D01*
X32784Y549328D01*
X32704Y549369D01*
X32636Y549384D01*
X32570Y549409D01*
X32481Y549419D01*
X32393Y549439D01*
X32324Y549437D01*
X32254Y549444D01*
X32165Y549432D01*
X32076Y549429D01*
X32008Y549410D01*
X31939Y549400D01*
X31787Y549348D01*
X27623Y547623D01*
X23177Y547623D01*
X19069Y549325D01*
X15925Y552469D01*
X14223Y556577D01*
X14223Y561023D01*
X15925Y565131D01*
X19069Y568275D01*
X23177Y569977D01*
X27623Y569977D01*
X28852Y569468D01*
X28880Y569460D01*
X28907Y569447D01*
X29034Y569418D01*
X29159Y569384D01*
X29188Y569383D01*
X29217Y569377D01*
X29347Y569381D01*
X29477Y569379D01*
X29505Y569386D01*
X29535Y569387D01*
X29660Y569423D01*
X29786Y569453D01*
X29812Y569467D01*
X29840Y569475D01*
X29952Y569541D01*
X30067Y569602D01*
X30089Y569621D01*
X30114Y569636D01*
X30235Y569743D01*
X33170Y572678D01*
X33213Y572733D01*
X33263Y572782D01*
X33310Y572858D01*
X33365Y572929D01*
X33393Y572993D01*
X33429Y573053D01*
X33456Y573138D01*
X33492Y573221D01*
X33503Y573290D01*
X33523Y573357D01*
X33527Y573446D01*
X33541Y573535D01*
X33535Y573605D01*
X33538Y573674D01*
X33520Y573762D01*
X33512Y573852D01*
X33488Y573917D01*
X33474Y573986D01*
X33434Y574067D01*
X33404Y574151D01*
X33365Y574209D01*
X33334Y574271D01*
X33276Y574340D01*
X33225Y574414D01*
X33173Y574460D01*
X33128Y574513D01*
X33054Y574565D01*
X32987Y574625D01*
X32925Y574656D01*
X32868Y574697D01*
X32784Y574728D01*
X32704Y574769D01*
X32636Y574784D01*
X32570Y574809D01*
X32481Y574819D01*
X32393Y574839D01*
X32324Y574837D01*
X32254Y574844D01*
X32165Y574832D01*
X32076Y574829D01*
X32008Y574810D01*
X31939Y574800D01*
X31787Y574748D01*
X27623Y573023D01*
X23177Y573023D01*
X19069Y574725D01*
X15925Y577869D01*
X14223Y581977D01*
X14223Y586423D01*
X15925Y590531D01*
X19069Y593675D01*
X23177Y595377D01*
X27623Y595377D01*
X28852Y594868D01*
X28880Y594860D01*
X28907Y594847D01*
X29034Y594818D01*
X29159Y594784D01*
X29188Y594783D01*
X29217Y594777D01*
X29347Y594781D01*
X29477Y594779D01*
X29505Y594786D01*
X29535Y594787D01*
X29660Y594823D01*
X29786Y594853D01*
X29812Y594867D01*
X29840Y594875D01*
X29952Y594941D01*
X30067Y595002D01*
X30089Y595021D01*
X30114Y595036D01*
X30235Y595143D01*
X33170Y598078D01*
X33213Y598133D01*
X33263Y598182D01*
X33310Y598258D01*
X33365Y598329D01*
X33393Y598393D01*
X33429Y598453D01*
X33456Y598538D01*
X33492Y598621D01*
X33503Y598690D01*
X33523Y598757D01*
X33527Y598846D01*
X33541Y598935D01*
X33535Y599005D01*
X33538Y599074D01*
X33520Y599162D01*
X33512Y599252D01*
X33488Y599317D01*
X33474Y599386D01*
X33434Y599467D01*
X33404Y599551D01*
X33365Y599609D01*
X33334Y599671D01*
X33276Y599740D01*
X33225Y599814D01*
X33173Y599860D01*
X33128Y599913D01*
X33054Y599965D01*
X32987Y600025D01*
X32925Y600056D01*
X32868Y600097D01*
X32784Y600128D01*
X32704Y600169D01*
X32636Y600184D01*
X32570Y600209D01*
X32481Y600219D01*
X32393Y600239D01*
X32324Y600237D01*
X32254Y600244D01*
X32165Y600232D01*
X32076Y600229D01*
X32008Y600210D01*
X31939Y600200D01*
X31787Y600148D01*
X27623Y598423D01*
X23177Y598423D01*
X19069Y600125D01*
X15925Y603269D01*
X14223Y607377D01*
X14223Y611823D01*
X15925Y615931D01*
X19069Y619075D01*
X23177Y620777D01*
X27623Y620777D01*
X28852Y620268D01*
X28880Y620260D01*
X28907Y620247D01*
X29034Y620218D01*
X29159Y620184D01*
X29188Y620183D01*
X29217Y620177D01*
X29347Y620181D01*
X29477Y620179D01*
X29505Y620186D01*
X29535Y620187D01*
X29660Y620223D01*
X29786Y620253D01*
X29812Y620267D01*
X29840Y620275D01*
X29952Y620341D01*
X30067Y620402D01*
X30089Y620421D01*
X30114Y620436D01*
X30235Y620543D01*
X33170Y623478D01*
X33213Y623533D01*
X33263Y623582D01*
X33310Y623658D01*
X33365Y623729D01*
X33393Y623793D01*
X33429Y623853D01*
X33456Y623938D01*
X33492Y624021D01*
X33503Y624090D01*
X33523Y624157D01*
X33527Y624246D01*
X33541Y624335D01*
X33535Y624405D01*
X33538Y624474D01*
X33520Y624562D01*
X33512Y624652D01*
X33488Y624717D01*
X33474Y624786D01*
X33434Y624867D01*
X33404Y624951D01*
X33365Y625009D01*
X33334Y625071D01*
X33276Y625140D01*
X33225Y625214D01*
X33173Y625260D01*
X33128Y625313D01*
X33054Y625365D01*
X32987Y625425D01*
X32925Y625456D01*
X32868Y625497D01*
X32784Y625528D01*
X32704Y625569D01*
X32636Y625584D01*
X32570Y625609D01*
X32481Y625619D01*
X32393Y625639D01*
X32324Y625637D01*
X32254Y625644D01*
X32165Y625632D01*
X32076Y625629D01*
X32008Y625610D01*
X31939Y625600D01*
X31787Y625548D01*
X27623Y623823D01*
X23177Y623823D01*
X19069Y625525D01*
X15925Y628669D01*
X14223Y632777D01*
X14223Y637223D01*
X15925Y641331D01*
X19069Y644475D01*
X23177Y646177D01*
X27623Y646177D01*
X28852Y645668D01*
X28880Y645660D01*
X28907Y645647D01*
X29034Y645618D01*
X29159Y645584D01*
X29188Y645583D01*
X29217Y645577D01*
X29347Y645581D01*
X29477Y645579D01*
X29505Y645586D01*
X29535Y645587D01*
X29660Y645623D01*
X29786Y645653D01*
X29812Y645667D01*
X29840Y645675D01*
X29952Y645741D01*
X30067Y645802D01*
X30089Y645821D01*
X30114Y645836D01*
X30235Y645943D01*
X33170Y648878D01*
X33213Y648933D01*
X33263Y648982D01*
X33310Y649058D01*
X33365Y649129D01*
X33393Y649193D01*
X33429Y649253D01*
X33456Y649338D01*
X33492Y649421D01*
X33503Y649490D01*
X33523Y649557D01*
X33527Y649646D01*
X33541Y649735D01*
X33535Y649805D01*
X33538Y649874D01*
X33520Y649962D01*
X33512Y650052D01*
X33488Y650117D01*
X33474Y650186D01*
X33434Y650267D01*
X33404Y650351D01*
X33365Y650409D01*
X33334Y650471D01*
X33276Y650540D01*
X33225Y650614D01*
X33173Y650660D01*
X33128Y650713D01*
X33054Y650765D01*
X32987Y650825D01*
X32925Y650856D01*
X32868Y650897D01*
X32784Y650928D01*
X32704Y650969D01*
X32636Y650984D01*
X32570Y651009D01*
X32481Y651019D01*
X32393Y651039D01*
X32324Y651037D01*
X32254Y651044D01*
X32165Y651032D01*
X32076Y651029D01*
X32008Y651010D01*
X31939Y651000D01*
X31787Y650948D01*
X27623Y649223D01*
X23177Y649223D01*
X19069Y650925D01*
X15925Y654069D01*
X14223Y658177D01*
X14223Y662623D01*
X15925Y666731D01*
X19069Y669875D01*
X23177Y671577D01*
X27623Y671577D01*
X28852Y671068D01*
X28880Y671060D01*
X28907Y671047D01*
X29034Y671018D01*
X29159Y670984D01*
X29188Y670983D01*
X29217Y670977D01*
X29347Y670981D01*
X29477Y670979D01*
X29505Y670986D01*
X29535Y670987D01*
X29660Y671023D01*
X29786Y671053D01*
X29812Y671067D01*
X29840Y671075D01*
X29952Y671141D01*
X30067Y671202D01*
X30089Y671221D01*
X30114Y671236D01*
X30235Y671343D01*
X33170Y674278D01*
X33213Y674333D01*
X33263Y674382D01*
X33310Y674458D01*
X33365Y674529D01*
X33393Y674593D01*
X33429Y674653D01*
X33456Y674738D01*
X33492Y674821D01*
X33503Y674890D01*
X33523Y674957D01*
X33527Y675046D01*
X33541Y675135D01*
X33535Y675205D01*
X33538Y675274D01*
X33520Y675362D01*
X33512Y675452D01*
X33488Y675517D01*
X33474Y675586D01*
X33434Y675667D01*
X33404Y675751D01*
X33365Y675809D01*
X33334Y675871D01*
X33276Y675940D01*
X33225Y676014D01*
X33173Y676060D01*
X33128Y676113D01*
X33054Y676165D01*
X32987Y676225D01*
X32925Y676256D01*
X32868Y676297D01*
X32784Y676328D01*
X32704Y676369D01*
X32636Y676384D01*
X32570Y676409D01*
X32481Y676419D01*
X32393Y676439D01*
X32324Y676437D01*
X32254Y676444D01*
X32165Y676432D01*
X32076Y676429D01*
X32008Y676410D01*
X31939Y676400D01*
X31787Y676348D01*
X27623Y674623D01*
X23177Y674623D01*
X19069Y676325D01*
X15925Y679469D01*
X14223Y683577D01*
X14223Y688023D01*
X15925Y692131D01*
X19069Y695275D01*
X23177Y696977D01*
X27623Y696977D01*
X28852Y696468D01*
X28880Y696460D01*
X28907Y696447D01*
X29034Y696418D01*
X29159Y696384D01*
X29188Y696383D01*
X29217Y696377D01*
X29347Y696381D01*
X29477Y696379D01*
X29505Y696386D01*
X29535Y696387D01*
X29660Y696423D01*
X29786Y696453D01*
X29812Y696467D01*
X29840Y696475D01*
X29952Y696541D01*
X30067Y696602D01*
X30089Y696621D01*
X30114Y696636D01*
X30235Y696743D01*
X33170Y699678D01*
X33213Y699733D01*
X33263Y699782D01*
X33310Y699858D01*
X33365Y699929D01*
X33393Y699993D01*
X33429Y700053D01*
X33456Y700138D01*
X33492Y700221D01*
X33503Y700290D01*
X33523Y700357D01*
X33527Y700446D01*
X33541Y700535D01*
X33535Y700605D01*
X33538Y700674D01*
X33520Y700762D01*
X33512Y700852D01*
X33488Y700917D01*
X33474Y700986D01*
X33434Y701067D01*
X33404Y701151D01*
X33365Y701209D01*
X33334Y701271D01*
X33276Y701340D01*
X33225Y701414D01*
X33173Y701460D01*
X33128Y701513D01*
X33054Y701565D01*
X32987Y701625D01*
X32925Y701656D01*
X32868Y701697D01*
X32784Y701728D01*
X32704Y701769D01*
X32636Y701784D01*
X32570Y701809D01*
X32481Y701819D01*
X32393Y701839D01*
X32324Y701837D01*
X32254Y701844D01*
X32165Y701832D01*
X32076Y701829D01*
X32008Y701810D01*
X31939Y701800D01*
X31787Y701748D01*
X27623Y700023D01*
X23177Y700023D01*
X19069Y701725D01*
X15925Y704869D01*
X14223Y708977D01*
X14223Y713423D01*
X15925Y717531D01*
X19069Y720675D01*
X23177Y722377D01*
X27623Y722377D01*
X28852Y721868D01*
X28880Y721860D01*
X28907Y721847D01*
X29034Y721818D01*
X29159Y721784D01*
X29188Y721783D01*
X29217Y721777D01*
X29347Y721781D01*
X29477Y721779D01*
X29505Y721786D01*
X29535Y721787D01*
X29660Y721823D01*
X29786Y721853D01*
X29812Y721867D01*
X29840Y721875D01*
X29952Y721941D01*
X30067Y722002D01*
X30089Y722021D01*
X30114Y722036D01*
X30235Y722143D01*
X33170Y725078D01*
X33213Y725133D01*
X33263Y725182D01*
X33310Y725258D01*
X33365Y725329D01*
X33393Y725393D01*
X33429Y725453D01*
X33456Y725538D01*
X33492Y725621D01*
X33503Y725690D01*
X33523Y725757D01*
X33527Y725846D01*
X33541Y725935D01*
X33535Y726005D01*
X33538Y726074D01*
X33520Y726162D01*
X33512Y726252D01*
X33488Y726317D01*
X33474Y726386D01*
X33434Y726467D01*
X33404Y726551D01*
X33365Y726609D01*
X33334Y726671D01*
X33276Y726740D01*
X33225Y726814D01*
X33173Y726860D01*
X33128Y726913D01*
X33054Y726965D01*
X32987Y727025D01*
X32925Y727056D01*
X32868Y727097D01*
X32784Y727128D01*
X32704Y727169D01*
X32636Y727184D01*
X32570Y727209D01*
X32481Y727219D01*
X32393Y727239D01*
X32324Y727237D01*
X32254Y727244D01*
X32165Y727232D01*
X32076Y727229D01*
X32008Y727210D01*
X31939Y727200D01*
X31787Y727148D01*
X27623Y725423D01*
X23177Y725423D01*
X19069Y727125D01*
X15925Y730269D01*
X14223Y734377D01*
X14223Y738823D01*
X15925Y742931D01*
X19069Y746075D01*
X23177Y747777D01*
X27623Y747777D01*
X28852Y747268D01*
X28881Y747260D01*
X28907Y747247D01*
X29034Y747218D01*
X29159Y747184D01*
X29188Y747183D01*
X29217Y747177D01*
X29347Y747181D01*
X29477Y747179D01*
X29505Y747186D01*
X29535Y747187D01*
X29660Y747223D01*
X29786Y747253D01*
X29812Y747267D01*
X29840Y747275D01*
X29952Y747341D01*
X30067Y747402D01*
X30089Y747422D01*
X30114Y747436D01*
X30235Y747543D01*
X33410Y750717D01*
X36311Y753619D01*
X167311Y753619D01*
X167449Y753636D01*
X167587Y753649D01*
X167606Y753656D01*
X167626Y753659D01*
X167756Y753710D01*
X167887Y753757D01*
X167903Y753768D01*
X167922Y753776D01*
X168035Y753857D01*
X168150Y753936D01*
X168163Y753951D01*
X168179Y753962D01*
X168268Y754070D01*
X168360Y754174D01*
X168369Y754192D01*
X168382Y754207D01*
X168441Y754333D01*
X168505Y754457D01*
X168509Y754477D01*
X168518Y754495D01*
X168544Y754631D01*
X168574Y754768D01*
X168574Y754788D01*
X168577Y754807D01*
X168569Y754946D01*
X168565Y755086D01*
X168559Y755105D01*
X168558Y755125D01*
X168515Y755257D01*
X168476Y755391D01*
X168466Y755408D01*
X168460Y755427D01*
X168385Y755545D01*
X168355Y755597D01*
X166623Y759777D01*
X166623Y764223D01*
X168325Y768331D01*
X171469Y771475D01*
X175577Y773177D01*
X180023Y773177D01*
X181252Y772668D01*
X181281Y772660D01*
X181307Y772647D01*
X181434Y772618D01*
X181559Y772584D01*
X181588Y772583D01*
X181617Y772577D01*
X181747Y772581D01*
X181877Y772579D01*
X181905Y772586D01*
X181935Y772587D01*
X182060Y772623D01*
X182186Y772653D01*
X182212Y772667D01*
X182240Y772675D01*
X182352Y772741D01*
X182467Y772802D01*
X182489Y772822D01*
X182514Y772836D01*
X182635Y772943D01*
X185570Y775878D01*
X185613Y775933D01*
X185663Y775982D01*
X185710Y776058D01*
X185765Y776129D01*
X185793Y776193D01*
X185829Y776253D01*
X185856Y776338D01*
X185892Y776421D01*
X185902Y776490D01*
X185923Y776557D01*
X185927Y776646D01*
X185941Y776735D01*
X185935Y776805D01*
X185938Y776874D01*
X185920Y776962D01*
X185912Y777052D01*
X185888Y777118D01*
X185874Y777186D01*
X185834Y777266D01*
X185804Y777351D01*
X185765Y777409D01*
X185734Y777471D01*
X185676Y777540D01*
X185625Y777614D01*
X185573Y777660D01*
X185528Y777713D01*
X185454Y777765D01*
X185387Y777825D01*
X185325Y777856D01*
X185268Y777897D01*
X185184Y777928D01*
X185104Y777969D01*
X185036Y777985D01*
X184970Y778009D01*
X184881Y778019D01*
X184793Y778039D01*
X184724Y778037D01*
X184654Y778045D01*
X184565Y778032D01*
X184476Y778029D01*
X184408Y778010D01*
X184339Y778000D01*
X184187Y777948D01*
X180023Y776223D01*
X175577Y776223D01*
X171469Y777925D01*
X168325Y781069D01*
X166623Y785177D01*
X166623Y789623D01*
X168325Y793731D01*
X171469Y796875D01*
X175577Y798577D01*
X180023Y798577D01*
X184131Y796875D01*
X187275Y793731D01*
X188977Y789623D01*
X188977Y785177D01*
X187252Y781013D01*
X187234Y780946D01*
X187206Y780882D01*
X187192Y780793D01*
X187168Y780706D01*
X187167Y780637D01*
X187156Y780568D01*
X187164Y780478D01*
X187163Y780388D01*
X187179Y780320D01*
X187186Y780251D01*
X187216Y780166D01*
X187237Y780079D01*
X187270Y780017D01*
X187293Y779952D01*
X187344Y779877D01*
X187386Y779798D01*
X187433Y779746D01*
X187472Y779688D01*
X187539Y779629D01*
X187600Y779563D01*
X187658Y779524D01*
X187710Y779478D01*
X187790Y779437D01*
X187865Y779388D01*
X187932Y779365D01*
X187994Y779333D01*
X188081Y779314D01*
X188166Y779285D01*
X188236Y779279D01*
X188304Y779264D01*
X188394Y779266D01*
X188483Y779259D01*
X188552Y779271D01*
X188622Y779273D01*
X188708Y779298D01*
X188797Y779314D01*
X188860Y779342D01*
X188927Y779362D01*
X189005Y779407D01*
X189087Y779444D01*
X189141Y779488D01*
X189201Y779523D01*
X189322Y779630D01*
X201411Y791719D01*
X220247Y791719D01*
X220345Y791731D01*
X220444Y791734D01*
X220502Y791751D01*
X220562Y791759D01*
X220654Y791795D01*
X220749Y791823D01*
X220802Y791853D01*
X220858Y791876D01*
X220938Y791934D01*
X221023Y791984D01*
X221099Y792050D01*
X221115Y792062D01*
X221123Y792072D01*
X221144Y792090D01*
X223735Y794681D01*
X226892Y795989D01*
X230308Y795989D01*
X233465Y794681D01*
X235881Y792265D01*
X237189Y789108D01*
X237189Y785692D01*
X235881Y782535D01*
X233465Y780119D01*
X230308Y778811D01*
X226892Y778811D01*
X223735Y780119D01*
X221144Y782710D01*
X221066Y782770D01*
X220994Y782838D01*
X220941Y782867D01*
X220893Y782904D01*
X220802Y782944D01*
X220715Y782992D01*
X220657Y783007D01*
X220601Y783031D01*
X220503Y783046D01*
X220407Y783071D01*
X220307Y783077D01*
X220287Y783081D01*
X220275Y783079D01*
X220247Y783081D01*
X205515Y783081D01*
X205416Y783069D01*
X205317Y783066D01*
X205259Y783049D01*
X205199Y783041D01*
X205107Y783005D01*
X205012Y782977D01*
X204960Y782947D01*
X204903Y782924D01*
X204823Y782866D01*
X204738Y782816D01*
X204663Y782750D01*
X204646Y782738D01*
X204638Y782728D01*
X204617Y782710D01*
X188743Y766835D01*
X188725Y766812D01*
X188702Y766793D01*
X188628Y766687D01*
X188548Y766584D01*
X188536Y766557D01*
X188519Y766533D01*
X188473Y766411D01*
X188422Y766292D01*
X188417Y766263D01*
X188406Y766235D01*
X188392Y766106D01*
X188372Y765978D01*
X188375Y765949D01*
X188371Y765919D01*
X188389Y765791D01*
X188402Y765661D01*
X188412Y765634D01*
X188416Y765604D01*
X188468Y765452D01*
X188977Y764223D01*
X188977Y759777D01*
X187249Y755607D01*
X187218Y755569D01*
X187209Y755550D01*
X187197Y755534D01*
X187142Y755407D01*
X187082Y755281D01*
X187079Y755261D01*
X187071Y755243D01*
X187049Y755105D01*
X187023Y754968D01*
X187024Y754948D01*
X187021Y754929D01*
X187034Y754790D01*
X187042Y754651D01*
X187048Y754632D01*
X187050Y754612D01*
X187098Y754481D01*
X187140Y754349D01*
X187151Y754332D01*
X187158Y754313D01*
X187236Y754197D01*
X187310Y754080D01*
X187325Y754066D01*
X187336Y754049D01*
X187441Y753957D01*
X187542Y753862D01*
X187560Y753852D01*
X187575Y753839D01*
X187699Y753776D01*
X187821Y753708D01*
X187840Y753703D01*
X187858Y753694D01*
X187994Y753664D01*
X188129Y753629D01*
X188156Y753627D01*
X188168Y753625D01*
X188189Y753625D01*
X188289Y753619D01*
X251685Y753619D01*
X251784Y753631D01*
X251883Y753634D01*
X251941Y753651D01*
X252001Y753659D01*
X252093Y753695D01*
X252188Y753723D01*
X252240Y753753D01*
X252297Y753776D01*
X252377Y753834D01*
X252462Y753884D01*
X252537Y753950D01*
X252554Y753962D01*
X252562Y753972D01*
X252583Y753990D01*
X281601Y783009D01*
X281619Y783032D01*
X281642Y783051D01*
X281716Y783157D01*
X281796Y783260D01*
X281808Y783287D01*
X281825Y783311D01*
X281871Y783432D01*
X281922Y783552D01*
X281927Y783581D01*
X281937Y783609D01*
X281952Y783737D01*
X281972Y783866D01*
X281969Y783895D01*
X281973Y783925D01*
X281955Y784053D01*
X281942Y784183D01*
X281932Y784210D01*
X281928Y784240D01*
X281876Y784392D01*
X281503Y785292D01*
X281503Y789508D01*
X283117Y793403D01*
X286097Y796383D01*
X289992Y797997D01*
X294208Y797997D01*
X298103Y796383D01*
X301083Y793403D01*
X302697Y789508D01*
X302697Y785292D01*
X301083Y781397D01*
X298103Y778417D01*
X294208Y776803D01*
X289992Y776803D01*
X289092Y777176D01*
X289063Y777184D01*
X289037Y777197D01*
X288910Y777226D01*
X288785Y777260D01*
X288756Y777261D01*
X288727Y777267D01*
X288597Y777263D01*
X288467Y777265D01*
X288438Y777258D01*
X288409Y777257D01*
X288284Y777221D01*
X288158Y777191D01*
X288132Y777177D01*
X288103Y777169D01*
X287992Y777103D01*
X287877Y777042D01*
X287855Y777023D01*
X287830Y777007D01*
X287709Y776901D01*
X255789Y744981D01*
X188289Y744981D01*
X188151Y744964D01*
X188013Y744951D01*
X187994Y744944D01*
X187974Y744941D01*
X187844Y744890D01*
X187713Y744843D01*
X187697Y744832D01*
X187678Y744824D01*
X187565Y744743D01*
X187450Y744664D01*
X187437Y744649D01*
X187421Y744638D01*
X187332Y744530D01*
X187240Y744426D01*
X187231Y744408D01*
X187218Y744393D01*
X187159Y744267D01*
X187095Y744143D01*
X187091Y744123D01*
X187082Y744105D01*
X187056Y743969D01*
X187026Y743832D01*
X187026Y743812D01*
X187023Y743793D01*
X187031Y743654D01*
X187035Y743514D01*
X187041Y743495D01*
X187042Y743475D01*
X187085Y743343D01*
X187124Y743209D01*
X187134Y743192D01*
X187140Y743173D01*
X187215Y743055D01*
X187245Y743003D01*
X188977Y738823D01*
X188977Y734377D01*
X187249Y730207D01*
X187218Y730169D01*
X187209Y730150D01*
X187197Y730134D01*
X187142Y730007D01*
X187082Y729881D01*
X187079Y729861D01*
X187071Y729843D01*
X187049Y729705D01*
X187023Y729568D01*
X187024Y729548D01*
X187021Y729529D01*
X187034Y729390D01*
X187042Y729251D01*
X187048Y729232D01*
X187050Y729212D01*
X187098Y729081D01*
X187140Y728949D01*
X187151Y728932D01*
X187158Y728913D01*
X187236Y728797D01*
X187310Y728680D01*
X187325Y728666D01*
X187336Y728649D01*
X187441Y728557D01*
X187542Y728462D01*
X187560Y728452D01*
X187575Y728439D01*
X187699Y728376D01*
X187821Y728308D01*
X187840Y728303D01*
X187858Y728294D01*
X187994Y728264D01*
X188129Y728229D01*
X188156Y728227D01*
X188168Y728225D01*
X188189Y728225D01*
X188289Y728219D01*
X204989Y728219D01*
X287709Y645499D01*
X287732Y645481D01*
X287751Y645458D01*
X287857Y645384D01*
X287960Y645304D01*
X287987Y645292D01*
X288011Y645275D01*
X288132Y645229D01*
X288252Y645178D01*
X288281Y645173D01*
X288309Y645163D01*
X288437Y645148D01*
X288566Y645128D01*
X288595Y645131D01*
X288625Y645127D01*
X288753Y645145D01*
X288883Y645158D01*
X288910Y645168D01*
X288940Y645172D01*
X289092Y645224D01*
X289992Y645597D01*
X294208Y645597D01*
X298103Y643983D01*
X301083Y641003D01*
X302697Y637108D01*
X302697Y632892D01*
X301083Y628997D01*
X298103Y626017D01*
X294208Y624403D01*
X289992Y624403D01*
X286097Y626017D01*
X283117Y628997D01*
X281503Y632892D01*
X281503Y637108D01*
X281876Y638008D01*
X281884Y638037D01*
X281897Y638063D01*
X281926Y638190D01*
X281960Y638315D01*
X281961Y638344D01*
X281967Y638373D01*
X281963Y638503D01*
X281965Y638633D01*
X281958Y638662D01*
X281957Y638691D01*
X281921Y638816D01*
X281891Y638942D01*
X281877Y638968D01*
X281869Y638997D01*
X281803Y639108D01*
X281742Y639223D01*
X281723Y639245D01*
X281707Y639270D01*
X281601Y639391D01*
X201783Y719210D01*
X201705Y719270D01*
X201632Y719338D01*
X201579Y719367D01*
X201532Y719404D01*
X201441Y719444D01*
X201354Y719492D01*
X201295Y719507D01*
X201240Y719531D01*
X201142Y719546D01*
X201046Y719571D01*
X200946Y719577D01*
X200926Y719581D01*
X200913Y719579D01*
X200885Y719581D01*
X188289Y719581D01*
X188151Y719564D01*
X188013Y719551D01*
X187994Y719544D01*
X187974Y719541D01*
X187844Y719490D01*
X187713Y719443D01*
X187697Y719432D01*
X187678Y719424D01*
X187565Y719343D01*
X187450Y719264D01*
X187437Y719249D01*
X187421Y719238D01*
X187332Y719130D01*
X187240Y719026D01*
X187231Y719008D01*
X187218Y718993D01*
X187159Y718867D01*
X187095Y718743D01*
X187091Y718723D01*
X187082Y718705D01*
X187056Y718569D01*
X187026Y718432D01*
X187026Y718412D01*
X187023Y718393D01*
X187031Y718254D01*
X187035Y718114D01*
X187041Y718095D01*
X187042Y718075D01*
X187085Y717943D01*
X187124Y717809D01*
X187134Y717792D01*
X187140Y717773D01*
X187215Y717655D01*
X187245Y717603D01*
X188977Y713423D01*
X188977Y708977D01*
X187249Y704807D01*
X187218Y704769D01*
X187209Y704750D01*
X187197Y704734D01*
X187142Y704607D01*
X187082Y704481D01*
X187079Y704461D01*
X187071Y704443D01*
X187049Y704305D01*
X187023Y704168D01*
X187024Y704148D01*
X187021Y704129D01*
X187034Y703990D01*
X187042Y703851D01*
X187048Y703832D01*
X187050Y703812D01*
X187098Y703681D01*
X187140Y703549D01*
X187151Y703532D01*
X187158Y703513D01*
X187236Y703397D01*
X187310Y703280D01*
X187325Y703266D01*
X187336Y703249D01*
X187441Y703157D01*
X187542Y703062D01*
X187560Y703052D01*
X187575Y703039D01*
X187699Y702976D01*
X187821Y702908D01*
X187840Y702903D01*
X187858Y702894D01*
X187994Y702864D01*
X188129Y702829D01*
X188156Y702827D01*
X188168Y702825D01*
X188189Y702825D01*
X188289Y702819D01*
X204989Y702819D01*
X287709Y620099D01*
X287732Y620081D01*
X287751Y620058D01*
X287857Y619984D01*
X287960Y619904D01*
X287987Y619892D01*
X288011Y619875D01*
X288132Y619829D01*
X288252Y619778D01*
X288281Y619773D01*
X288309Y619763D01*
X288438Y619748D01*
X288566Y619728D01*
X288595Y619731D01*
X288625Y619727D01*
X288753Y619745D01*
X288883Y619758D01*
X288910Y619768D01*
X288940Y619772D01*
X289092Y619824D01*
X289992Y620197D01*
X294208Y620197D01*
X298103Y618583D01*
X301083Y615603D01*
X302697Y611708D01*
X302697Y607492D01*
X301083Y603597D01*
X298103Y600617D01*
X294208Y599003D01*
X289992Y599003D01*
X286097Y600617D01*
X283117Y603597D01*
X281503Y607492D01*
X281503Y611708D01*
X281876Y612608D01*
X281884Y612637D01*
X281897Y612663D01*
X281926Y612790D01*
X281960Y612915D01*
X281961Y612944D01*
X281967Y612973D01*
X281963Y613103D01*
X281965Y613233D01*
X281958Y613262D01*
X281957Y613291D01*
X281921Y613416D01*
X281891Y613542D01*
X281877Y613568D01*
X281869Y613597D01*
X281803Y613708D01*
X281742Y613823D01*
X281722Y613845D01*
X281707Y613870D01*
X281601Y613991D01*
X201783Y693810D01*
X201705Y693870D01*
X201632Y693938D01*
X201579Y693967D01*
X201532Y694004D01*
X201441Y694044D01*
X201354Y694092D01*
X201295Y694107D01*
X201240Y694131D01*
X201142Y694146D01*
X201046Y694171D01*
X200946Y694177D01*
X200926Y694181D01*
X200913Y694179D01*
X200885Y694181D01*
X188289Y694181D01*
X188151Y694164D01*
X188013Y694151D01*
X187994Y694144D01*
X187974Y694141D01*
X187844Y694090D01*
X187713Y694043D01*
X187697Y694032D01*
X187678Y694024D01*
X187565Y693943D01*
X187450Y693864D01*
X187437Y693849D01*
X187421Y693838D01*
X187332Y693730D01*
X187240Y693626D01*
X187231Y693608D01*
X187218Y693593D01*
X187159Y693467D01*
X187095Y693343D01*
X187091Y693323D01*
X187082Y693305D01*
X187056Y693169D01*
X187026Y693032D01*
X187026Y693012D01*
X187023Y692993D01*
X187031Y692854D01*
X187035Y692714D01*
X187041Y692695D01*
X187042Y692675D01*
X187085Y692543D01*
X187124Y692409D01*
X187134Y692392D01*
X187140Y692373D01*
X187215Y692255D01*
X187245Y692203D01*
X188977Y688023D01*
X188977Y683577D01*
X187249Y679407D01*
X187218Y679369D01*
X187209Y679350D01*
X187197Y679334D01*
X187142Y679207D01*
X187082Y679081D01*
X187079Y679061D01*
X187071Y679043D01*
X187049Y678905D01*
X187023Y678768D01*
X187024Y678748D01*
X187021Y678729D01*
X187034Y678590D01*
X187042Y678451D01*
X187048Y678432D01*
X187050Y678412D01*
X187098Y678281D01*
X187140Y678149D01*
X187151Y678132D01*
X187158Y678113D01*
X187236Y677997D01*
X187310Y677880D01*
X187325Y677866D01*
X187336Y677849D01*
X187441Y677757D01*
X187542Y677662D01*
X187560Y677652D01*
X187575Y677639D01*
X187699Y677576D01*
X187821Y677508D01*
X187840Y677503D01*
X187858Y677494D01*
X187994Y677464D01*
X188129Y677429D01*
X188156Y677427D01*
X188168Y677425D01*
X188189Y677425D01*
X188289Y677419D01*
X204989Y677419D01*
X293517Y588890D01*
X293595Y588830D01*
X293668Y588762D01*
X293721Y588733D01*
X293768Y588696D01*
X293859Y588656D01*
X293946Y588608D01*
X294005Y588593D01*
X294060Y588569D01*
X294158Y588554D01*
X294254Y588529D01*
X294354Y588523D01*
X294374Y588519D01*
X294387Y588521D01*
X294415Y588519D01*
X426212Y588519D01*
X426330Y588534D01*
X426449Y588541D01*
X426487Y588554D01*
X426528Y588559D01*
X426638Y588602D01*
X426751Y588639D01*
X426786Y588661D01*
X426823Y588676D01*
X426919Y588745D01*
X427020Y588809D01*
X427048Y588839D01*
X427081Y588862D01*
X427157Y588954D01*
X427238Y589041D01*
X427258Y589076D01*
X427283Y589107D01*
X427334Y589215D01*
X427392Y589319D01*
X427402Y589359D01*
X427419Y589395D01*
X427441Y589512D01*
X427471Y589627D01*
X427475Y589687D01*
X427479Y589707D01*
X427477Y589728D01*
X427481Y589788D01*
X427481Y600728D01*
X427476Y600767D01*
X427479Y600807D01*
X427456Y600925D01*
X427441Y601043D01*
X427427Y601080D01*
X427419Y601120D01*
X427368Y601228D01*
X427324Y601339D01*
X427301Y601371D01*
X427284Y601407D01*
X427208Y601500D01*
X427138Y601597D01*
X427107Y601622D01*
X427082Y601653D01*
X426985Y601723D01*
X426893Y601799D01*
X426857Y601816D01*
X426824Y601840D01*
X426713Y601884D01*
X426605Y601935D01*
X426566Y601942D01*
X426529Y601957D01*
X426410Y601972D01*
X426293Y601995D01*
X426253Y601992D01*
X426213Y601997D01*
X426094Y601982D01*
X425975Y601975D01*
X425937Y601963D01*
X425898Y601958D01*
X425786Y601914D01*
X425673Y601877D01*
X425639Y601856D01*
X425602Y601841D01*
X425466Y601755D01*
X424388Y600971D01*
X422973Y600250D01*
X421462Y599760D01*
X421349Y599742D01*
X421349Y608620D01*
X421334Y608738D01*
X421327Y608857D01*
X421314Y608895D01*
X421309Y608935D01*
X421266Y609046D01*
X421229Y609159D01*
X421207Y609193D01*
X421192Y609231D01*
X421123Y609327D01*
X421059Y609428D01*
X421029Y609456D01*
X421006Y609488D01*
X420914Y609564D01*
X420880Y609596D01*
X420888Y609601D01*
X420916Y609631D01*
X420949Y609655D01*
X421025Y609746D01*
X421106Y609833D01*
X421126Y609868D01*
X421151Y609900D01*
X421202Y610007D01*
X421260Y610112D01*
X421270Y610151D01*
X421287Y610187D01*
X421309Y610304D01*
X421339Y610420D01*
X421343Y610480D01*
X421347Y610500D01*
X421345Y610520D01*
X421349Y610580D01*
X421349Y619458D01*
X421462Y619440D01*
X422973Y618950D01*
X424388Y618229D01*
X425466Y617445D01*
X425501Y617426D01*
X425531Y617401D01*
X425640Y617350D01*
X425745Y617292D01*
X425783Y617282D01*
X425819Y617265D01*
X425936Y617243D01*
X426053Y617213D01*
X426093Y617213D01*
X426132Y617205D01*
X426251Y617213D01*
X426371Y617213D01*
X426409Y617223D01*
X426449Y617225D01*
X426563Y617262D01*
X426679Y617292D01*
X426714Y617311D01*
X426751Y617323D01*
X426853Y617387D01*
X426957Y617445D01*
X426986Y617472D01*
X427020Y617493D01*
X427102Y617581D01*
X427189Y617662D01*
X427211Y617696D01*
X427238Y617725D01*
X427296Y617830D01*
X427360Y617931D01*
X427372Y617969D01*
X427392Y618003D01*
X427421Y618119D01*
X427459Y618233D01*
X427461Y618273D01*
X427471Y618311D01*
X427481Y618472D01*
X427481Y625331D01*
X427464Y625469D01*
X427451Y625607D01*
X427444Y625626D01*
X427441Y625647D01*
X427390Y625776D01*
X427343Y625907D01*
X427332Y625923D01*
X427324Y625942D01*
X427243Y626055D01*
X427165Y626170D01*
X427149Y626183D01*
X427138Y626200D01*
X427030Y626288D01*
X426926Y626380D01*
X426908Y626389D01*
X426893Y626402D01*
X426767Y626461D01*
X426643Y626525D01*
X426623Y626529D01*
X426605Y626538D01*
X426469Y626564D01*
X426333Y626595D01*
X426312Y626594D01*
X426293Y626598D01*
X426154Y626589D01*
X426015Y626585D01*
X425995Y626579D01*
X425975Y626578D01*
X425843Y626535D01*
X425709Y626496D01*
X425692Y626486D01*
X425673Y626480D01*
X425555Y626406D01*
X425435Y626335D01*
X425414Y626316D01*
X425404Y626310D01*
X425390Y626295D01*
X425314Y626228D01*
X425103Y626016D01*
X421208Y624403D01*
X416992Y624403D01*
X413097Y626017D01*
X410117Y628997D01*
X408503Y632892D01*
X408503Y637108D01*
X410117Y641003D01*
X413097Y643983D01*
X416992Y645597D01*
X421208Y645597D01*
X425103Y643984D01*
X425314Y643772D01*
X425424Y643686D01*
X425531Y643598D01*
X425550Y643589D01*
X425566Y643577D01*
X425693Y643521D01*
X425819Y643462D01*
X425839Y643458D01*
X425858Y643450D01*
X425995Y643428D01*
X426132Y643402D01*
X426152Y643404D01*
X426172Y643400D01*
X426310Y643413D01*
X426449Y643422D01*
X426468Y643428D01*
X426488Y643430D01*
X426620Y643477D01*
X426751Y643520D01*
X426768Y643531D01*
X426788Y643538D01*
X426903Y643616D01*
X427020Y643690D01*
X427034Y643705D01*
X427051Y643716D01*
X427143Y643821D01*
X427238Y643922D01*
X427248Y643940D01*
X427261Y643955D01*
X427325Y644079D01*
X427392Y644200D01*
X427397Y644220D01*
X427406Y644238D01*
X427436Y644374D01*
X427471Y644508D01*
X427473Y644536D01*
X427476Y644548D01*
X427475Y644569D01*
X427481Y644669D01*
X427481Y650731D01*
X427464Y650869D01*
X427451Y651007D01*
X427444Y651026D01*
X427441Y651047D01*
X427390Y651176D01*
X427343Y651307D01*
X427332Y651323D01*
X427324Y651342D01*
X427243Y651455D01*
X427165Y651570D01*
X427149Y651583D01*
X427138Y651600D01*
X427030Y651688D01*
X426926Y651780D01*
X426908Y651789D01*
X426893Y651802D01*
X426767Y651861D01*
X426643Y651925D01*
X426623Y651929D01*
X426605Y651938D01*
X426469Y651964D01*
X426333Y651995D01*
X426312Y651994D01*
X426293Y651998D01*
X426154Y651989D01*
X426015Y651985D01*
X425995Y651979D01*
X425975Y651978D01*
X425843Y651935D01*
X425709Y651896D01*
X425692Y651886D01*
X425673Y651880D01*
X425555Y651806D01*
X425435Y651735D01*
X425414Y651716D01*
X425404Y651710D01*
X425390Y651695D01*
X425314Y651628D01*
X425103Y651416D01*
X421208Y649803D01*
X416992Y649803D01*
X413097Y651417D01*
X410117Y654397D01*
X408503Y658292D01*
X408503Y662508D01*
X410117Y666403D01*
X413097Y669383D01*
X416992Y670997D01*
X421208Y670997D01*
X425103Y669384D01*
X425314Y669172D01*
X425424Y669086D01*
X425531Y668998D01*
X425550Y668989D01*
X425566Y668977D01*
X425693Y668921D01*
X425819Y668862D01*
X425839Y668858D01*
X425858Y668850D01*
X425995Y668828D01*
X426132Y668802D01*
X426152Y668804D01*
X426172Y668800D01*
X426310Y668813D01*
X426449Y668822D01*
X426468Y668828D01*
X426488Y668830D01*
X426620Y668877D01*
X426751Y668920D01*
X426768Y668931D01*
X426788Y668938D01*
X426903Y669016D01*
X427020Y669090D01*
X427034Y669105D01*
X427051Y669116D01*
X427143Y669221D01*
X427238Y669322D01*
X427248Y669340D01*
X427261Y669355D01*
X427325Y669479D01*
X427392Y669600D01*
X427397Y669620D01*
X427406Y669638D01*
X427436Y669774D01*
X427471Y669908D01*
X427473Y669936D01*
X427476Y669948D01*
X427475Y669969D01*
X427481Y670069D01*
X427481Y676131D01*
X427464Y676269D01*
X427451Y676407D01*
X427444Y676426D01*
X427441Y676447D01*
X427390Y676576D01*
X427343Y676707D01*
X427332Y676723D01*
X427324Y676742D01*
X427243Y676855D01*
X427165Y676970D01*
X427149Y676983D01*
X427138Y677000D01*
X427030Y677088D01*
X426926Y677180D01*
X426908Y677189D01*
X426893Y677202D01*
X426767Y677261D01*
X426643Y677325D01*
X426623Y677329D01*
X426605Y677338D01*
X426469Y677364D01*
X426333Y677395D01*
X426312Y677394D01*
X426293Y677398D01*
X426154Y677389D01*
X426015Y677385D01*
X425995Y677379D01*
X425975Y677378D01*
X425843Y677335D01*
X425709Y677296D01*
X425692Y677286D01*
X425673Y677280D01*
X425555Y677206D01*
X425435Y677135D01*
X425414Y677116D01*
X425404Y677110D01*
X425390Y677095D01*
X425314Y677028D01*
X425103Y676816D01*
X421208Y675203D01*
X416992Y675203D01*
X413097Y676817D01*
X410117Y679797D01*
X408503Y683692D01*
X408503Y687908D01*
X410117Y691803D01*
X413097Y694783D01*
X416992Y696397D01*
X421208Y696397D01*
X425103Y694784D01*
X425314Y694572D01*
X425424Y694486D01*
X425531Y694398D01*
X425550Y694389D01*
X425566Y694377D01*
X425693Y694321D01*
X425819Y694262D01*
X425839Y694258D01*
X425858Y694250D01*
X425995Y694228D01*
X426132Y694202D01*
X426152Y694204D01*
X426172Y694200D01*
X426310Y694213D01*
X426449Y694222D01*
X426468Y694228D01*
X426488Y694230D01*
X426620Y694277D01*
X426751Y694320D01*
X426768Y694331D01*
X426788Y694338D01*
X426903Y694416D01*
X427020Y694490D01*
X427034Y694505D01*
X427051Y694516D01*
X427143Y694621D01*
X427238Y694722D01*
X427248Y694740D01*
X427261Y694755D01*
X427325Y694879D01*
X427392Y695000D01*
X427397Y695020D01*
X427406Y695038D01*
X427436Y695174D01*
X427471Y695308D01*
X427473Y695336D01*
X427476Y695348D01*
X427475Y695369D01*
X427481Y695469D01*
X427481Y701531D01*
X427464Y701669D01*
X427451Y701807D01*
X427444Y701826D01*
X427441Y701847D01*
X427390Y701976D01*
X427343Y702107D01*
X427332Y702123D01*
X427324Y702142D01*
X427243Y702255D01*
X427165Y702370D01*
X427149Y702383D01*
X427138Y702400D01*
X427030Y702488D01*
X426926Y702580D01*
X426908Y702589D01*
X426893Y702602D01*
X426767Y702661D01*
X426643Y702725D01*
X426623Y702729D01*
X426605Y702738D01*
X426469Y702764D01*
X426333Y702795D01*
X426312Y702794D01*
X426293Y702798D01*
X426154Y702789D01*
X426015Y702785D01*
X425995Y702779D01*
X425975Y702778D01*
X425843Y702735D01*
X425709Y702696D01*
X425692Y702686D01*
X425673Y702680D01*
X425555Y702606D01*
X425435Y702535D01*
X425414Y702516D01*
X425404Y702510D01*
X425390Y702495D01*
X425314Y702428D01*
X425103Y702216D01*
X421208Y700603D01*
X416992Y700603D01*
X413097Y702217D01*
X410117Y705197D01*
X408503Y709092D01*
X408503Y713308D01*
X410117Y717203D01*
X413097Y720183D01*
X416992Y721797D01*
X421208Y721797D01*
X425103Y720184D01*
X425314Y719972D01*
X425424Y719886D01*
X425531Y719798D01*
X425550Y719789D01*
X425566Y719777D01*
X425693Y719721D01*
X425819Y719662D01*
X425839Y719658D01*
X425858Y719650D01*
X425995Y719628D01*
X426132Y719602D01*
X426152Y719604D01*
X426172Y719600D01*
X426310Y719613D01*
X426449Y719622D01*
X426468Y719628D01*
X426488Y719630D01*
X426620Y719677D01*
X426751Y719720D01*
X426768Y719731D01*
X426788Y719738D01*
X426903Y719816D01*
X427020Y719890D01*
X427034Y719905D01*
X427051Y719916D01*
X427143Y720021D01*
X427238Y720122D01*
X427248Y720140D01*
X427261Y720155D01*
X427325Y720279D01*
X427392Y720400D01*
X427397Y720420D01*
X427406Y720438D01*
X427436Y720574D01*
X427471Y720708D01*
X427473Y720736D01*
X427476Y720748D01*
X427475Y720769D01*
X427481Y720869D01*
X427481Y726931D01*
X427464Y727069D01*
X427451Y727207D01*
X427444Y727226D01*
X427441Y727247D01*
X427390Y727376D01*
X427343Y727507D01*
X427332Y727523D01*
X427324Y727542D01*
X427243Y727655D01*
X427165Y727770D01*
X427149Y727783D01*
X427138Y727800D01*
X427030Y727888D01*
X426926Y727980D01*
X426908Y727989D01*
X426893Y728002D01*
X426767Y728061D01*
X426643Y728125D01*
X426623Y728129D01*
X426605Y728138D01*
X426469Y728164D01*
X426333Y728195D01*
X426312Y728194D01*
X426293Y728198D01*
X426154Y728189D01*
X426015Y728185D01*
X425995Y728179D01*
X425975Y728178D01*
X425843Y728135D01*
X425709Y728096D01*
X425692Y728086D01*
X425673Y728080D01*
X425555Y728006D01*
X425435Y727935D01*
X425414Y727916D01*
X425404Y727910D01*
X425390Y727895D01*
X425314Y727828D01*
X425103Y727616D01*
X421208Y726003D01*
X416992Y726003D01*
X413097Y727617D01*
X410117Y730597D01*
X408503Y734492D01*
X408503Y738708D01*
X410117Y742603D01*
X413097Y745583D01*
X416992Y747197D01*
X421208Y747197D01*
X425103Y745584D01*
X425314Y745372D01*
X425424Y745286D01*
X425531Y745198D01*
X425550Y745189D01*
X425566Y745177D01*
X425693Y745121D01*
X425819Y745062D01*
X425839Y745058D01*
X425858Y745050D01*
X425995Y745028D01*
X426132Y745002D01*
X426152Y745004D01*
X426172Y745000D01*
X426310Y745013D01*
X426449Y745022D01*
X426468Y745028D01*
X426488Y745030D01*
X426620Y745077D01*
X426751Y745120D01*
X426768Y745131D01*
X426788Y745138D01*
X426903Y745216D01*
X427020Y745290D01*
X427034Y745305D01*
X427051Y745316D01*
X427143Y745421D01*
X427238Y745522D01*
X427248Y745540D01*
X427261Y745555D01*
X427325Y745679D01*
X427392Y745800D01*
X427397Y745820D01*
X427406Y745838D01*
X427436Y745974D01*
X427471Y746108D01*
X427473Y746136D01*
X427476Y746148D01*
X427475Y746169D01*
X427481Y746269D01*
X427481Y753128D01*
X427476Y753167D01*
X427479Y753207D01*
X427456Y753325D01*
X427441Y753443D01*
X427427Y753480D01*
X427419Y753520D01*
X427368Y753628D01*
X427324Y753739D01*
X427301Y753771D01*
X427284Y753807D01*
X427208Y753900D01*
X427138Y753997D01*
X427107Y754022D01*
X427082Y754053D01*
X426985Y754123D01*
X426893Y754199D01*
X426857Y754216D01*
X426824Y754240D01*
X426713Y754284D01*
X426605Y754335D01*
X426566Y754342D01*
X426529Y754357D01*
X426410Y754372D01*
X426293Y754395D01*
X426253Y754392D01*
X426213Y754397D01*
X426094Y754382D01*
X425975Y754375D01*
X425937Y754363D01*
X425898Y754358D01*
X425786Y754314D01*
X425673Y754277D01*
X425639Y754256D01*
X425602Y754241D01*
X425466Y754155D01*
X424388Y753371D01*
X422973Y752650D01*
X421462Y752160D01*
X421349Y752142D01*
X421349Y761020D01*
X421334Y761138D01*
X421327Y761257D01*
X421314Y761295D01*
X421309Y761335D01*
X421266Y761446D01*
X421229Y761559D01*
X421207Y761593D01*
X421192Y761631D01*
X421123Y761727D01*
X421059Y761828D01*
X421029Y761856D01*
X421006Y761888D01*
X420914Y761964D01*
X420880Y761996D01*
X420888Y762001D01*
X420916Y762031D01*
X420949Y762055D01*
X421025Y762146D01*
X421106Y762233D01*
X421126Y762268D01*
X421151Y762300D01*
X421202Y762407D01*
X421260Y762512D01*
X421270Y762551D01*
X421287Y762587D01*
X421309Y762704D01*
X421339Y762820D01*
X421343Y762880D01*
X421347Y762900D01*
X421345Y762920D01*
X421349Y762980D01*
X421349Y771858D01*
X421462Y771840D01*
X422973Y771350D01*
X424388Y770629D01*
X425672Y769695D01*
X426795Y768572D01*
X427729Y767288D01*
X428033Y766690D01*
X428129Y766549D01*
X428211Y766428D01*
X428212Y766428D01*
X428212Y766427D01*
X428352Y766304D01*
X428450Y766217D01*
X428583Y766149D01*
X428733Y766073D01*
X428734Y766072D01*
X428883Y766039D01*
X429043Y766003D01*
X429044Y766003D01*
X429183Y766007D01*
X429361Y766013D01*
X429362Y766013D01*
X429487Y766049D01*
X429667Y766101D01*
X429797Y766178D01*
X429941Y766263D01*
X430061Y766369D01*
X455411Y791719D01*
X459371Y791719D01*
X459400Y791722D01*
X459430Y791720D01*
X459558Y791742D01*
X459687Y791759D01*
X459714Y791769D01*
X459743Y791774D01*
X459862Y791828D01*
X459982Y791876D01*
X460006Y791893D01*
X460033Y791905D01*
X460134Y791986D01*
X460240Y792062D01*
X460258Y792085D01*
X460281Y792104D01*
X460360Y792207D01*
X460442Y792307D01*
X460455Y792334D01*
X460473Y792358D01*
X460544Y792502D01*
X460917Y793403D01*
X463897Y796383D01*
X467792Y797997D01*
X472008Y797997D01*
X475903Y796383D01*
X478883Y793403D01*
X480497Y789508D01*
X480497Y785292D01*
X478883Y781397D01*
X475903Y778417D01*
X472008Y776803D01*
X467792Y776803D01*
X463897Y778417D01*
X460917Y781397D01*
X460586Y782196D01*
X460561Y782239D01*
X460544Y782286D01*
X460483Y782377D01*
X460428Y782472D01*
X460394Y782508D01*
X460366Y782549D01*
X460283Y782622D01*
X460207Y782701D01*
X460164Y782727D01*
X460127Y782760D01*
X460029Y782810D01*
X459936Y782867D01*
X459888Y782882D01*
X459844Y782904D01*
X459737Y782928D01*
X459632Y782961D01*
X459582Y782963D01*
X459534Y782974D01*
X459424Y782971D01*
X459314Y782976D01*
X459266Y782966D01*
X459216Y782964D01*
X459110Y782934D01*
X459003Y782912D01*
X458958Y782890D01*
X458910Y782876D01*
X458816Y782820D01*
X458717Y782772D01*
X458679Y782740D01*
X458636Y782714D01*
X458516Y782608D01*
X436490Y760583D01*
X436430Y760505D01*
X436362Y760432D01*
X436333Y760379D01*
X436296Y760332D01*
X436256Y760241D01*
X436208Y760154D01*
X436193Y760095D01*
X436169Y760040D01*
X436154Y759942D01*
X436129Y759846D01*
X436123Y759746D01*
X436119Y759726D01*
X436121Y759713D01*
X436119Y759685D01*
X436119Y610391D01*
X436136Y610253D01*
X436149Y610114D01*
X436156Y610095D01*
X436159Y610075D01*
X436210Y609946D01*
X436257Y609815D01*
X436268Y609798D01*
X436276Y609779D01*
X436357Y609667D01*
X436435Y609552D01*
X436451Y609538D01*
X436462Y609522D01*
X436570Y609433D01*
X436674Y609341D01*
X436692Y609332D01*
X436707Y609319D01*
X436833Y609260D01*
X436957Y609197D01*
X436977Y609192D01*
X436995Y609184D01*
X437131Y609158D01*
X437267Y609127D01*
X437288Y609128D01*
X437307Y609124D01*
X437446Y609133D01*
X437585Y609137D01*
X437605Y609142D01*
X437625Y609144D01*
X437757Y609186D01*
X437891Y609225D01*
X437908Y609235D01*
X437927Y609242D01*
X438045Y609316D01*
X438165Y609387D01*
X438186Y609405D01*
X438196Y609412D01*
X438210Y609427D01*
X438285Y609493D01*
X459401Y630609D01*
X459419Y630632D01*
X459442Y630651D01*
X459516Y630757D01*
X459596Y630860D01*
X459608Y630887D01*
X459625Y630911D01*
X459671Y631033D01*
X459722Y631152D01*
X459727Y631181D01*
X459737Y631209D01*
X459752Y631338D01*
X459772Y631466D01*
X459769Y631495D01*
X459773Y631525D01*
X459755Y631653D01*
X459742Y631782D01*
X459732Y631810D01*
X459728Y631840D01*
X459676Y631992D01*
X459303Y632892D01*
X459303Y637108D01*
X460917Y641003D01*
X463897Y643983D01*
X467792Y645597D01*
X472008Y645597D01*
X475903Y643983D01*
X478883Y641003D01*
X480497Y637108D01*
X480497Y632892D01*
X478883Y628997D01*
X475903Y626017D01*
X472008Y624403D01*
X467792Y624403D01*
X466892Y624776D01*
X466863Y624784D01*
X466837Y624797D01*
X466710Y624826D01*
X466585Y624860D01*
X466556Y624861D01*
X466527Y624867D01*
X466397Y624863D01*
X466267Y624865D01*
X466238Y624858D01*
X466209Y624857D01*
X466084Y624821D01*
X465958Y624791D01*
X465932Y624777D01*
X465903Y624769D01*
X465791Y624703D01*
X465677Y624642D01*
X465655Y624622D01*
X465629Y624607D01*
X465509Y624501D01*
X441062Y600055D01*
X441002Y599977D01*
X440934Y599904D01*
X440905Y599851D01*
X440868Y599804D01*
X440828Y599713D01*
X440780Y599626D01*
X440765Y599567D01*
X440741Y599512D01*
X440726Y599414D01*
X440701Y599318D01*
X440695Y599218D01*
X440691Y599198D01*
X440693Y599185D01*
X440691Y599157D01*
X440691Y589563D01*
X440708Y589425D01*
X440721Y589286D01*
X440728Y589267D01*
X440731Y589247D01*
X440782Y589118D01*
X440829Y588987D01*
X440840Y588970D01*
X440848Y588951D01*
X440929Y588839D01*
X441007Y588724D01*
X441023Y588710D01*
X441034Y588694D01*
X441142Y588605D01*
X441246Y588513D01*
X441264Y588504D01*
X441279Y588491D01*
X441405Y588432D01*
X441529Y588369D01*
X441549Y588364D01*
X441567Y588356D01*
X441703Y588330D01*
X441839Y588299D01*
X441860Y588300D01*
X441879Y588296D01*
X442018Y588305D01*
X442157Y588309D01*
X442177Y588314D01*
X442197Y588316D01*
X442329Y588358D01*
X442463Y588397D01*
X442480Y588407D01*
X442499Y588414D01*
X442617Y588488D01*
X442737Y588559D01*
X442758Y588577D01*
X442768Y588584D01*
X442782Y588599D01*
X442857Y588665D01*
X459401Y605209D01*
X459419Y605232D01*
X459442Y605251D01*
X459516Y605357D01*
X459596Y605460D01*
X459608Y605487D01*
X459625Y605511D01*
X459671Y605632D01*
X459722Y605752D01*
X459727Y605781D01*
X459737Y605809D01*
X459752Y605937D01*
X459772Y606066D01*
X459769Y606095D01*
X459773Y606125D01*
X459755Y606253D01*
X459742Y606383D01*
X459732Y606410D01*
X459728Y606440D01*
X459676Y606592D01*
X459303Y607492D01*
X459303Y611708D01*
X460917Y615603D01*
X463897Y618583D01*
X467792Y620197D01*
X472008Y620197D01*
X475903Y618583D01*
X478883Y615603D01*
X480497Y611708D01*
X480497Y607492D01*
X478883Y603597D01*
X475903Y600617D01*
X472008Y599003D01*
X467792Y599003D01*
X466892Y599376D01*
X466863Y599384D01*
X466837Y599397D01*
X466710Y599426D01*
X466585Y599460D01*
X466556Y599461D01*
X466527Y599467D01*
X466397Y599463D01*
X466267Y599465D01*
X466238Y599458D01*
X466209Y599457D01*
X466084Y599421D01*
X465958Y599391D01*
X465932Y599377D01*
X465903Y599369D01*
X465792Y599303D01*
X465677Y599242D01*
X465655Y599223D01*
X465630Y599207D01*
X465509Y599101D01*
X456077Y589669D01*
X455992Y589560D01*
X455903Y589453D01*
X455895Y589434D01*
X455882Y589418D01*
X455827Y589290D01*
X455768Y589165D01*
X455764Y589145D01*
X455756Y589126D01*
X455734Y588988D01*
X455708Y588852D01*
X455709Y588832D01*
X455706Y588812D01*
X455719Y588673D01*
X455728Y588535D01*
X455734Y588516D01*
X455736Y588496D01*
X455783Y588364D01*
X455826Y588233D01*
X455836Y588215D01*
X455843Y588196D01*
X455921Y588081D01*
X455996Y587964D01*
X456011Y587950D01*
X456022Y587933D01*
X456126Y587841D01*
X456227Y587746D01*
X456245Y587736D01*
X456260Y587723D01*
X456384Y587659D01*
X456506Y587592D01*
X456526Y587587D01*
X456544Y587578D01*
X456679Y587548D01*
X456814Y587513D01*
X456842Y587511D01*
X456854Y587508D01*
X456874Y587509D01*
X456975Y587503D01*
X604012Y587503D01*
X604130Y587518D01*
X604249Y587525D01*
X604287Y587538D01*
X604328Y587543D01*
X604438Y587586D01*
X604551Y587623D01*
X604586Y587645D01*
X604623Y587660D01*
X604719Y587729D01*
X604820Y587793D01*
X604848Y587823D01*
X604881Y587846D01*
X604957Y587938D01*
X605038Y588025D01*
X605058Y588060D01*
X605083Y588091D01*
X605134Y588199D01*
X605192Y588303D01*
X605202Y588343D01*
X605219Y588379D01*
X605241Y588496D01*
X605271Y588611D01*
X605275Y588671D01*
X605279Y588691D01*
X605277Y588712D01*
X605281Y588772D01*
X605281Y600728D01*
X605276Y600767D01*
X605279Y600807D01*
X605256Y600925D01*
X605241Y601043D01*
X605227Y601080D01*
X605219Y601120D01*
X605168Y601228D01*
X605124Y601339D01*
X605101Y601371D01*
X605084Y601407D01*
X605008Y601500D01*
X604938Y601597D01*
X604907Y601622D01*
X604882Y601653D01*
X604785Y601723D01*
X604693Y601799D01*
X604657Y601816D01*
X604624Y601840D01*
X604513Y601884D01*
X604405Y601935D01*
X604366Y601942D01*
X604329Y601957D01*
X604210Y601972D01*
X604093Y601995D01*
X604053Y601992D01*
X604013Y601997D01*
X603894Y601982D01*
X603775Y601975D01*
X603737Y601963D01*
X603698Y601958D01*
X603586Y601914D01*
X603473Y601877D01*
X603439Y601856D01*
X603402Y601841D01*
X603266Y601755D01*
X602188Y600971D01*
X600773Y600250D01*
X599262Y599760D01*
X599149Y599742D01*
X599149Y608620D01*
X599134Y608738D01*
X599127Y608857D01*
X599114Y608895D01*
X599109Y608935D01*
X599066Y609046D01*
X599029Y609159D01*
X599007Y609193D01*
X598992Y609231D01*
X598923Y609327D01*
X598859Y609428D01*
X598829Y609456D01*
X598806Y609488D01*
X598714Y609564D01*
X598680Y609596D01*
X598688Y609601D01*
X598716Y609631D01*
X598749Y609655D01*
X598825Y609746D01*
X598906Y609833D01*
X598926Y609868D01*
X598951Y609900D01*
X599002Y610007D01*
X599060Y610112D01*
X599070Y610151D01*
X599087Y610187D01*
X599109Y610304D01*
X599139Y610420D01*
X599143Y610480D01*
X599147Y610500D01*
X599145Y610520D01*
X599149Y610580D01*
X599149Y619458D01*
X599262Y619440D01*
X600773Y618950D01*
X602188Y618229D01*
X603266Y617445D01*
X603301Y617426D01*
X603331Y617401D01*
X603440Y617350D01*
X603545Y617292D01*
X603583Y617282D01*
X603619Y617265D01*
X603736Y617243D01*
X603853Y617213D01*
X603893Y617213D01*
X603932Y617205D01*
X604051Y617213D01*
X604171Y617213D01*
X604209Y617223D01*
X604249Y617225D01*
X604363Y617262D01*
X604479Y617292D01*
X604514Y617311D01*
X604551Y617323D01*
X604653Y617387D01*
X604757Y617445D01*
X604786Y617472D01*
X604820Y617493D01*
X604902Y617581D01*
X604989Y617662D01*
X605011Y617696D01*
X605038Y617725D01*
X605096Y617830D01*
X605160Y617931D01*
X605172Y617969D01*
X605192Y618003D01*
X605221Y618119D01*
X605259Y618233D01*
X605261Y618273D01*
X605271Y618311D01*
X605281Y618472D01*
X605281Y625331D01*
X605264Y625469D01*
X605251Y625607D01*
X605244Y625626D01*
X605241Y625647D01*
X605190Y625776D01*
X605143Y625907D01*
X605132Y625923D01*
X605124Y625942D01*
X605043Y626055D01*
X604965Y626170D01*
X604949Y626183D01*
X604938Y626200D01*
X604830Y626288D01*
X604726Y626380D01*
X604708Y626389D01*
X604693Y626402D01*
X604567Y626461D01*
X604443Y626525D01*
X604423Y626529D01*
X604405Y626538D01*
X604269Y626564D01*
X604133Y626595D01*
X604112Y626594D01*
X604093Y626598D01*
X603954Y626589D01*
X603815Y626585D01*
X603795Y626579D01*
X603775Y626578D01*
X603643Y626535D01*
X603509Y626496D01*
X603492Y626486D01*
X603473Y626480D01*
X603355Y626406D01*
X603235Y626335D01*
X603214Y626316D01*
X603204Y626310D01*
X603190Y626295D01*
X603114Y626228D01*
X602903Y626016D01*
X599008Y624403D01*
X594792Y624403D01*
X590897Y626017D01*
X587917Y628997D01*
X586303Y632892D01*
X586303Y637108D01*
X587917Y641003D01*
X590897Y643983D01*
X594792Y645597D01*
X599008Y645597D01*
X602903Y643984D01*
X603114Y643772D01*
X603224Y643686D01*
X603331Y643598D01*
X603350Y643589D01*
X603366Y643577D01*
X603493Y643521D01*
X603619Y643462D01*
X603639Y643458D01*
X603658Y643450D01*
X603795Y643428D01*
X603932Y643402D01*
X603952Y643404D01*
X603972Y643400D01*
X604110Y643413D01*
X604249Y643422D01*
X604268Y643428D01*
X604288Y643430D01*
X604420Y643477D01*
X604551Y643520D01*
X604568Y643531D01*
X604588Y643538D01*
X604703Y643616D01*
X604820Y643690D01*
X604834Y643705D01*
X604851Y643716D01*
X604943Y643821D01*
X605038Y643922D01*
X605048Y643940D01*
X605061Y643955D01*
X605125Y644079D01*
X605192Y644200D01*
X605197Y644220D01*
X605206Y644238D01*
X605236Y644374D01*
X605271Y644508D01*
X605273Y644536D01*
X605276Y644548D01*
X605275Y644569D01*
X605281Y644669D01*
X605281Y650731D01*
X605264Y650869D01*
X605251Y651007D01*
X605244Y651026D01*
X605241Y651047D01*
X605190Y651176D01*
X605143Y651307D01*
X605132Y651323D01*
X605124Y651342D01*
X605043Y651455D01*
X604965Y651570D01*
X604949Y651583D01*
X604938Y651600D01*
X604830Y651688D01*
X604726Y651780D01*
X604708Y651789D01*
X604693Y651802D01*
X604567Y651861D01*
X604443Y651925D01*
X604423Y651929D01*
X604405Y651938D01*
X604269Y651964D01*
X604133Y651995D01*
X604112Y651994D01*
X604093Y651998D01*
X603954Y651989D01*
X603815Y651985D01*
X603795Y651979D01*
X603775Y651978D01*
X603643Y651935D01*
X603509Y651896D01*
X603492Y651886D01*
X603473Y651880D01*
X603355Y651806D01*
X603235Y651735D01*
X603214Y651716D01*
X603204Y651710D01*
X603190Y651695D01*
X603114Y651628D01*
X602903Y651416D01*
X599008Y649803D01*
X594792Y649803D01*
X590897Y651417D01*
X587917Y654397D01*
X586303Y658292D01*
X586303Y662508D01*
X587917Y666403D01*
X590897Y669383D01*
X594792Y670997D01*
X599008Y670997D01*
X602903Y669384D01*
X603114Y669172D01*
X603224Y669086D01*
X603331Y668998D01*
X603350Y668989D01*
X603366Y668977D01*
X603493Y668921D01*
X603619Y668862D01*
X603639Y668858D01*
X603658Y668850D01*
X603795Y668828D01*
X603932Y668802D01*
X603952Y668804D01*
X603972Y668800D01*
X604110Y668813D01*
X604249Y668822D01*
X604268Y668828D01*
X604288Y668830D01*
X604420Y668877D01*
X604551Y668920D01*
X604568Y668931D01*
X604588Y668938D01*
X604703Y669016D01*
X604820Y669090D01*
X604834Y669105D01*
X604851Y669116D01*
X604943Y669221D01*
X605038Y669322D01*
X605048Y669340D01*
X605061Y669355D01*
X605125Y669479D01*
X605192Y669600D01*
X605197Y669620D01*
X605206Y669638D01*
X605236Y669774D01*
X605271Y669908D01*
X605273Y669936D01*
X605276Y669948D01*
X605275Y669969D01*
X605281Y670069D01*
X605281Y676131D01*
X605264Y676269D01*
X605251Y676407D01*
X605244Y676426D01*
X605241Y676447D01*
X605190Y676576D01*
X605143Y676707D01*
X605132Y676723D01*
X605124Y676742D01*
X605043Y676855D01*
X604965Y676970D01*
X604949Y676983D01*
X604938Y677000D01*
X604830Y677088D01*
X604726Y677180D01*
X604708Y677189D01*
X604693Y677202D01*
X604567Y677261D01*
X604443Y677325D01*
X604423Y677329D01*
X604405Y677338D01*
X604269Y677364D01*
X604133Y677395D01*
X604112Y677394D01*
X604093Y677398D01*
X603954Y677389D01*
X603815Y677385D01*
X603795Y677379D01*
X603775Y677378D01*
X603643Y677335D01*
X603509Y677296D01*
X603492Y677286D01*
X603473Y677280D01*
X603355Y677206D01*
X603235Y677135D01*
X603214Y677116D01*
X603204Y677110D01*
X603190Y677095D01*
X603114Y677028D01*
X602903Y676816D01*
X599008Y675203D01*
X594792Y675203D01*
X590897Y676817D01*
X587917Y679797D01*
X586303Y683692D01*
X586303Y687908D01*
X587917Y691803D01*
X590897Y694783D01*
X594792Y696397D01*
X599008Y696397D01*
X602903Y694784D01*
X603114Y694572D01*
X603224Y694486D01*
X603331Y694398D01*
X603350Y694389D01*
X603366Y694377D01*
X603493Y694321D01*
X603619Y694262D01*
X603639Y694258D01*
X603658Y694250D01*
X603795Y694228D01*
X603932Y694202D01*
X603952Y694204D01*
X603972Y694200D01*
X604110Y694213D01*
X604249Y694222D01*
X604268Y694228D01*
X604288Y694230D01*
X604420Y694277D01*
X604551Y694320D01*
X604568Y694331D01*
X604588Y694338D01*
X604703Y694416D01*
X604820Y694490D01*
X604834Y694505D01*
X604851Y694516D01*
X604943Y694621D01*
X605038Y694722D01*
X605048Y694740D01*
X605061Y694755D01*
X605125Y694879D01*
X605192Y695000D01*
X605197Y695020D01*
X605206Y695038D01*
X605236Y695174D01*
X605271Y695308D01*
X605273Y695336D01*
X605276Y695348D01*
X605275Y695369D01*
X605281Y695469D01*
X605281Y701531D01*
X605264Y701669D01*
X605251Y701807D01*
X605244Y701826D01*
X605241Y701847D01*
X605190Y701976D01*
X605143Y702107D01*
X605132Y702123D01*
X605124Y702142D01*
X605043Y702255D01*
X604965Y702370D01*
X604949Y702383D01*
X604938Y702400D01*
X604830Y702488D01*
X604726Y702580D01*
X604708Y702589D01*
X604693Y702602D01*
X604567Y702661D01*
X604443Y702725D01*
X604423Y702729D01*
X604405Y702738D01*
X604269Y702764D01*
X604133Y702795D01*
X604112Y702794D01*
X604093Y702798D01*
X603954Y702789D01*
X603815Y702785D01*
X603795Y702779D01*
X603775Y702778D01*
X603643Y702735D01*
X603509Y702696D01*
X603492Y702686D01*
X603473Y702680D01*
X603355Y702606D01*
X603235Y702535D01*
X603214Y702516D01*
X603204Y702510D01*
X603190Y702495D01*
X603114Y702428D01*
X602903Y702216D01*
X599008Y700603D01*
X594792Y700603D01*
X590897Y702217D01*
X587917Y705197D01*
X586303Y709092D01*
X586303Y713308D01*
X587917Y717203D01*
X590897Y720183D01*
X594792Y721797D01*
X599008Y721797D01*
X602903Y720184D01*
X603114Y719972D01*
X603224Y719886D01*
X603331Y719798D01*
X603350Y719789D01*
X603366Y719777D01*
X603493Y719721D01*
X603619Y719662D01*
X603639Y719658D01*
X603658Y719650D01*
X603795Y719628D01*
X603932Y719602D01*
X603952Y719604D01*
X603972Y719600D01*
X604110Y719613D01*
X604249Y719622D01*
X604268Y719628D01*
X604288Y719630D01*
X604420Y719677D01*
X604551Y719720D01*
X604568Y719731D01*
X604588Y719738D01*
X604703Y719816D01*
X604820Y719890D01*
X604834Y719905D01*
X604851Y719916D01*
X604943Y720021D01*
X605038Y720122D01*
X605048Y720140D01*
X605061Y720155D01*
X605125Y720279D01*
X605192Y720400D01*
X605197Y720420D01*
X605206Y720438D01*
X605236Y720574D01*
X605271Y720708D01*
X605273Y720736D01*
X605276Y720748D01*
X605275Y720769D01*
X605281Y720869D01*
X605281Y726931D01*
X605264Y727069D01*
X605251Y727207D01*
X605244Y727226D01*
X605241Y727247D01*
X605190Y727376D01*
X605143Y727507D01*
X605132Y727523D01*
X605124Y727542D01*
X605043Y727655D01*
X604965Y727770D01*
X604949Y727783D01*
X604938Y727800D01*
X604830Y727888D01*
X604726Y727980D01*
X604708Y727989D01*
X604693Y728002D01*
X604567Y728061D01*
X604443Y728125D01*
X604423Y728129D01*
X604405Y728138D01*
X604269Y728164D01*
X604133Y728195D01*
X604112Y728194D01*
X604093Y728198D01*
X603954Y728189D01*
X603815Y728185D01*
X603795Y728179D01*
X603775Y728178D01*
X603643Y728135D01*
X603509Y728096D01*
X603492Y728086D01*
X603473Y728080D01*
X603355Y728006D01*
X603235Y727935D01*
X603214Y727916D01*
X603204Y727910D01*
X603190Y727895D01*
X603114Y727828D01*
X602903Y727616D01*
X599008Y726003D01*
X594792Y726003D01*
X590897Y727617D01*
X587917Y730597D01*
X586303Y734492D01*
X586303Y738708D01*
X587917Y742603D01*
X590897Y745583D01*
X594792Y747197D01*
X599008Y747197D01*
X602903Y745584D01*
X603114Y745372D01*
X603224Y745286D01*
X603331Y745198D01*
X603350Y745189D01*
X603366Y745177D01*
X603493Y745121D01*
X603619Y745062D01*
X603639Y745058D01*
X603658Y745050D01*
X603795Y745028D01*
X603932Y745002D01*
X603952Y745004D01*
X603972Y745000D01*
X604110Y745013D01*
X604249Y745022D01*
X604268Y745028D01*
X604288Y745030D01*
X604420Y745077D01*
X604551Y745120D01*
X604568Y745131D01*
X604588Y745138D01*
X604703Y745216D01*
X604820Y745290D01*
X604834Y745305D01*
X604851Y745316D01*
X604943Y745421D01*
X605038Y745522D01*
X605048Y745540D01*
X605061Y745555D01*
X605125Y745679D01*
X605192Y745800D01*
X605197Y745820D01*
X605206Y745838D01*
X605236Y745974D01*
X605271Y746108D01*
X605273Y746136D01*
X605276Y746148D01*
X605275Y746169D01*
X605281Y746269D01*
X605281Y753128D01*
X605276Y753167D01*
X605279Y753207D01*
X605256Y753325D01*
X605241Y753443D01*
X605227Y753480D01*
X605219Y753520D01*
X605168Y753628D01*
X605124Y753739D01*
X605101Y753771D01*
X605084Y753807D01*
X605008Y753900D01*
X604938Y753997D01*
X604907Y754022D01*
X604882Y754053D01*
X604785Y754123D01*
X604693Y754199D01*
X604657Y754216D01*
X604624Y754240D01*
X604513Y754284D01*
X604405Y754335D01*
X604366Y754342D01*
X604329Y754357D01*
X604210Y754372D01*
X604093Y754395D01*
X604053Y754392D01*
X604013Y754397D01*
X603894Y754382D01*
X603775Y754375D01*
X603737Y754363D01*
X603698Y754358D01*
X603586Y754314D01*
X603473Y754277D01*
X603439Y754256D01*
X603402Y754241D01*
X603266Y754155D01*
X602188Y753371D01*
X600773Y752650D01*
X599262Y752160D01*
X599149Y752142D01*
X599149Y761020D01*
X599134Y761138D01*
X599127Y761257D01*
X599114Y761295D01*
X599109Y761335D01*
X599066Y761446D01*
X599029Y761559D01*
X599007Y761593D01*
X598992Y761631D01*
X598923Y761727D01*
X598859Y761828D01*
X598829Y761856D01*
X598806Y761888D01*
X598714Y761964D01*
X598680Y761996D01*
X598688Y762001D01*
X598716Y762031D01*
X598749Y762055D01*
X598825Y762146D01*
X598906Y762233D01*
X598926Y762268D01*
X598951Y762300D01*
X599002Y762407D01*
X599060Y762512D01*
X599070Y762551D01*
X599087Y762587D01*
X599109Y762704D01*
X599139Y762820D01*
X599143Y762880D01*
X599147Y762900D01*
X599145Y762920D01*
X599149Y762980D01*
X599149Y771858D01*
X599262Y771840D01*
X600773Y771350D01*
X602188Y770629D01*
X603472Y769695D01*
X604595Y768572D01*
X605529Y767288D01*
X605833Y766690D01*
X605919Y766564D01*
X606011Y766428D01*
X606012Y766427D01*
X606133Y766320D01*
X606250Y766217D01*
X606410Y766135D01*
X606533Y766073D01*
X606534Y766072D01*
X606705Y766034D01*
X606843Y766003D01*
X606844Y766003D01*
X607010Y766008D01*
X607161Y766013D01*
X607162Y766013D01*
X607314Y766057D01*
X607467Y766101D01*
X607571Y766163D01*
X607741Y766263D01*
X607861Y766369D01*
X630310Y788817D01*
X633211Y791719D01*
X637171Y791719D01*
X637200Y791722D01*
X637230Y791720D01*
X637358Y791742D01*
X637487Y791759D01*
X637514Y791769D01*
X637543Y791774D01*
X637662Y791828D01*
X637782Y791876D01*
X637806Y791893D01*
X637833Y791905D01*
X637934Y791986D01*
X638040Y792062D01*
X638058Y792085D01*
X638081Y792104D01*
X638160Y792207D01*
X638242Y792307D01*
X638255Y792334D01*
X638273Y792358D01*
X638344Y792502D01*
X638717Y793403D01*
X641697Y796383D01*
X645592Y797997D01*
X649808Y797997D01*
X653703Y796383D01*
X656683Y793403D01*
X658297Y789508D01*
X658297Y785292D01*
X656683Y781397D01*
X653703Y778417D01*
X649808Y776803D01*
X645592Y776803D01*
X641697Y778417D01*
X638717Y781397D01*
X638386Y782196D01*
X638361Y782239D01*
X638344Y782286D01*
X638283Y782377D01*
X638228Y782472D01*
X638194Y782508D01*
X638166Y782549D01*
X638083Y782622D01*
X638007Y782701D01*
X637964Y782727D01*
X637927Y782760D01*
X637829Y782810D01*
X637736Y782867D01*
X637688Y782882D01*
X637644Y782904D01*
X637537Y782928D01*
X637432Y782961D01*
X637382Y782963D01*
X637334Y782974D01*
X637224Y782971D01*
X637114Y782976D01*
X637066Y782966D01*
X637016Y782964D01*
X636910Y782934D01*
X636803Y782912D01*
X636758Y782890D01*
X636710Y782876D01*
X636616Y782820D01*
X636517Y782772D01*
X636479Y782740D01*
X636436Y782714D01*
X636316Y782608D01*
X614290Y760583D01*
X614230Y760505D01*
X614162Y760432D01*
X614133Y760379D01*
X614096Y760332D01*
X614056Y760241D01*
X614008Y760154D01*
X613993Y760095D01*
X613969Y760040D01*
X613954Y759942D01*
X613929Y759846D01*
X613923Y759746D01*
X613919Y759726D01*
X613921Y759713D01*
X613919Y759685D01*
X613919Y610391D01*
X613936Y610253D01*
X613949Y610114D01*
X613956Y610095D01*
X613959Y610075D01*
X614010Y609946D01*
X614057Y609815D01*
X614068Y609798D01*
X614076Y609779D01*
X614157Y609667D01*
X614235Y609552D01*
X614251Y609538D01*
X614262Y609522D01*
X614370Y609433D01*
X614474Y609341D01*
X614492Y609332D01*
X614507Y609319D01*
X614633Y609260D01*
X614757Y609197D01*
X614777Y609192D01*
X614795Y609184D01*
X614931Y609158D01*
X615067Y609127D01*
X615088Y609128D01*
X615107Y609124D01*
X615246Y609133D01*
X615385Y609137D01*
X615405Y609142D01*
X615425Y609144D01*
X615557Y609186D01*
X615691Y609225D01*
X615708Y609235D01*
X615727Y609242D01*
X615845Y609316D01*
X615965Y609387D01*
X615986Y609405D01*
X615996Y609412D01*
X616010Y609427D01*
X616085Y609493D01*
X637201Y630609D01*
X637219Y630632D01*
X637242Y630651D01*
X637316Y630757D01*
X637396Y630860D01*
X637408Y630887D01*
X637425Y630911D01*
X637471Y631032D01*
X637522Y631152D01*
X637527Y631181D01*
X637537Y631209D01*
X637552Y631338D01*
X637572Y631466D01*
X637569Y631495D01*
X637573Y631525D01*
X637555Y631653D01*
X637542Y631783D01*
X637532Y631810D01*
X637528Y631840D01*
X637476Y631992D01*
X637103Y632892D01*
X637103Y637108D01*
X638717Y641003D01*
X641697Y643983D01*
X645592Y645597D01*
X649808Y645597D01*
X653703Y643983D01*
X656683Y641003D01*
X658297Y637108D01*
X658297Y632892D01*
X656683Y628997D01*
X653703Y626017D01*
X649808Y624403D01*
X645592Y624403D01*
X644692Y624776D01*
X644663Y624784D01*
X644637Y624797D01*
X644510Y624826D01*
X644385Y624860D01*
X644356Y624861D01*
X644327Y624867D01*
X644197Y624863D01*
X644067Y624865D01*
X644038Y624858D01*
X644009Y624857D01*
X643884Y624821D01*
X643758Y624791D01*
X643732Y624777D01*
X643703Y624769D01*
X643592Y624703D01*
X643477Y624642D01*
X643455Y624622D01*
X643430Y624607D01*
X643309Y624501D01*
X618862Y600055D01*
X618802Y599977D01*
X618734Y599904D01*
X618705Y599851D01*
X618668Y599804D01*
X618628Y599713D01*
X618580Y599626D01*
X618565Y599567D01*
X618541Y599512D01*
X618526Y599414D01*
X618501Y599318D01*
X618495Y599218D01*
X618491Y599198D01*
X618493Y599185D01*
X618491Y599157D01*
X618491Y589563D01*
X618508Y589425D01*
X618521Y589286D01*
X618528Y589267D01*
X618531Y589247D01*
X618582Y589118D01*
X618629Y588987D01*
X618640Y588970D01*
X618648Y588951D01*
X618729Y588839D01*
X618807Y588724D01*
X618823Y588710D01*
X618834Y588694D01*
X618942Y588605D01*
X619046Y588513D01*
X619064Y588504D01*
X619079Y588491D01*
X619205Y588432D01*
X619329Y588369D01*
X619349Y588364D01*
X619367Y588356D01*
X619503Y588330D01*
X619639Y588299D01*
X619660Y588300D01*
X619679Y588296D01*
X619818Y588305D01*
X619957Y588309D01*
X619977Y588314D01*
X619997Y588316D01*
X620129Y588358D01*
X620263Y588397D01*
X620280Y588407D01*
X620299Y588414D01*
X620417Y588488D01*
X620537Y588559D01*
X620558Y588577D01*
X620568Y588584D01*
X620582Y588599D01*
X620657Y588665D01*
X637201Y605209D01*
X637219Y605232D01*
X637242Y605251D01*
X637316Y605357D01*
X637396Y605460D01*
X637408Y605487D01*
X637425Y605511D01*
X637471Y605632D01*
X637522Y605752D01*
X637527Y605781D01*
X637537Y605809D01*
X637552Y605938D01*
X637572Y606066D01*
X637569Y606095D01*
X637573Y606125D01*
X637555Y606253D01*
X637542Y606383D01*
X637532Y606410D01*
X637528Y606440D01*
X637476Y606592D01*
X637103Y607492D01*
X637103Y611708D01*
X638717Y615603D01*
X641697Y618583D01*
X645592Y620197D01*
X649808Y620197D01*
X653703Y618583D01*
X656683Y615603D01*
X658297Y611708D01*
X658297Y607492D01*
X656683Y603597D01*
X653703Y600617D01*
X649808Y599003D01*
X645592Y599003D01*
X644692Y599376D01*
X644663Y599384D01*
X644637Y599397D01*
X644510Y599426D01*
X644385Y599460D01*
X644356Y599461D01*
X644327Y599467D01*
X644197Y599463D01*
X644067Y599465D01*
X644038Y599458D01*
X644009Y599457D01*
X643884Y599421D01*
X643758Y599391D01*
X643732Y599377D01*
X643703Y599369D01*
X643592Y599303D01*
X643477Y599242D01*
X643455Y599222D01*
X643430Y599207D01*
X643309Y599101D01*
X623434Y579227D01*
X623374Y579149D01*
X623306Y579076D01*
X623277Y579023D01*
X623240Y578976D01*
X623200Y578885D01*
X623152Y578798D01*
X623137Y578739D01*
X623113Y578684D01*
X623111Y578672D01*
X620393Y575953D01*
X620307Y575844D01*
X620219Y575737D01*
X620210Y575718D01*
X620198Y575702D01*
X620142Y575574D01*
X620083Y575449D01*
X620080Y575429D01*
X620071Y575410D01*
X620050Y575272D01*
X620024Y575136D01*
X620025Y575116D01*
X620022Y575096D01*
X620035Y574957D01*
X620043Y574819D01*
X620049Y574800D01*
X620051Y574780D01*
X620099Y574648D01*
X620141Y574517D01*
X620152Y574499D01*
X620159Y574480D01*
X620237Y574365D01*
X620311Y574248D01*
X620326Y574234D01*
X620338Y574217D01*
X620442Y574125D01*
X620543Y574030D01*
X620561Y574020D01*
X620576Y574007D01*
X620700Y573943D01*
X620822Y573876D01*
X620841Y573871D01*
X620859Y573862D01*
X620995Y573832D01*
X621130Y573797D01*
X621158Y573795D01*
X621170Y573792D01*
X621190Y573793D01*
X621290Y573787D01*
X770353Y573787D01*
X770452Y573799D01*
X770551Y573802D01*
X770609Y573819D01*
X770669Y573827D01*
X770761Y573863D01*
X770856Y573891D01*
X770908Y573921D01*
X770965Y573944D01*
X771045Y574002D01*
X771130Y574052D01*
X771205Y574118D01*
X771222Y574130D01*
X771230Y574140D01*
X771251Y574158D01*
X782710Y585617D01*
X782770Y585695D01*
X782838Y585768D01*
X782867Y585821D01*
X782904Y585868D01*
X782944Y585959D01*
X782992Y586046D01*
X783007Y586105D01*
X783031Y586160D01*
X783046Y586258D01*
X783071Y586354D01*
X783077Y586454D01*
X783081Y586474D01*
X783079Y586487D01*
X783081Y586515D01*
X783081Y600728D01*
X783076Y600767D01*
X783079Y600807D01*
X783056Y600925D01*
X783041Y601043D01*
X783027Y601080D01*
X783019Y601120D01*
X782968Y601228D01*
X782924Y601339D01*
X782901Y601371D01*
X782884Y601407D01*
X782808Y601500D01*
X782738Y601597D01*
X782707Y601622D01*
X782682Y601653D01*
X782585Y601723D01*
X782493Y601799D01*
X782457Y601816D01*
X782424Y601840D01*
X782313Y601884D01*
X782205Y601935D01*
X782166Y601942D01*
X782129Y601957D01*
X782010Y601972D01*
X781893Y601995D01*
X781853Y601992D01*
X781813Y601997D01*
X781694Y601982D01*
X781575Y601975D01*
X781537Y601963D01*
X781498Y601958D01*
X781386Y601914D01*
X781273Y601877D01*
X781239Y601856D01*
X781202Y601841D01*
X781066Y601755D01*
X779988Y600971D01*
X778573Y600250D01*
X777062Y599760D01*
X776949Y599742D01*
X776949Y608620D01*
X776934Y608738D01*
X776927Y608857D01*
X776914Y608895D01*
X776909Y608935D01*
X776866Y609046D01*
X776829Y609159D01*
X776807Y609193D01*
X776792Y609231D01*
X776723Y609327D01*
X776659Y609428D01*
X776629Y609456D01*
X776606Y609488D01*
X776514Y609564D01*
X776480Y609596D01*
X776488Y609601D01*
X776516Y609631D01*
X776549Y609655D01*
X776625Y609746D01*
X776706Y609833D01*
X776726Y609868D01*
X776751Y609900D01*
X776802Y610007D01*
X776860Y610112D01*
X776870Y610151D01*
X776887Y610187D01*
X776909Y610304D01*
X776939Y610420D01*
X776943Y610480D01*
X776947Y610500D01*
X776945Y610520D01*
X776949Y610580D01*
X776949Y619458D01*
X777062Y619440D01*
X778573Y618950D01*
X779988Y618229D01*
X781066Y617445D01*
X781101Y617426D01*
X781131Y617401D01*
X781240Y617350D01*
X781345Y617292D01*
X781383Y617282D01*
X781419Y617265D01*
X781536Y617243D01*
X781653Y617213D01*
X781693Y617213D01*
X781732Y617205D01*
X781851Y617213D01*
X781971Y617213D01*
X782009Y617223D01*
X782049Y617225D01*
X782163Y617262D01*
X782279Y617292D01*
X782314Y617311D01*
X782351Y617323D01*
X782453Y617387D01*
X782557Y617445D01*
X782586Y617472D01*
X782620Y617493D01*
X782702Y617581D01*
X782789Y617662D01*
X782811Y617696D01*
X782838Y617725D01*
X782896Y617830D01*
X782960Y617931D01*
X782972Y617969D01*
X782992Y618003D01*
X783021Y618119D01*
X783059Y618233D01*
X783061Y618273D01*
X783071Y618311D01*
X783081Y618472D01*
X783081Y625331D01*
X783064Y625469D01*
X783051Y625607D01*
X783044Y625626D01*
X783041Y625647D01*
X782990Y625776D01*
X782943Y625907D01*
X782932Y625923D01*
X782924Y625942D01*
X782843Y626055D01*
X782765Y626170D01*
X782749Y626183D01*
X782738Y626200D01*
X782630Y626288D01*
X782526Y626380D01*
X782508Y626389D01*
X782493Y626402D01*
X782367Y626461D01*
X782243Y626525D01*
X782223Y626529D01*
X782205Y626538D01*
X782069Y626564D01*
X781933Y626595D01*
X781912Y626594D01*
X781893Y626598D01*
X781754Y626589D01*
X781615Y626585D01*
X781595Y626579D01*
X781575Y626578D01*
X781443Y626535D01*
X781309Y626496D01*
X781292Y626486D01*
X781273Y626480D01*
X781155Y626406D01*
X781035Y626335D01*
X781014Y626316D01*
X781004Y626310D01*
X780990Y626295D01*
X780914Y626228D01*
X780703Y626016D01*
X776808Y624403D01*
X772592Y624403D01*
X768697Y626017D01*
X765717Y628997D01*
X764103Y632892D01*
X764103Y637108D01*
X765717Y641003D01*
X768697Y643983D01*
X772592Y645597D01*
X776808Y645597D01*
X780703Y643984D01*
X780914Y643772D01*
X781024Y643686D01*
X781131Y643598D01*
X781150Y643589D01*
X781166Y643577D01*
X781293Y643521D01*
X781419Y643462D01*
X781439Y643458D01*
X781458Y643450D01*
X781595Y643428D01*
X781732Y643402D01*
X781752Y643404D01*
X781772Y643400D01*
X781910Y643413D01*
X782049Y643422D01*
X782068Y643428D01*
X782088Y643430D01*
X782220Y643477D01*
X782351Y643520D01*
X782368Y643531D01*
X782388Y643538D01*
X782503Y643616D01*
X782620Y643690D01*
X782634Y643705D01*
X782651Y643716D01*
X782743Y643821D01*
X782838Y643922D01*
X782848Y643940D01*
X782861Y643955D01*
X782925Y644079D01*
X782992Y644200D01*
X782997Y644220D01*
X783006Y644238D01*
X783036Y644374D01*
X783071Y644508D01*
X783073Y644536D01*
X783076Y644548D01*
X783075Y644569D01*
X783081Y644669D01*
X783081Y650731D01*
X783064Y650869D01*
X783051Y651007D01*
X783044Y651026D01*
X783041Y651047D01*
X782990Y651176D01*
X782943Y651307D01*
X782932Y651323D01*
X782924Y651342D01*
X782843Y651455D01*
X782765Y651570D01*
X782749Y651583D01*
X782738Y651600D01*
X782630Y651688D01*
X782526Y651780D01*
X782508Y651789D01*
X782493Y651802D01*
X782367Y651861D01*
X782243Y651925D01*
X782223Y651929D01*
X782205Y651938D01*
X782069Y651964D01*
X781933Y651995D01*
X781912Y651994D01*
X781893Y651998D01*
X781754Y651989D01*
X781615Y651985D01*
X781595Y651979D01*
X781575Y651978D01*
X781443Y651935D01*
X781309Y651896D01*
X781292Y651886D01*
X781273Y651880D01*
X781155Y651806D01*
X781035Y651735D01*
X781014Y651716D01*
X781004Y651710D01*
X780990Y651695D01*
X780914Y651628D01*
X780703Y651416D01*
X776808Y649803D01*
X772592Y649803D01*
X768697Y651417D01*
X765717Y654397D01*
X764103Y658292D01*
X764103Y662508D01*
X765717Y666403D01*
X768697Y669383D01*
X772592Y670997D01*
X776808Y670997D01*
X780703Y669384D01*
X780914Y669172D01*
X781024Y669086D01*
X781131Y668998D01*
X781150Y668989D01*
X781166Y668977D01*
X781293Y668921D01*
X781419Y668862D01*
X781439Y668858D01*
X781458Y668850D01*
X781595Y668828D01*
X781732Y668802D01*
X781752Y668804D01*
X781772Y668800D01*
X781910Y668813D01*
X782049Y668822D01*
X782068Y668828D01*
X782088Y668830D01*
X782220Y668877D01*
X782351Y668920D01*
X782368Y668931D01*
X782388Y668938D01*
X782503Y669016D01*
X782620Y669090D01*
X782634Y669105D01*
X782651Y669116D01*
X782743Y669221D01*
X782838Y669322D01*
X782848Y669340D01*
X782861Y669355D01*
X782925Y669479D01*
X782992Y669600D01*
X782997Y669620D01*
X783006Y669638D01*
X783036Y669774D01*
X783071Y669908D01*
X783073Y669936D01*
X783076Y669948D01*
X783075Y669969D01*
X783081Y670069D01*
X783081Y676131D01*
X783064Y676269D01*
X783051Y676407D01*
X783044Y676426D01*
X783041Y676447D01*
X782990Y676576D01*
X782943Y676707D01*
X782932Y676723D01*
X782924Y676742D01*
X782843Y676855D01*
X782765Y676970D01*
X782749Y676983D01*
X782738Y677000D01*
X782630Y677088D01*
X782526Y677180D01*
X782508Y677189D01*
X782493Y677202D01*
X782367Y677261D01*
X782243Y677325D01*
X782223Y677329D01*
X782205Y677338D01*
X782069Y677364D01*
X781933Y677395D01*
X781912Y677394D01*
X781893Y677398D01*
X781754Y677389D01*
X781615Y677385D01*
X781595Y677379D01*
X781575Y677378D01*
X781443Y677335D01*
X781309Y677296D01*
X781292Y677286D01*
X781273Y677280D01*
X781155Y677206D01*
X781035Y677135D01*
X781014Y677116D01*
X781004Y677110D01*
X780990Y677095D01*
X780914Y677028D01*
X780703Y676816D01*
X776808Y675203D01*
X772592Y675203D01*
X768697Y676817D01*
X765717Y679797D01*
X764103Y683692D01*
X764103Y687908D01*
X765717Y691803D01*
X768697Y694783D01*
X772592Y696397D01*
X776808Y696397D01*
X780703Y694784D01*
X780914Y694572D01*
X781024Y694486D01*
X781131Y694398D01*
X781150Y694389D01*
X781166Y694377D01*
X781293Y694321D01*
X781419Y694262D01*
X781439Y694258D01*
X781458Y694250D01*
X781595Y694228D01*
X781732Y694202D01*
X781752Y694204D01*
X781772Y694200D01*
X781910Y694213D01*
X782049Y694222D01*
X782068Y694228D01*
X782088Y694230D01*
X782220Y694277D01*
X782351Y694320D01*
X782368Y694331D01*
X782388Y694338D01*
X782503Y694416D01*
X782620Y694490D01*
X782634Y694505D01*
X782651Y694516D01*
X782743Y694621D01*
X782838Y694722D01*
X782848Y694740D01*
X782861Y694755D01*
X782925Y694879D01*
X782992Y695000D01*
X782997Y695020D01*
X783006Y695038D01*
X783036Y695174D01*
X783071Y695308D01*
X783073Y695336D01*
X783076Y695348D01*
X783075Y695369D01*
X783081Y695469D01*
X783081Y701531D01*
X783064Y701669D01*
X783051Y701807D01*
X783044Y701826D01*
X783041Y701847D01*
X782990Y701976D01*
X782943Y702107D01*
X782932Y702123D01*
X782924Y702142D01*
X782843Y702255D01*
X782765Y702370D01*
X782749Y702383D01*
X782738Y702400D01*
X782630Y702488D01*
X782526Y702580D01*
X782508Y702589D01*
X782493Y702602D01*
X782367Y702661D01*
X782243Y702725D01*
X782223Y702729D01*
X782205Y702738D01*
X782069Y702764D01*
X781933Y702795D01*
X781912Y702794D01*
X781893Y702798D01*
X781754Y702789D01*
X781615Y702785D01*
X781595Y702779D01*
X781575Y702778D01*
X781443Y702735D01*
X781309Y702696D01*
X781292Y702686D01*
X781273Y702680D01*
X781155Y702606D01*
X781035Y702535D01*
X781014Y702516D01*
X781004Y702510D01*
X780990Y702495D01*
X780914Y702428D01*
X780703Y702216D01*
X776808Y700603D01*
X772592Y700603D01*
X768697Y702217D01*
X765717Y705197D01*
X764103Y709092D01*
X764103Y713308D01*
X765717Y717203D01*
X768697Y720183D01*
X772592Y721797D01*
X776808Y721797D01*
X780703Y720184D01*
X780914Y719972D01*
X781024Y719886D01*
X781131Y719798D01*
X781150Y719789D01*
X781166Y719777D01*
X781293Y719721D01*
X781419Y719662D01*
X781439Y719658D01*
X781458Y719650D01*
X781595Y719628D01*
X781732Y719602D01*
X781752Y719604D01*
X781772Y719600D01*
X781910Y719613D01*
X782049Y719622D01*
X782068Y719628D01*
X782088Y719630D01*
X782220Y719677D01*
X782351Y719720D01*
X782368Y719731D01*
X782388Y719738D01*
X782503Y719816D01*
X782620Y719890D01*
X782634Y719905D01*
X782651Y719916D01*
X782743Y720021D01*
X782838Y720122D01*
X782848Y720140D01*
X782861Y720155D01*
X782925Y720279D01*
X782992Y720400D01*
X782997Y720420D01*
X783006Y720438D01*
X783036Y720574D01*
X783071Y720708D01*
X783073Y720736D01*
X783076Y720748D01*
X783075Y720769D01*
X783081Y720869D01*
X783081Y726931D01*
X783064Y727069D01*
X783051Y727207D01*
X783044Y727226D01*
X783041Y727247D01*
X782990Y727376D01*
X782943Y727507D01*
X782932Y727523D01*
X782924Y727542D01*
X782843Y727655D01*
X782765Y727770D01*
X782749Y727783D01*
X782738Y727800D01*
X782630Y727888D01*
X782526Y727980D01*
X782508Y727989D01*
X782493Y728002D01*
X782367Y728061D01*
X782243Y728125D01*
X782223Y728129D01*
X782205Y728138D01*
X782069Y728164D01*
X781933Y728195D01*
X781912Y728194D01*
X781893Y728198D01*
X781754Y728189D01*
X781615Y728185D01*
X781595Y728179D01*
X781575Y728178D01*
X781443Y728135D01*
X781309Y728096D01*
X781292Y728086D01*
X781273Y728080D01*
X781155Y728006D01*
X781035Y727935D01*
X781014Y727916D01*
X781004Y727910D01*
X780990Y727895D01*
X780914Y727828D01*
X780703Y727616D01*
X776808Y726003D01*
X772592Y726003D01*
X768697Y727617D01*
X765717Y730597D01*
X764103Y734492D01*
X764103Y738708D01*
X765717Y742603D01*
X768697Y745583D01*
X772592Y747197D01*
X776808Y747197D01*
X780703Y745584D01*
X780914Y745372D01*
X781024Y745286D01*
X781131Y745198D01*
X781150Y745189D01*
X781166Y745177D01*
X781293Y745121D01*
X781419Y745062D01*
X781439Y745058D01*
X781458Y745050D01*
X781595Y745028D01*
X781732Y745002D01*
X781752Y745004D01*
X781772Y745000D01*
X781910Y745013D01*
X782049Y745022D01*
X782068Y745028D01*
X782088Y745030D01*
X782220Y745077D01*
X782351Y745120D01*
X782368Y745131D01*
X782388Y745138D01*
X782503Y745216D01*
X782620Y745290D01*
X782634Y745305D01*
X782651Y745316D01*
X782743Y745421D01*
X782838Y745522D01*
X782848Y745540D01*
X782861Y745555D01*
X782925Y745679D01*
X782992Y745800D01*
X782997Y745820D01*
X783006Y745838D01*
X783036Y745974D01*
X783071Y746108D01*
X783073Y746136D01*
X783076Y746148D01*
X783075Y746169D01*
X783081Y746269D01*
X783081Y753128D01*
X783076Y753167D01*
X783079Y753207D01*
X783056Y753325D01*
X783041Y753443D01*
X783027Y753480D01*
X783019Y753520D01*
X782968Y753628D01*
X782924Y753739D01*
X782901Y753771D01*
X782884Y753807D01*
X782808Y753900D01*
X782738Y753997D01*
X782707Y754022D01*
X782682Y754053D01*
X782585Y754123D01*
X782493Y754199D01*
X782457Y754216D01*
X782424Y754240D01*
X782313Y754284D01*
X782205Y754335D01*
X782166Y754342D01*
X782129Y754357D01*
X782010Y754372D01*
X781893Y754395D01*
X781853Y754392D01*
X781813Y754397D01*
X781694Y754382D01*
X781575Y754375D01*
X781537Y754363D01*
X781498Y754358D01*
X781386Y754314D01*
X781273Y754277D01*
X781239Y754256D01*
X781202Y754241D01*
X781066Y754155D01*
X779988Y753371D01*
X778573Y752650D01*
X777062Y752160D01*
X776949Y752142D01*
X776949Y761020D01*
X776934Y761138D01*
X776927Y761257D01*
X776914Y761295D01*
X776909Y761335D01*
X776866Y761446D01*
X776829Y761559D01*
X776807Y761593D01*
X776792Y761631D01*
X776723Y761727D01*
X776659Y761828D01*
X776629Y761856D01*
X776606Y761888D01*
X776514Y761964D01*
X776480Y761996D01*
X776488Y762001D01*
X776516Y762031D01*
X776549Y762055D01*
X776625Y762146D01*
X776706Y762233D01*
X776726Y762268D01*
X776751Y762300D01*
X776802Y762407D01*
X776860Y762512D01*
X776870Y762551D01*
X776887Y762587D01*
X776909Y762704D01*
X776939Y762820D01*
X776943Y762880D01*
X776947Y762900D01*
X776945Y762920D01*
X776949Y762980D01*
X776949Y771858D01*
X777062Y771840D01*
X778573Y771350D01*
X779988Y770629D01*
X781066Y769845D01*
X781101Y769826D01*
X781131Y769801D01*
X781240Y769750D01*
X781345Y769692D01*
X781383Y769682D01*
X781419Y769665D01*
X781536Y769643D01*
X781653Y769613D01*
X781693Y769613D01*
X781732Y769605D01*
X781851Y769613D01*
X781971Y769613D01*
X782009Y769623D01*
X782049Y769625D01*
X782163Y769662D01*
X782279Y769692D01*
X782314Y769711D01*
X782351Y769723D01*
X782453Y769787D01*
X782557Y769845D01*
X782586Y769872D01*
X782620Y769893D01*
X782702Y769981D01*
X782789Y770062D01*
X782811Y770096D01*
X782838Y770125D01*
X782896Y770230D01*
X782960Y770331D01*
X782972Y770369D01*
X782992Y770403D01*
X783021Y770519D01*
X783059Y770633D01*
X783061Y770673D01*
X783071Y770711D01*
X783081Y770872D01*
X783081Y776489D01*
X798311Y791719D01*
X814971Y791719D01*
X815000Y791722D01*
X815030Y791720D01*
X815158Y791742D01*
X815287Y791759D01*
X815314Y791769D01*
X815343Y791774D01*
X815462Y791828D01*
X815582Y791876D01*
X815606Y791893D01*
X815633Y791905D01*
X815734Y791986D01*
X815840Y792062D01*
X815858Y792085D01*
X815881Y792104D01*
X815960Y792207D01*
X816042Y792307D01*
X816055Y792334D01*
X816073Y792358D01*
X816144Y792502D01*
X816517Y793403D01*
X819497Y796383D01*
X823392Y797997D01*
X827608Y797997D01*
X831503Y796383D01*
X834483Y793403D01*
X836097Y789508D01*
X836097Y785292D01*
X834483Y781397D01*
X831503Y778417D01*
X827608Y776803D01*
X823392Y776803D01*
X819497Y778417D01*
X816517Y781397D01*
X816144Y782298D01*
X816129Y782323D01*
X816120Y782351D01*
X816050Y782461D01*
X815986Y782574D01*
X815966Y782595D01*
X815950Y782620D01*
X815855Y782709D01*
X815765Y782802D01*
X815740Y782818D01*
X815718Y782838D01*
X815604Y782901D01*
X815494Y782969D01*
X815465Y782977D01*
X815440Y782992D01*
X815314Y783024D01*
X815190Y783062D01*
X815160Y783064D01*
X815132Y783071D01*
X814971Y783081D01*
X802415Y783081D01*
X802316Y783069D01*
X802217Y783066D01*
X802159Y783049D01*
X802099Y783041D01*
X802007Y783005D01*
X801912Y782977D01*
X801860Y782947D01*
X801803Y782924D01*
X801723Y782866D01*
X801638Y782816D01*
X801563Y782750D01*
X801546Y782738D01*
X801538Y782728D01*
X801517Y782710D01*
X792090Y773283D01*
X792030Y773205D01*
X791962Y773132D01*
X791933Y773079D01*
X791896Y773032D01*
X791856Y772941D01*
X791808Y772854D01*
X791793Y772795D01*
X791769Y772740D01*
X791754Y772642D01*
X791729Y772546D01*
X791723Y772446D01*
X791719Y772426D01*
X791721Y772413D01*
X791719Y772385D01*
X791719Y618519D01*
X791736Y618381D01*
X791749Y618242D01*
X791756Y618223D01*
X791759Y618203D01*
X791810Y618074D01*
X791857Y617943D01*
X791868Y617926D01*
X791876Y617907D01*
X791957Y617795D01*
X792035Y617680D01*
X792051Y617666D01*
X792062Y617650D01*
X792170Y617561D01*
X792274Y617469D01*
X792292Y617460D01*
X792307Y617447D01*
X792433Y617388D01*
X792557Y617325D01*
X792577Y617320D01*
X792595Y617312D01*
X792731Y617286D01*
X792867Y617255D01*
X792888Y617256D01*
X792907Y617252D01*
X793046Y617261D01*
X793185Y617265D01*
X793205Y617270D01*
X793225Y617272D01*
X793357Y617314D01*
X793491Y617353D01*
X793508Y617363D01*
X793527Y617370D01*
X793645Y617444D01*
X793765Y617515D01*
X793786Y617533D01*
X793796Y617540D01*
X793810Y617555D01*
X793885Y617621D01*
X812682Y636417D01*
X815807Y639543D01*
X815813Y639550D01*
X815820Y639556D01*
X815910Y639676D01*
X816002Y639794D01*
X816006Y639803D01*
X816012Y639810D01*
X816083Y639955D01*
X816517Y641003D01*
X819497Y643983D01*
X823392Y645597D01*
X827608Y645597D01*
X831503Y643983D01*
X834483Y641003D01*
X836097Y637108D01*
X836097Y632892D01*
X834483Y628997D01*
X831503Y626017D01*
X827608Y624403D01*
X823392Y624403D01*
X819497Y626017D01*
X817894Y627620D01*
X817800Y627693D01*
X817711Y627771D01*
X817675Y627790D01*
X817643Y627815D01*
X817534Y627862D01*
X817428Y627916D01*
X817388Y627925D01*
X817351Y627941D01*
X817233Y627960D01*
X817117Y627986D01*
X817077Y627984D01*
X817037Y627991D01*
X816918Y627980D01*
X816800Y627976D01*
X816761Y627965D01*
X816720Y627961D01*
X816608Y627921D01*
X816494Y627888D01*
X816459Y627867D01*
X816421Y627853D01*
X816323Y627787D01*
X816220Y627726D01*
X816175Y627686D01*
X816158Y627675D01*
X816145Y627660D01*
X816099Y627620D01*
X796662Y608183D01*
X796602Y608105D01*
X796534Y608032D01*
X796505Y607979D01*
X796468Y607932D01*
X796428Y607841D01*
X796380Y607754D01*
X796365Y607695D01*
X796341Y607640D01*
X796326Y607542D01*
X796301Y607446D01*
X796295Y607346D01*
X796291Y607326D01*
X796293Y607313D01*
X796291Y607285D01*
X796291Y589563D01*
X796308Y589425D01*
X796321Y589286D01*
X796328Y589267D01*
X796331Y589247D01*
X796382Y589118D01*
X796429Y588987D01*
X796440Y588970D01*
X796448Y588951D01*
X796529Y588839D01*
X796607Y588724D01*
X796623Y588710D01*
X796634Y588694D01*
X796742Y588605D01*
X796846Y588513D01*
X796864Y588504D01*
X796879Y588491D01*
X797005Y588432D01*
X797129Y588369D01*
X797149Y588364D01*
X797167Y588356D01*
X797303Y588330D01*
X797439Y588299D01*
X797460Y588300D01*
X797479Y588296D01*
X797618Y588305D01*
X797757Y588309D01*
X797777Y588314D01*
X797797Y588316D01*
X797929Y588358D01*
X798063Y588397D01*
X798080Y588407D01*
X798099Y588414D01*
X798217Y588488D01*
X798337Y588559D01*
X798358Y588577D01*
X798368Y588584D01*
X798382Y588599D01*
X798457Y588665D01*
X815001Y605209D01*
X815019Y605232D01*
X815042Y605251D01*
X815116Y605357D01*
X815196Y605460D01*
X815208Y605487D01*
X815225Y605511D01*
X815271Y605632D01*
X815322Y605752D01*
X815327Y605781D01*
X815337Y605809D01*
X815352Y605938D01*
X815372Y606066D01*
X815369Y606095D01*
X815373Y606125D01*
X815355Y606253D01*
X815342Y606383D01*
X815332Y606410D01*
X815328Y606440D01*
X815276Y606592D01*
X814903Y607492D01*
X814903Y611708D01*
X816517Y615603D01*
X819497Y618583D01*
X823392Y620197D01*
X827608Y620197D01*
X831503Y618583D01*
X834483Y615603D01*
X836097Y611708D01*
X836097Y607492D01*
X834483Y603597D01*
X831503Y600617D01*
X827608Y599003D01*
X823392Y599003D01*
X822492Y599376D01*
X822463Y599384D01*
X822437Y599397D01*
X822310Y599426D01*
X822185Y599460D01*
X822156Y599461D01*
X822127Y599467D01*
X821997Y599463D01*
X821867Y599465D01*
X821838Y599458D01*
X821809Y599457D01*
X821684Y599421D01*
X821558Y599391D01*
X821532Y599377D01*
X821503Y599369D01*
X821392Y599303D01*
X821277Y599242D01*
X821255Y599222D01*
X821230Y599207D01*
X821109Y599101D01*
X801234Y579227D01*
X801174Y579149D01*
X801106Y579076D01*
X801077Y579023D01*
X801040Y578976D01*
X801000Y578885D01*
X800952Y578798D01*
X800937Y578739D01*
X800913Y578684D01*
X800911Y578672D01*
X778245Y556005D01*
X461965Y556005D01*
X461867Y555993D01*
X461768Y555990D01*
X461710Y555973D01*
X461650Y555965D01*
X461558Y555929D01*
X461462Y555901D01*
X461410Y555871D01*
X461354Y555848D01*
X461274Y555790D01*
X461188Y555740D01*
X461113Y555674D01*
X461097Y555662D01*
X461089Y555652D01*
X461068Y555634D01*
X448739Y543305D01*
X414245Y543305D01*
X414107Y543288D01*
X413969Y543275D01*
X413950Y543268D01*
X413930Y543265D01*
X413800Y543214D01*
X413670Y543167D01*
X413653Y543156D01*
X413634Y543148D01*
X413521Y543067D01*
X413406Y542989D01*
X413393Y542973D01*
X413377Y542962D01*
X413288Y542854D01*
X413196Y542750D01*
X413187Y542732D01*
X413174Y542717D01*
X413115Y542591D01*
X413051Y542467D01*
X413047Y542447D01*
X413038Y542429D01*
X413012Y542293D01*
X412982Y542157D01*
X412982Y542136D01*
X412979Y542117D01*
X412987Y541978D01*
X412991Y541839D01*
X412997Y541819D01*
X412998Y541799D01*
X413041Y541667D01*
X413080Y541533D01*
X413090Y541516D01*
X413096Y541497D01*
X413171Y541379D01*
X413241Y541259D01*
X413260Y541238D01*
X413267Y541228D01*
X413281Y541214D01*
X413348Y541138D01*
X413856Y540630D01*
X413934Y540570D01*
X414006Y540502D01*
X414059Y540473D01*
X414107Y540436D01*
X414198Y540396D01*
X414285Y540348D01*
X414343Y540333D01*
X414399Y540309D01*
X414497Y540294D01*
X414593Y540269D01*
X414693Y540263D01*
X414713Y540259D01*
X414725Y540261D01*
X414753Y540259D01*
X431049Y540259D01*
X454347Y516960D01*
X454425Y516900D01*
X454498Y516832D01*
X454551Y516803D01*
X454598Y516766D01*
X454689Y516726D01*
X454776Y516678D01*
X454835Y516663D01*
X454890Y516639D01*
X454988Y516624D01*
X455084Y516599D01*
X455184Y516593D01*
X455204Y516589D01*
X455217Y516591D01*
X455245Y516589D01*
X458908Y516589D01*
X462065Y515281D01*
X464656Y512690D01*
X464734Y512630D01*
X464806Y512562D01*
X464859Y512533D01*
X464907Y512496D01*
X464998Y512456D01*
X465085Y512408D01*
X465143Y512393D01*
X465199Y512369D01*
X465297Y512354D01*
X465393Y512329D01*
X465493Y512323D01*
X465513Y512319D01*
X465525Y512321D01*
X465553Y512319D01*
X563147Y512319D01*
X563245Y512331D01*
X563344Y512334D01*
X563402Y512351D01*
X563462Y512359D01*
X563554Y512395D01*
X563649Y512423D01*
X563702Y512453D01*
X563758Y512476D01*
X563838Y512534D01*
X563923Y512584D01*
X563999Y512650D01*
X564015Y512662D01*
X564023Y512672D01*
X564044Y512690D01*
X566635Y515281D01*
X569792Y516589D01*
X573208Y516589D01*
X576365Y515281D01*
X578956Y512690D01*
X579034Y512630D01*
X579106Y512562D01*
X579159Y512533D01*
X579207Y512496D01*
X579298Y512456D01*
X579385Y512408D01*
X579443Y512393D01*
X579499Y512369D01*
X579597Y512354D01*
X579693Y512329D01*
X579793Y512323D01*
X579813Y512319D01*
X579825Y512321D01*
X579853Y512319D01*
X677447Y512319D01*
X677545Y512331D01*
X677644Y512334D01*
X677702Y512351D01*
X677762Y512359D01*
X677854Y512395D01*
X677949Y512423D01*
X678002Y512453D01*
X678058Y512476D01*
X678138Y512534D01*
X678223Y512584D01*
X678299Y512650D01*
X678315Y512662D01*
X678323Y512672D01*
X678344Y512690D01*
X680935Y515281D01*
X684092Y516589D01*
X687508Y516589D01*
X690665Y515281D01*
X693256Y512690D01*
X693334Y512630D01*
X693406Y512562D01*
X693459Y512533D01*
X693507Y512496D01*
X693598Y512456D01*
X693685Y512408D01*
X693743Y512393D01*
X693799Y512369D01*
X693897Y512354D01*
X693993Y512329D01*
X694093Y512323D01*
X694113Y512319D01*
X694125Y512321D01*
X694153Y512319D01*
X791747Y512319D01*
X791845Y512331D01*
X791944Y512334D01*
X792002Y512351D01*
X792062Y512359D01*
X792154Y512395D01*
X792249Y512423D01*
X792302Y512453D01*
X792358Y512476D01*
X792438Y512534D01*
X792523Y512584D01*
X792599Y512650D01*
X792615Y512662D01*
X792623Y512672D01*
X792644Y512690D01*
X795235Y515281D01*
X798392Y516589D01*
X801808Y516589D01*
X804965Y515281D01*
X807381Y512865D01*
X808689Y509708D01*
X808689Y506292D01*
X807599Y503660D01*
X807585Y503612D01*
X807564Y503567D01*
X807544Y503459D01*
X807515Y503353D01*
X807514Y503303D01*
X807505Y503254D01*
X807511Y503145D01*
X807510Y503035D01*
X807521Y502987D01*
X807524Y502937D01*
X807558Y502833D01*
X807584Y502726D01*
X807607Y502682D01*
X807622Y502635D01*
X807681Y502542D01*
X807732Y502445D01*
X807766Y502408D01*
X807792Y502366D01*
X807873Y502291D01*
X807946Y502209D01*
X807988Y502182D01*
X808024Y502148D01*
X808120Y502095D01*
X808212Y502035D01*
X808259Y502018D01*
X808303Y501994D01*
X808409Y501967D01*
X808513Y501931D01*
X808562Y501927D01*
X808611Y501915D01*
X808771Y501905D01*
X837703Y501905D01*
X840604Y499003D01*
X858765Y480843D01*
X858788Y480825D01*
X858807Y480802D01*
X858913Y480728D01*
X859016Y480648D01*
X859043Y480636D01*
X859067Y480619D01*
X859189Y480573D01*
X859308Y480522D01*
X859337Y480517D01*
X859365Y480506D01*
X859494Y480492D01*
X859622Y480472D01*
X859651Y480475D01*
X859681Y480471D01*
X859809Y480489D01*
X859939Y480502D01*
X859966Y480512D01*
X859996Y480516D01*
X860148Y480568D01*
X861377Y481077D01*
X865823Y481077D01*
X869931Y479375D01*
X873075Y476231D01*
X874777Y472123D01*
X874777Y467677D01*
X873075Y463569D01*
X869931Y460425D01*
X865823Y458723D01*
X861377Y458723D01*
X857269Y460425D01*
X854125Y463569D01*
X852423Y467677D01*
X852423Y472123D01*
X852932Y473352D01*
X852940Y473380D01*
X852953Y473407D01*
X852982Y473534D01*
X853016Y473659D01*
X853017Y473688D01*
X853023Y473717D01*
X853019Y473847D01*
X853021Y473977D01*
X853014Y474005D01*
X853013Y474035D01*
X852977Y474160D01*
X852947Y474286D01*
X852933Y474312D01*
X852925Y474340D01*
X852859Y474452D01*
X852798Y474567D01*
X852779Y474589D01*
X852764Y474614D01*
X852657Y474735D01*
X849722Y477670D01*
X849667Y477713D01*
X849618Y477763D01*
X849542Y477810D01*
X849471Y477865D01*
X849407Y477893D01*
X849347Y477929D01*
X849262Y477956D01*
X849179Y477992D01*
X849110Y478003D01*
X849043Y478023D01*
X848954Y478027D01*
X848865Y478041D01*
X848795Y478035D01*
X848726Y478038D01*
X848638Y478020D01*
X848548Y478012D01*
X848483Y477988D01*
X848414Y477974D01*
X848333Y477934D01*
X848249Y477904D01*
X848191Y477865D01*
X848129Y477834D01*
X848060Y477776D01*
X847986Y477725D01*
X847940Y477673D01*
X847887Y477628D01*
X847835Y477554D01*
X847775Y477487D01*
X847744Y477425D01*
X847703Y477368D01*
X847672Y477284D01*
X847631Y477204D01*
X847616Y477136D01*
X847591Y477070D01*
X847581Y476981D01*
X847561Y476893D01*
X847563Y476824D01*
X847556Y476754D01*
X847568Y476665D01*
X847571Y476576D01*
X847590Y476508D01*
X847600Y476439D01*
X847652Y476287D01*
X849377Y472123D01*
X849377Y467677D01*
X847675Y463569D01*
X844531Y460425D01*
X840423Y458723D01*
X835977Y458723D01*
X831869Y460425D01*
X828725Y463569D01*
X827023Y467677D01*
X827023Y472123D01*
X828725Y476231D01*
X831869Y479375D01*
X835977Y481077D01*
X840423Y481077D01*
X844587Y479352D01*
X844654Y479334D01*
X844718Y479306D01*
X844807Y479292D01*
X844894Y479268D01*
X844963Y479267D01*
X845032Y479256D01*
X845122Y479264D01*
X845212Y479263D01*
X845280Y479279D01*
X845349Y479286D01*
X845434Y479316D01*
X845521Y479337D01*
X845583Y479370D01*
X845648Y479393D01*
X845723Y479444D01*
X845802Y479486D01*
X845854Y479533D01*
X845912Y479572D01*
X845971Y479639D01*
X846037Y479700D01*
X846076Y479758D01*
X846122Y479810D01*
X846163Y479890D01*
X846212Y479966D01*
X846235Y480032D01*
X846267Y480094D01*
X846286Y480181D01*
X846315Y480266D01*
X846321Y480336D01*
X846336Y480404D01*
X846334Y480494D01*
X846341Y480583D01*
X846329Y480652D01*
X846327Y480722D01*
X846302Y480808D01*
X846286Y480897D01*
X846258Y480960D01*
X846238Y481027D01*
X846193Y481105D01*
X846156Y481187D01*
X846112Y481241D01*
X846077Y481301D01*
X845970Y481422D01*
X834497Y492896D01*
X834419Y492956D01*
X834346Y493024D01*
X834293Y493053D01*
X834246Y493090D01*
X834155Y493130D01*
X834068Y493178D01*
X834009Y493193D01*
X833954Y493217D01*
X833856Y493232D01*
X833760Y493257D01*
X833660Y493263D01*
X833640Y493267D01*
X833627Y493265D01*
X833599Y493267D01*
X735105Y493267D01*
X734967Y493250D01*
X734828Y493237D01*
X734809Y493230D01*
X734789Y493227D01*
X734660Y493176D01*
X734529Y493129D01*
X734512Y493118D01*
X734493Y493110D01*
X734381Y493029D01*
X734266Y492951D01*
X734252Y492935D01*
X734236Y492924D01*
X734147Y492816D01*
X734055Y492712D01*
X734046Y492694D01*
X734033Y492679D01*
X733974Y492553D01*
X733911Y492429D01*
X733906Y492409D01*
X733898Y492391D01*
X733872Y492255D01*
X733841Y492119D01*
X733842Y492098D01*
X733838Y492079D01*
X733847Y491940D01*
X733851Y491801D01*
X733856Y491781D01*
X733858Y491761D01*
X733900Y491629D01*
X733939Y491495D01*
X733949Y491478D01*
X733956Y491459D01*
X734030Y491341D01*
X734101Y491221D01*
X734119Y491200D01*
X734126Y491190D01*
X734141Y491176D01*
X734207Y491101D01*
X744465Y480843D01*
X744488Y480825D01*
X744507Y480802D01*
X744613Y480728D01*
X744716Y480648D01*
X744743Y480636D01*
X744767Y480619D01*
X744889Y480573D01*
X745008Y480522D01*
X745037Y480517D01*
X745065Y480506D01*
X745194Y480492D01*
X745322Y480472D01*
X745351Y480475D01*
X745381Y480471D01*
X745509Y480489D01*
X745639Y480502D01*
X745666Y480512D01*
X745696Y480516D01*
X745848Y480568D01*
X747077Y481077D01*
X751523Y481077D01*
X755631Y479375D01*
X758775Y476231D01*
X760477Y472123D01*
X760477Y467677D01*
X758775Y463569D01*
X755631Y460425D01*
X751523Y458723D01*
X747077Y458723D01*
X742969Y460425D01*
X739825Y463569D01*
X738123Y467677D01*
X738123Y472123D01*
X738632Y473352D01*
X738640Y473380D01*
X738653Y473407D01*
X738682Y473534D01*
X738716Y473659D01*
X738717Y473688D01*
X738723Y473717D01*
X738719Y473847D01*
X738721Y473977D01*
X738714Y474005D01*
X738713Y474035D01*
X738677Y474160D01*
X738647Y474286D01*
X738633Y474312D01*
X738625Y474340D01*
X738559Y474452D01*
X738498Y474567D01*
X738479Y474589D01*
X738464Y474614D01*
X738357Y474735D01*
X735422Y477670D01*
X735367Y477713D01*
X735318Y477763D01*
X735242Y477810D01*
X735171Y477865D01*
X735107Y477893D01*
X735047Y477929D01*
X734962Y477956D01*
X734879Y477992D01*
X734810Y478003D01*
X734743Y478023D01*
X734654Y478027D01*
X734565Y478041D01*
X734495Y478035D01*
X734426Y478038D01*
X734338Y478020D01*
X734248Y478012D01*
X734183Y477988D01*
X734114Y477974D01*
X734033Y477934D01*
X733949Y477904D01*
X733891Y477865D01*
X733829Y477834D01*
X733760Y477776D01*
X733686Y477725D01*
X733640Y477673D01*
X733587Y477628D01*
X733535Y477554D01*
X733475Y477487D01*
X733444Y477425D01*
X733403Y477368D01*
X733372Y477284D01*
X733331Y477204D01*
X733316Y477136D01*
X733291Y477070D01*
X733281Y476981D01*
X733261Y476893D01*
X733263Y476824D01*
X733256Y476754D01*
X733268Y476665D01*
X733271Y476576D01*
X733290Y476508D01*
X733300Y476439D01*
X733352Y476287D01*
X735077Y472123D01*
X735077Y467677D01*
X733375Y463569D01*
X730231Y460425D01*
X726123Y458723D01*
X721677Y458723D01*
X717569Y460425D01*
X714425Y463569D01*
X712723Y467677D01*
X712723Y472123D01*
X714425Y476231D01*
X717569Y479375D01*
X721677Y481077D01*
X726123Y481077D01*
X730287Y479352D01*
X730354Y479334D01*
X730418Y479306D01*
X730507Y479292D01*
X730594Y479268D01*
X730663Y479267D01*
X730732Y479256D01*
X730822Y479264D01*
X730912Y479263D01*
X730980Y479279D01*
X731049Y479286D01*
X731134Y479316D01*
X731221Y479337D01*
X731283Y479370D01*
X731348Y479393D01*
X731423Y479444D01*
X731502Y479486D01*
X731554Y479533D01*
X731612Y479572D01*
X731671Y479639D01*
X731737Y479700D01*
X731776Y479758D01*
X731822Y479810D01*
X731863Y479890D01*
X731912Y479966D01*
X731935Y480032D01*
X731967Y480094D01*
X731986Y480181D01*
X732015Y480266D01*
X732021Y480336D01*
X732036Y480404D01*
X732034Y480494D01*
X732041Y480583D01*
X732029Y480652D01*
X732027Y480722D01*
X732002Y480808D01*
X731986Y480897D01*
X731958Y480960D01*
X731938Y481027D01*
X731893Y481105D01*
X731856Y481187D01*
X731812Y481241D01*
X731777Y481301D01*
X731670Y481422D01*
X724769Y488324D01*
X724691Y488384D01*
X724618Y488452D01*
X724565Y488481D01*
X724518Y488518D01*
X724427Y488558D01*
X724340Y488606D01*
X724281Y488621D01*
X724226Y488645D01*
X724128Y488660D01*
X724032Y488685D01*
X723932Y488691D01*
X723912Y488695D01*
X723899Y488693D01*
X723871Y488695D01*
X625377Y488695D01*
X625239Y488678D01*
X625100Y488665D01*
X625081Y488658D01*
X625061Y488655D01*
X624932Y488604D01*
X624801Y488557D01*
X624784Y488546D01*
X624765Y488538D01*
X624653Y488457D01*
X624538Y488379D01*
X624524Y488363D01*
X624508Y488352D01*
X624419Y488244D01*
X624327Y488140D01*
X624318Y488122D01*
X624305Y488107D01*
X624246Y487981D01*
X624183Y487857D01*
X624178Y487837D01*
X624170Y487819D01*
X624144Y487683D01*
X624113Y487547D01*
X624114Y487526D01*
X624110Y487507D01*
X624119Y487368D01*
X624123Y487229D01*
X624128Y487209D01*
X624130Y487189D01*
X624172Y487057D01*
X624211Y486923D01*
X624221Y486906D01*
X624228Y486887D01*
X624302Y486769D01*
X624373Y486649D01*
X624391Y486628D01*
X624398Y486618D01*
X624413Y486604D01*
X624479Y486529D01*
X630165Y480843D01*
X630188Y480825D01*
X630207Y480802D01*
X630313Y480728D01*
X630416Y480648D01*
X630443Y480636D01*
X630467Y480619D01*
X630589Y480573D01*
X630708Y480522D01*
X630737Y480517D01*
X630765Y480506D01*
X630894Y480492D01*
X631022Y480472D01*
X631051Y480475D01*
X631081Y480471D01*
X631209Y480489D01*
X631339Y480502D01*
X631366Y480512D01*
X631396Y480516D01*
X631548Y480568D01*
X632777Y481077D01*
X637223Y481077D01*
X641331Y479375D01*
X644475Y476231D01*
X646177Y472123D01*
X646177Y467677D01*
X644475Y463569D01*
X641331Y460425D01*
X637223Y458723D01*
X632777Y458723D01*
X628669Y460425D01*
X625525Y463569D01*
X623823Y467677D01*
X623823Y472123D01*
X624332Y473352D01*
X624340Y473380D01*
X624353Y473407D01*
X624382Y473534D01*
X624416Y473659D01*
X624417Y473688D01*
X624423Y473717D01*
X624419Y473847D01*
X624421Y473977D01*
X624414Y474005D01*
X624413Y474035D01*
X624377Y474160D01*
X624347Y474286D01*
X624333Y474312D01*
X624325Y474340D01*
X624259Y474452D01*
X624198Y474567D01*
X624179Y474589D01*
X624164Y474614D01*
X624057Y474735D01*
X621122Y477670D01*
X621067Y477713D01*
X621018Y477763D01*
X620942Y477810D01*
X620871Y477865D01*
X620807Y477893D01*
X620747Y477929D01*
X620662Y477956D01*
X620579Y477992D01*
X620510Y478003D01*
X620443Y478023D01*
X620354Y478027D01*
X620265Y478041D01*
X620195Y478035D01*
X620126Y478038D01*
X620038Y478020D01*
X619948Y478012D01*
X619883Y477988D01*
X619814Y477974D01*
X619733Y477934D01*
X619649Y477904D01*
X619591Y477865D01*
X619529Y477834D01*
X619460Y477776D01*
X619386Y477725D01*
X619340Y477673D01*
X619287Y477628D01*
X619235Y477554D01*
X619175Y477487D01*
X619144Y477425D01*
X619103Y477368D01*
X619072Y477284D01*
X619031Y477204D01*
X619016Y477136D01*
X618991Y477070D01*
X618981Y476981D01*
X618961Y476893D01*
X618963Y476824D01*
X618956Y476754D01*
X618968Y476665D01*
X618971Y476576D01*
X618990Y476508D01*
X619000Y476439D01*
X619052Y476287D01*
X620777Y472123D01*
X620777Y467677D01*
X619075Y463569D01*
X615931Y460425D01*
X611823Y458723D01*
X607377Y458723D01*
X603269Y460425D01*
X600125Y463569D01*
X598423Y467677D01*
X598423Y472123D01*
X600125Y476231D01*
X603269Y479375D01*
X607377Y481077D01*
X611823Y481077D01*
X615987Y479352D01*
X616054Y479334D01*
X616118Y479306D01*
X616207Y479292D01*
X616294Y479268D01*
X616363Y479267D01*
X616433Y479256D01*
X616522Y479264D01*
X616612Y479263D01*
X616680Y479279D01*
X616749Y479286D01*
X616834Y479316D01*
X616921Y479337D01*
X616983Y479370D01*
X617048Y479393D01*
X617123Y479444D01*
X617202Y479486D01*
X617254Y479533D01*
X617312Y479572D01*
X617371Y479639D01*
X617437Y479700D01*
X617476Y479758D01*
X617522Y479810D01*
X617563Y479890D01*
X617612Y479966D01*
X617635Y480032D01*
X617667Y480094D01*
X617686Y480181D01*
X617715Y480266D01*
X617721Y480336D01*
X617736Y480404D01*
X617734Y480494D01*
X617741Y480583D01*
X617729Y480652D01*
X617727Y480722D01*
X617702Y480808D01*
X617686Y480897D01*
X617658Y480960D01*
X617638Y481027D01*
X617593Y481105D01*
X617556Y481187D01*
X617512Y481241D01*
X617477Y481301D01*
X617370Y481422D01*
X615041Y483752D01*
X614963Y483812D01*
X614890Y483880D01*
X614837Y483909D01*
X614790Y483946D01*
X614699Y483986D01*
X614612Y484034D01*
X614553Y484049D01*
X614498Y484073D01*
X614400Y484088D01*
X614304Y484113D01*
X614204Y484119D01*
X614184Y484123D01*
X614171Y484121D01*
X614143Y484123D01*
X515649Y484123D01*
X515511Y484106D01*
X515372Y484093D01*
X515353Y484086D01*
X515333Y484083D01*
X515204Y484032D01*
X515073Y483985D01*
X515056Y483974D01*
X515037Y483966D01*
X514925Y483885D01*
X514810Y483807D01*
X514796Y483791D01*
X514780Y483780D01*
X514691Y483672D01*
X514599Y483568D01*
X514590Y483550D01*
X514577Y483535D01*
X514518Y483409D01*
X514455Y483285D01*
X514450Y483265D01*
X514442Y483247D01*
X514416Y483110D01*
X514385Y482975D01*
X514386Y482954D01*
X514382Y482935D01*
X514391Y482796D01*
X514395Y482657D01*
X514400Y482637D01*
X514402Y482617D01*
X514444Y482485D01*
X514483Y482351D01*
X514493Y482334D01*
X514500Y482315D01*
X514574Y482197D01*
X514645Y482077D01*
X514663Y482056D01*
X514670Y482046D01*
X514685Y482032D01*
X514751Y481957D01*
X515865Y480843D01*
X515888Y480825D01*
X515907Y480802D01*
X516014Y480727D01*
X516116Y480648D01*
X516143Y480636D01*
X516167Y480619D01*
X516289Y480573D01*
X516408Y480522D01*
X516437Y480517D01*
X516465Y480506D01*
X516594Y480492D01*
X516722Y480472D01*
X516751Y480475D01*
X516781Y480471D01*
X516910Y480489D01*
X517039Y480502D01*
X517066Y480512D01*
X517096Y480516D01*
X517248Y480568D01*
X518477Y481077D01*
X522923Y481077D01*
X527031Y479375D01*
X530175Y476231D01*
X531877Y472123D01*
X531877Y467677D01*
X530175Y463569D01*
X527031Y460425D01*
X522923Y458723D01*
X518477Y458723D01*
X514369Y460425D01*
X511225Y463569D01*
X509523Y467677D01*
X509523Y472123D01*
X510032Y473352D01*
X510040Y473380D01*
X510053Y473407D01*
X510082Y473534D01*
X510116Y473659D01*
X510117Y473688D01*
X510123Y473717D01*
X510119Y473847D01*
X510121Y473977D01*
X510114Y474005D01*
X510113Y474035D01*
X510077Y474160D01*
X510047Y474286D01*
X510033Y474312D01*
X510025Y474340D01*
X509959Y474452D01*
X509898Y474567D01*
X509879Y474589D01*
X509864Y474614D01*
X509757Y474735D01*
X506822Y477670D01*
X506767Y477713D01*
X506718Y477763D01*
X506642Y477810D01*
X506571Y477865D01*
X506507Y477893D01*
X506447Y477929D01*
X506362Y477956D01*
X506279Y477992D01*
X506210Y478003D01*
X506143Y478023D01*
X506054Y478027D01*
X505965Y478041D01*
X505895Y478035D01*
X505826Y478038D01*
X505738Y478020D01*
X505648Y478012D01*
X505583Y477988D01*
X505514Y477974D01*
X505433Y477934D01*
X505349Y477904D01*
X505291Y477865D01*
X505229Y477834D01*
X505160Y477776D01*
X505086Y477725D01*
X505040Y477673D01*
X504987Y477628D01*
X504935Y477554D01*
X504875Y477487D01*
X504844Y477425D01*
X504803Y477368D01*
X504772Y477284D01*
X504731Y477204D01*
X504716Y477136D01*
X504691Y477070D01*
X504681Y476981D01*
X504661Y476893D01*
X504663Y476824D01*
X504656Y476754D01*
X504668Y476665D01*
X504671Y476576D01*
X504690Y476508D01*
X504700Y476439D01*
X504752Y476287D01*
X506477Y472123D01*
X506477Y467677D01*
X504775Y463569D01*
X501631Y460425D01*
X497523Y458723D01*
X493077Y458723D01*
X488969Y460425D01*
X485825Y463569D01*
X484123Y467677D01*
X484123Y472123D01*
X485825Y476231D01*
X486978Y477385D01*
X487063Y477494D01*
X487152Y477601D01*
X487161Y477620D01*
X487173Y477636D01*
X487228Y477763D01*
X487288Y477889D01*
X487291Y477909D01*
X487300Y477928D01*
X487321Y478066D01*
X487347Y478202D01*
X487346Y478222D01*
X487349Y478242D01*
X487336Y478381D01*
X487328Y478519D01*
X487321Y478538D01*
X487320Y478558D01*
X487272Y478690D01*
X487230Y478821D01*
X487219Y478839D01*
X487212Y478858D01*
X487134Y478973D01*
X487060Y479090D01*
X487045Y479104D01*
X487033Y479121D01*
X486929Y479213D01*
X486828Y479308D01*
X486810Y479318D01*
X486795Y479331D01*
X486671Y479395D01*
X486549Y479462D01*
X486530Y479467D01*
X486512Y479476D01*
X486376Y479506D01*
X486241Y479541D01*
X486213Y479543D01*
X486201Y479546D01*
X486181Y479545D01*
X486081Y479551D01*
X415619Y479551D01*
X415481Y479534D01*
X415343Y479521D01*
X415324Y479514D01*
X415304Y479511D01*
X415175Y479460D01*
X415044Y479413D01*
X415027Y479402D01*
X415008Y479394D01*
X414896Y479313D01*
X414780Y479235D01*
X414767Y479219D01*
X414751Y479208D01*
X414662Y479100D01*
X414570Y478996D01*
X414561Y478978D01*
X414548Y478963D01*
X414489Y478837D01*
X414425Y478713D01*
X414421Y478693D01*
X414412Y478675D01*
X414386Y478538D01*
X414356Y478403D01*
X414356Y478382D01*
X414353Y478363D01*
X414361Y478224D01*
X414365Y478085D01*
X414371Y478065D01*
X414372Y478045D01*
X414415Y477913D01*
X414454Y477779D01*
X414464Y477762D01*
X414470Y477743D01*
X414545Y477625D01*
X414615Y477505D01*
X414634Y477484D01*
X414640Y477474D01*
X414655Y477460D01*
X414722Y477385D01*
X415875Y476231D01*
X417577Y472123D01*
X417577Y467677D01*
X415875Y463569D01*
X412731Y460425D01*
X408623Y458723D01*
X404177Y458723D01*
X400069Y460425D01*
X396925Y463569D01*
X395223Y467677D01*
X395223Y472123D01*
X396925Y476231D01*
X398078Y477385D01*
X398163Y477494D01*
X398252Y477601D01*
X398261Y477620D01*
X398273Y477636D01*
X398328Y477763D01*
X398388Y477889D01*
X398391Y477909D01*
X398400Y477928D01*
X398421Y478066D01*
X398447Y478202D01*
X398446Y478222D01*
X398449Y478242D01*
X398436Y478381D01*
X398428Y478519D01*
X398421Y478538D01*
X398420Y478558D01*
X398372Y478690D01*
X398330Y478821D01*
X398319Y478839D01*
X398312Y478858D01*
X398234Y478973D01*
X398160Y479090D01*
X398145Y479104D01*
X398133Y479121D01*
X398029Y479213D01*
X397928Y479308D01*
X397910Y479318D01*
X397895Y479331D01*
X397771Y479395D01*
X397649Y479462D01*
X397630Y479467D01*
X397612Y479476D01*
X397476Y479506D01*
X397341Y479541D01*
X397313Y479543D01*
X397301Y479546D01*
X397281Y479545D01*
X397181Y479551D01*
X389501Y479551D01*
X389363Y479534D01*
X389224Y479521D01*
X389205Y479514D01*
X389185Y479511D01*
X389056Y479460D01*
X388925Y479413D01*
X388908Y479402D01*
X388890Y479394D01*
X388777Y479313D01*
X388662Y479235D01*
X388649Y479219D01*
X388632Y479208D01*
X388543Y479100D01*
X388452Y478996D01*
X388442Y478978D01*
X388429Y478963D01*
X388370Y478837D01*
X388307Y478713D01*
X388302Y478693D01*
X388294Y478675D01*
X388268Y478539D01*
X388237Y478403D01*
X388238Y478382D01*
X388234Y478363D01*
X388243Y478224D01*
X388247Y478085D01*
X388253Y478065D01*
X388254Y478045D01*
X388297Y477913D01*
X388335Y477779D01*
X388346Y477762D01*
X388352Y477743D01*
X388426Y477625D01*
X388497Y477505D01*
X388516Y477484D01*
X388522Y477474D01*
X388537Y477460D01*
X388603Y477384D01*
X389138Y476850D01*
X390125Y475492D01*
X390887Y473995D01*
X391393Y472439D01*
X382270Y472439D01*
X382152Y472424D01*
X382033Y472417D01*
X381995Y472404D01*
X381955Y472399D01*
X381844Y472356D01*
X381731Y472319D01*
X381697Y472297D01*
X381659Y472282D01*
X381563Y472212D01*
X381462Y472149D01*
X381434Y472119D01*
X381402Y472095D01*
X381326Y472004D01*
X381244Y471917D01*
X381225Y471882D01*
X381199Y471851D01*
X381148Y471743D01*
X381091Y471639D01*
X381080Y471599D01*
X381063Y471563D01*
X381041Y471446D01*
X381011Y471331D01*
X381007Y471270D01*
X381003Y471250D01*
X381004Y471241D01*
X381003Y471238D01*
X381004Y471224D01*
X381001Y471170D01*
X381001Y469899D01*
X380999Y469899D01*
X380999Y471170D01*
X380984Y471288D01*
X380977Y471407D01*
X380964Y471445D01*
X380959Y471485D01*
X380915Y471596D01*
X380879Y471709D01*
X380857Y471744D01*
X380842Y471781D01*
X380772Y471877D01*
X380709Y471978D01*
X380679Y472006D01*
X380655Y472039D01*
X380564Y472114D01*
X380477Y472196D01*
X380442Y472216D01*
X380410Y472241D01*
X380303Y472292D01*
X380198Y472350D01*
X380159Y472360D01*
X380123Y472377D01*
X380006Y472399D01*
X379891Y472429D01*
X379830Y472433D01*
X379810Y472437D01*
X379790Y472435D01*
X379730Y472439D01*
X370607Y472439D01*
X371113Y473995D01*
X371875Y475492D01*
X372862Y476850D01*
X373397Y477384D01*
X373482Y477494D01*
X373571Y477601D01*
X373579Y477620D01*
X373592Y477636D01*
X373647Y477763D01*
X373706Y477889D01*
X373710Y477909D01*
X373718Y477928D01*
X373740Y478066D01*
X373766Y478202D01*
X373765Y478222D01*
X373768Y478242D01*
X373755Y478381D01*
X373746Y478519D01*
X373740Y478538D01*
X373738Y478558D01*
X373691Y478689D01*
X373648Y478821D01*
X373637Y478839D01*
X373630Y478858D01*
X373552Y478972D01*
X373478Y479090D01*
X373463Y479104D01*
X373452Y479121D01*
X373348Y479213D01*
X373246Y479308D01*
X373229Y479318D01*
X373213Y479331D01*
X373090Y479394D01*
X372968Y479462D01*
X372948Y479467D01*
X372930Y479476D01*
X372794Y479506D01*
X372660Y479541D01*
X372632Y479543D01*
X372620Y479546D01*
X372599Y479545D01*
X372499Y479551D01*
X364819Y479551D01*
X364681Y479534D01*
X364543Y479521D01*
X364524Y479514D01*
X364504Y479511D01*
X364375Y479460D01*
X364244Y479413D01*
X364227Y479402D01*
X364208Y479394D01*
X364096Y479313D01*
X363980Y479235D01*
X363967Y479219D01*
X363951Y479208D01*
X363862Y479100D01*
X363770Y478996D01*
X363761Y478978D01*
X363748Y478963D01*
X363689Y478837D01*
X363625Y478713D01*
X363621Y478693D01*
X363612Y478675D01*
X363586Y478538D01*
X363556Y478403D01*
X363556Y478382D01*
X363553Y478363D01*
X363561Y478224D01*
X363565Y478085D01*
X363571Y478065D01*
X363572Y478045D01*
X363615Y477913D01*
X363654Y477779D01*
X363664Y477762D01*
X363670Y477743D01*
X363745Y477625D01*
X363815Y477505D01*
X363834Y477484D01*
X363840Y477474D01*
X363855Y477460D01*
X363922Y477385D01*
X365075Y476231D01*
X366777Y472123D01*
X366777Y467677D01*
X365075Y463569D01*
X361931Y460425D01*
X357823Y458723D01*
X353377Y458723D01*
X349269Y460425D01*
X346125Y463569D01*
X344423Y467677D01*
X344423Y472123D01*
X346125Y476231D01*
X347278Y477385D01*
X347363Y477494D01*
X347452Y477601D01*
X347461Y477620D01*
X347473Y477636D01*
X347528Y477763D01*
X347588Y477889D01*
X347591Y477909D01*
X347600Y477928D01*
X347621Y478066D01*
X347647Y478202D01*
X347646Y478222D01*
X347649Y478242D01*
X347636Y478381D01*
X347628Y478519D01*
X347621Y478538D01*
X347620Y478558D01*
X347572Y478690D01*
X347530Y478821D01*
X347519Y478839D01*
X347512Y478858D01*
X347434Y478973D01*
X347360Y479090D01*
X347345Y479104D01*
X347333Y479121D01*
X347229Y479213D01*
X347128Y479308D01*
X347110Y479318D01*
X347095Y479331D01*
X346971Y479395D01*
X346849Y479462D01*
X346830Y479467D01*
X346812Y479476D01*
X346676Y479506D01*
X346541Y479541D01*
X346513Y479543D01*
X346501Y479546D01*
X346481Y479545D01*
X346381Y479551D01*
X339419Y479551D01*
X339281Y479534D01*
X339143Y479521D01*
X339124Y479514D01*
X339104Y479511D01*
X338975Y479460D01*
X338844Y479413D01*
X338827Y479402D01*
X338808Y479394D01*
X338696Y479313D01*
X338580Y479235D01*
X338567Y479219D01*
X338551Y479208D01*
X338462Y479100D01*
X338370Y478996D01*
X338361Y478978D01*
X338348Y478963D01*
X338289Y478837D01*
X338225Y478713D01*
X338221Y478693D01*
X338212Y478675D01*
X338186Y478538D01*
X338156Y478403D01*
X338156Y478382D01*
X338153Y478363D01*
X338161Y478224D01*
X338165Y478085D01*
X338171Y478065D01*
X338172Y478045D01*
X338215Y477913D01*
X338254Y477779D01*
X338264Y477762D01*
X338270Y477743D01*
X338345Y477625D01*
X338415Y477505D01*
X338434Y477484D01*
X338440Y477474D01*
X338455Y477460D01*
X338522Y477385D01*
X339675Y476231D01*
X341377Y472123D01*
X341377Y467677D01*
X339675Y463569D01*
X336531Y460425D01*
X332423Y458723D01*
X327977Y458723D01*
G37*
%LPD*%
%LPC*%
G36*
X416992Y776803D02*
X416992Y776803D01*
X413097Y778417D01*
X410117Y781397D01*
X409015Y784056D01*
X409011Y784064D01*
X409008Y784073D01*
X408932Y784203D01*
X408858Y784333D01*
X408851Y784339D01*
X408846Y784347D01*
X408740Y784468D01*
X388755Y804454D01*
X385932Y807276D01*
X384501Y810730D01*
X384501Y838951D01*
X384489Y839050D01*
X384486Y839149D01*
X384469Y839207D01*
X384461Y839267D01*
X384425Y839359D01*
X384397Y839454D01*
X384367Y839506D01*
X384344Y839563D01*
X384286Y839643D01*
X384236Y839728D01*
X384170Y839803D01*
X384158Y839820D01*
X384148Y839828D01*
X384130Y839849D01*
X382596Y841382D01*
X382596Y860418D01*
X383930Y861751D01*
X383990Y861829D01*
X384058Y861901D01*
X384087Y861954D01*
X384124Y862002D01*
X384164Y862093D01*
X384212Y862180D01*
X384227Y862238D01*
X384251Y862294D01*
X384266Y862392D01*
X384291Y862488D01*
X384297Y862588D01*
X384301Y862608D01*
X384299Y862621D01*
X384301Y862649D01*
X384301Y889826D01*
X384293Y889895D01*
X384294Y889965D01*
X384273Y890052D01*
X384261Y890141D01*
X384236Y890206D01*
X384219Y890274D01*
X384177Y890354D01*
X384144Y890437D01*
X384103Y890494D01*
X384071Y890555D01*
X384010Y890622D01*
X383958Y890694D01*
X383904Y890739D01*
X383857Y890791D01*
X383782Y890840D01*
X383713Y890897D01*
X383649Y890927D01*
X383591Y890965D01*
X383506Y890995D01*
X383425Y891033D01*
X383356Y891046D01*
X383290Y891069D01*
X383200Y891076D01*
X383113Y891093D01*
X383043Y891088D01*
X382973Y891094D01*
X382885Y891078D01*
X382795Y891073D01*
X382729Y891051D01*
X382660Y891039D01*
X382578Y891002D01*
X382493Y890975D01*
X382434Y890937D01*
X382370Y890909D01*
X382300Y890853D01*
X382224Y890805D01*
X382176Y890754D01*
X382121Y890710D01*
X382068Y890638D01*
X382006Y890573D01*
X381990Y890543D01*
X379515Y888069D01*
X376358Y886761D01*
X372942Y886761D01*
X369785Y888069D01*
X367194Y890660D01*
X367116Y890720D01*
X367044Y890788D01*
X366991Y890817D01*
X366943Y890854D01*
X366852Y890894D01*
X366765Y890942D01*
X366707Y890957D01*
X366651Y890981D01*
X366553Y890996D01*
X366457Y891021D01*
X366357Y891027D01*
X366337Y891031D01*
X366325Y891029D01*
X366297Y891031D01*
X337283Y891031D01*
X337185Y891019D01*
X337086Y891016D01*
X337028Y890999D01*
X336968Y890991D01*
X336876Y890955D01*
X336781Y890927D01*
X336728Y890897D01*
X336672Y890874D01*
X336592Y890816D01*
X336507Y890766D01*
X336431Y890700D01*
X336415Y890688D01*
X336407Y890678D01*
X336386Y890660D01*
X333795Y888069D01*
X330638Y886761D01*
X327222Y886761D01*
X324065Y888069D01*
X321649Y890485D01*
X320341Y893642D01*
X320341Y897058D01*
X321649Y900215D01*
X324065Y902631D01*
X327222Y903939D01*
X330638Y903939D01*
X333795Y902631D01*
X336386Y900040D01*
X336464Y899980D01*
X336536Y899912D01*
X336589Y899883D01*
X336637Y899846D01*
X336728Y899806D01*
X336815Y899758D01*
X336873Y899743D01*
X336929Y899719D01*
X337027Y899704D01*
X337123Y899679D01*
X337223Y899673D01*
X337243Y899669D01*
X337255Y899671D01*
X337283Y899669D01*
X366297Y899669D01*
X366395Y899681D01*
X366494Y899684D01*
X366552Y899701D01*
X366612Y899709D01*
X366704Y899745D01*
X366799Y899773D01*
X366852Y899803D01*
X366908Y899826D01*
X366988Y899884D01*
X367073Y899934D01*
X367149Y900000D01*
X367165Y900012D01*
X367173Y900022D01*
X367194Y900040D01*
X369785Y902631D01*
X372942Y903939D01*
X376358Y903939D01*
X379515Y902631D01*
X381994Y900152D01*
X382017Y900112D01*
X382065Y900062D01*
X382106Y900006D01*
X382176Y899948D01*
X382238Y899884D01*
X382298Y899847D01*
X382351Y899803D01*
X382433Y899765D01*
X382509Y899718D01*
X382576Y899697D01*
X382639Y899667D01*
X382727Y899650D01*
X382813Y899624D01*
X382883Y899621D01*
X382952Y899607D01*
X383041Y899613D01*
X383131Y899609D01*
X383199Y899623D01*
X383269Y899627D01*
X383354Y899655D01*
X383442Y899673D01*
X383505Y899704D01*
X383571Y899725D01*
X383647Y899773D01*
X383728Y899813D01*
X383781Y899858D01*
X383840Y899895D01*
X383902Y899961D01*
X383970Y900019D01*
X384010Y900076D01*
X384058Y900127D01*
X384101Y900206D01*
X384153Y900279D01*
X384178Y900344D01*
X384212Y900406D01*
X384234Y900492D01*
X384266Y900576D01*
X384274Y900646D01*
X384291Y900713D01*
X384301Y900874D01*
X384301Y910082D01*
X384286Y910200D01*
X384279Y910319D01*
X384266Y910357D01*
X384261Y910398D01*
X384218Y910508D01*
X384181Y910621D01*
X384159Y910656D01*
X384144Y910693D01*
X384075Y910789D01*
X384011Y910890D01*
X383981Y910918D01*
X383958Y910951D01*
X383866Y911027D01*
X383779Y911108D01*
X383744Y911128D01*
X383713Y911153D01*
X383605Y911204D01*
X383501Y911262D01*
X383461Y911272D01*
X383425Y911289D01*
X383308Y911311D01*
X383193Y911341D01*
X383133Y911345D01*
X383113Y911349D01*
X383092Y911347D01*
X383032Y911351D01*
X299149Y911351D01*
X299051Y911339D01*
X298952Y911336D01*
X298894Y911319D01*
X298834Y911311D01*
X298741Y911275D01*
X298646Y911247D01*
X298594Y911217D01*
X298538Y911194D01*
X298458Y911136D01*
X298372Y911086D01*
X298297Y911020D01*
X298281Y911008D01*
X298273Y910998D01*
X298252Y910980D01*
X275621Y888349D01*
X269833Y885951D01*
X246230Y885951D01*
X246221Y885950D01*
X246212Y885951D01*
X246063Y885930D01*
X245915Y885911D01*
X245906Y885908D01*
X245897Y885907D01*
X245744Y885855D01*
X244433Y885311D01*
X213407Y885311D01*
X207619Y887709D01*
X194508Y900820D01*
X194430Y900880D01*
X194358Y900948D01*
X194305Y900977D01*
X194257Y901014D01*
X194166Y901054D01*
X194080Y901102D01*
X194021Y901117D01*
X193965Y901141D01*
X193867Y901156D01*
X193772Y901181D01*
X193672Y901187D01*
X193651Y901191D01*
X193639Y901189D01*
X193611Y901191D01*
X133105Y901191D01*
X127317Y903589D01*
X107986Y922920D01*
X107908Y922980D01*
X107836Y923048D01*
X107783Y923077D01*
X107735Y923114D01*
X107644Y923154D01*
X107558Y923202D01*
X107499Y923217D01*
X107443Y923241D01*
X107345Y923256D01*
X107250Y923281D01*
X107150Y923287D01*
X107129Y923291D01*
X107117Y923289D01*
X107089Y923291D01*
X100958Y923291D01*
X93305Y926461D01*
X93157Y926502D01*
X93002Y926545D01*
X93000Y926545D01*
X92999Y926545D01*
X92837Y926548D01*
X92684Y926551D01*
X92682Y926550D01*
X92681Y926550D01*
X92523Y926513D01*
X92374Y926477D01*
X92373Y926477D01*
X92371Y926476D01*
X92233Y926403D01*
X92093Y926329D01*
X92092Y926328D01*
X92090Y926327D01*
X91976Y926223D01*
X91857Y926116D01*
X91856Y926115D01*
X91855Y926114D01*
X91767Y925980D01*
X91682Y925851D01*
X91681Y925849D01*
X91680Y925848D01*
X91629Y925699D01*
X91578Y925550D01*
X91577Y925548D01*
X91577Y925547D01*
X91564Y925389D01*
X91552Y925233D01*
X91552Y925232D01*
X91552Y925230D01*
X91581Y925060D01*
X91605Y924920D01*
X91606Y924918D01*
X91606Y924917D01*
X91671Y924772D01*
X91735Y924629D01*
X91736Y924628D01*
X91737Y924627D01*
X91739Y924624D01*
X91827Y924497D01*
X92861Y923201D01*
X94242Y921003D01*
X95369Y918664D01*
X96226Y916213D01*
X96804Y913682D01*
X96955Y912343D01*
X76519Y912343D01*
X76519Y932779D01*
X77858Y932628D01*
X80389Y932050D01*
X82840Y931193D01*
X85179Y930066D01*
X85891Y929619D01*
X85907Y929612D01*
X85920Y929601D01*
X86051Y929544D01*
X86179Y929485D01*
X86196Y929481D01*
X86212Y929475D01*
X86353Y929452D01*
X86492Y929426D01*
X86509Y929428D01*
X86526Y929425D01*
X86668Y929438D01*
X86809Y929448D01*
X86826Y929453D01*
X86843Y929455D01*
X86977Y929503D01*
X87112Y929547D01*
X87126Y929556D01*
X87142Y929562D01*
X87260Y929642D01*
X87379Y929719D01*
X87391Y929731D01*
X87405Y929741D01*
X87499Y929847D01*
X87596Y929951D01*
X87604Y929966D01*
X87616Y929979D01*
X87680Y930106D01*
X87748Y930231D01*
X87753Y930247D01*
X87760Y930262D01*
X87791Y930401D01*
X87826Y930539D01*
X87826Y930556D01*
X87830Y930573D01*
X87826Y930714D01*
X87825Y930857D01*
X87821Y930874D01*
X87820Y930891D01*
X87781Y931027D01*
X87745Y931165D01*
X87737Y931180D01*
X87732Y931196D01*
X87660Y931318D01*
X87591Y931443D01*
X87579Y931455D01*
X87570Y931470D01*
X87464Y931591D01*
X85303Y933752D01*
X81629Y942620D01*
X81629Y952220D01*
X85303Y961088D01*
X92090Y967875D01*
X100958Y971549D01*
X110558Y971549D01*
X119426Y967875D01*
X126213Y961088D01*
X129887Y952220D01*
X129887Y946089D01*
X129899Y945991D01*
X129902Y945892D01*
X129919Y945834D01*
X129927Y945774D01*
X129963Y945681D01*
X129991Y945586D01*
X130021Y945534D01*
X130044Y945478D01*
X130102Y945398D01*
X130152Y945312D01*
X130218Y945237D01*
X130230Y945221D01*
X130240Y945213D01*
X130258Y945192D01*
X142390Y933060D01*
X142468Y933000D01*
X142540Y932932D01*
X142593Y932903D01*
X142641Y932866D01*
X142732Y932826D01*
X142818Y932778D01*
X142877Y932763D01*
X142933Y932739D01*
X143031Y932724D01*
X143126Y932699D01*
X143226Y932693D01*
X143247Y932689D01*
X143259Y932691D01*
X143287Y932689D01*
X149741Y932689D01*
X149879Y932706D01*
X150018Y932719D01*
X150037Y932726D01*
X150057Y932729D01*
X150186Y932780D01*
X150317Y932827D01*
X150334Y932838D01*
X150352Y932846D01*
X150465Y932927D01*
X150580Y933005D01*
X150593Y933021D01*
X150610Y933032D01*
X150699Y933140D01*
X150790Y933244D01*
X150800Y933262D01*
X150813Y933277D01*
X150872Y933403D01*
X150935Y933527D01*
X150940Y933547D01*
X150948Y933565D01*
X150974Y933701D01*
X151005Y933837D01*
X151004Y933858D01*
X151008Y933877D01*
X150999Y934016D01*
X150995Y934155D01*
X150989Y934175D01*
X150988Y934195D01*
X150945Y934327D01*
X150907Y934461D01*
X150896Y934478D01*
X150890Y934497D01*
X150816Y934615D01*
X150745Y934735D01*
X150726Y934756D01*
X150720Y934766D01*
X150705Y934780D01*
X150639Y934856D01*
X150104Y935390D01*
X149117Y936748D01*
X148355Y938245D01*
X147849Y939801D01*
X165100Y939801D01*
X165218Y939816D01*
X165337Y939823D01*
X165375Y939836D01*
X165415Y939841D01*
X165526Y939884D01*
X165639Y939921D01*
X165673Y939943D01*
X165711Y939958D01*
X165807Y940028D01*
X165908Y940091D01*
X165936Y940121D01*
X165968Y940144D01*
X166044Y940236D01*
X166126Y940323D01*
X166145Y940358D01*
X166171Y940389D01*
X166222Y940497D01*
X166279Y940601D01*
X166290Y940641D01*
X166307Y940677D01*
X166329Y940794D01*
X166359Y940909D01*
X166363Y940970D01*
X166367Y940990D01*
X166365Y941010D01*
X166369Y941070D01*
X166369Y942341D01*
X166371Y942341D01*
X166371Y941070D01*
X166386Y940952D01*
X166393Y940833D01*
X166406Y940795D01*
X166411Y940754D01*
X166455Y940644D01*
X166491Y940531D01*
X166513Y940496D01*
X166528Y940459D01*
X166598Y940363D01*
X166661Y940262D01*
X166691Y940234D01*
X166715Y940201D01*
X166806Y940126D01*
X166893Y940044D01*
X166928Y940024D01*
X166960Y939999D01*
X167067Y939948D01*
X167172Y939890D01*
X167211Y939880D01*
X167247Y939863D01*
X167364Y939841D01*
X167479Y939811D01*
X167540Y939807D01*
X167560Y939803D01*
X167580Y939805D01*
X167640Y939801D01*
X184891Y939801D01*
X184385Y938245D01*
X183623Y936748D01*
X182636Y935390D01*
X182101Y934856D01*
X182016Y934746D01*
X181927Y934639D01*
X181919Y934620D01*
X181906Y934604D01*
X181851Y934476D01*
X181792Y934351D01*
X181788Y934331D01*
X181780Y934312D01*
X181758Y934174D01*
X181732Y934038D01*
X181733Y934018D01*
X181730Y933998D01*
X181743Y933859D01*
X181752Y933721D01*
X181758Y933702D01*
X181760Y933682D01*
X181807Y933551D01*
X181850Y933419D01*
X181861Y933401D01*
X181868Y933382D01*
X181946Y933268D01*
X182020Y933150D01*
X182035Y933136D01*
X182046Y933119D01*
X182150Y933027D01*
X182252Y932932D01*
X182269Y932922D01*
X182285Y932909D01*
X182408Y932846D01*
X182530Y932778D01*
X182550Y932773D01*
X182568Y932764D01*
X182704Y932734D01*
X182838Y932699D01*
X182866Y932697D01*
X182878Y932694D01*
X182899Y932695D01*
X182999Y932689D01*
X203793Y932689D01*
X209581Y930291D01*
X222692Y917180D01*
X222770Y917120D01*
X222842Y917052D01*
X222895Y917023D01*
X222943Y916986D01*
X223034Y916946D01*
X223120Y916898D01*
X223179Y916883D01*
X223235Y916859D01*
X223333Y916844D01*
X223428Y916819D01*
X223528Y916813D01*
X223549Y916809D01*
X223561Y916811D01*
X223589Y916809D01*
X237010Y916809D01*
X237019Y916810D01*
X237028Y916809D01*
X237177Y916830D01*
X237325Y916849D01*
X237334Y916852D01*
X237343Y916853D01*
X237496Y916905D01*
X238807Y917449D01*
X259651Y917449D01*
X259749Y917461D01*
X259848Y917464D01*
X259906Y917481D01*
X259966Y917489D01*
X260059Y917525D01*
X260154Y917553D01*
X260206Y917583D01*
X260262Y917606D01*
X260342Y917664D01*
X260428Y917714D01*
X260503Y917780D01*
X260519Y917792D01*
X260527Y917802D01*
X260548Y917820D01*
X283179Y940451D01*
X288967Y942849D01*
X904833Y942849D01*
X910621Y940451D01*
X915051Y936021D01*
X917449Y930233D01*
X917449Y925169D01*
X917461Y925071D01*
X917464Y924972D01*
X917481Y924913D01*
X917489Y924853D01*
X917525Y924761D01*
X917553Y924666D01*
X917583Y924614D01*
X917606Y924558D01*
X917664Y924478D01*
X917714Y924392D01*
X917780Y924317D01*
X917792Y924300D01*
X917802Y924292D01*
X917820Y924271D01*
X935068Y907024D01*
X936499Y903570D01*
X936499Y863049D01*
X936511Y862950D01*
X936514Y862851D01*
X936531Y862793D01*
X936539Y862733D01*
X936575Y862641D01*
X936603Y862546D01*
X936633Y862494D01*
X936656Y862437D01*
X936714Y862357D01*
X936764Y862272D01*
X936830Y862197D01*
X936842Y862180D01*
X936852Y862172D01*
X936870Y862151D01*
X938604Y860418D01*
X938604Y841382D01*
X937070Y839849D01*
X937010Y839771D01*
X936942Y839699D01*
X936913Y839646D01*
X936876Y839598D01*
X936836Y839507D01*
X936788Y839420D01*
X936773Y839361D01*
X936749Y839306D01*
X936734Y839208D01*
X936709Y839112D01*
X936703Y839012D01*
X936699Y838992D01*
X936701Y838979D01*
X936699Y838951D01*
X936699Y817019D01*
X936711Y816921D01*
X936714Y816822D01*
X936731Y816763D01*
X936739Y816703D01*
X936775Y816611D01*
X936803Y816516D01*
X936833Y816464D01*
X936856Y816408D01*
X936914Y816328D01*
X936964Y816242D01*
X937030Y816167D01*
X937042Y816150D01*
X937052Y816142D01*
X937070Y816121D01*
X955432Y797760D01*
X955439Y797754D01*
X955445Y797747D01*
X955565Y797657D01*
X955683Y797565D01*
X955692Y797561D01*
X955699Y797556D01*
X955844Y797485D01*
X958503Y796383D01*
X961483Y793403D01*
X963097Y789508D01*
X963097Y785292D01*
X961483Y781397D01*
X958503Y778417D01*
X954608Y776803D01*
X950392Y776803D01*
X946497Y778417D01*
X943517Y781397D01*
X942415Y784056D01*
X942411Y784064D01*
X942408Y784073D01*
X942332Y784203D01*
X942258Y784333D01*
X942251Y784339D01*
X942246Y784347D01*
X942140Y784468D01*
X922155Y804454D01*
X919332Y807276D01*
X917901Y810730D01*
X917901Y838951D01*
X917889Y839050D01*
X917886Y839149D01*
X917869Y839207D01*
X917861Y839267D01*
X917825Y839359D01*
X917797Y839454D01*
X917767Y839506D01*
X917744Y839563D01*
X917686Y839643D01*
X917636Y839728D01*
X917570Y839803D01*
X917558Y839820D01*
X917548Y839828D01*
X917530Y839849D01*
X915996Y841382D01*
X915996Y860418D01*
X917330Y861751D01*
X917390Y861829D01*
X917458Y861901D01*
X917487Y861954D01*
X917524Y862002D01*
X917564Y862093D01*
X917612Y862180D01*
X917627Y862239D01*
X917651Y862294D01*
X917666Y862392D01*
X917691Y862488D01*
X917697Y862588D01*
X917701Y862608D01*
X917699Y862621D01*
X917701Y862649D01*
X917701Y897281D01*
X917689Y897379D01*
X917686Y897478D01*
X917669Y897537D01*
X917661Y897597D01*
X917625Y897689D01*
X917597Y897784D01*
X917567Y897836D01*
X917544Y897892D01*
X917486Y897972D01*
X917436Y898058D01*
X917370Y898133D01*
X917358Y898150D01*
X917348Y898158D01*
X917330Y898179D01*
X904529Y910980D01*
X904450Y911040D01*
X904378Y911108D01*
X904325Y911137D01*
X904277Y911174D01*
X904186Y911214D01*
X904100Y911262D01*
X904041Y911277D01*
X903986Y911301D01*
X903888Y911316D01*
X903792Y911341D01*
X903692Y911347D01*
X903671Y911351D01*
X903659Y911349D01*
X903631Y911351D01*
X759968Y911351D01*
X759850Y911336D01*
X759731Y911329D01*
X759693Y911316D01*
X759652Y911311D01*
X759542Y911268D01*
X759429Y911231D01*
X759394Y911209D01*
X759357Y911194D01*
X759261Y911125D01*
X759160Y911061D01*
X759132Y911031D01*
X759099Y911008D01*
X759023Y910916D01*
X758942Y910829D01*
X758922Y910794D01*
X758897Y910763D01*
X758846Y910655D01*
X758788Y910551D01*
X758778Y910511D01*
X758761Y910475D01*
X758739Y910358D01*
X758709Y910243D01*
X758705Y910183D01*
X758701Y910163D01*
X758703Y910142D01*
X758699Y910082D01*
X758699Y863049D01*
X758711Y862950D01*
X758714Y862851D01*
X758731Y862793D01*
X758739Y862733D01*
X758775Y862641D01*
X758803Y862546D01*
X758833Y862494D01*
X758856Y862437D01*
X758914Y862357D01*
X758964Y862272D01*
X759030Y862197D01*
X759042Y862180D01*
X759052Y862172D01*
X759070Y862151D01*
X760804Y860418D01*
X760804Y841382D01*
X759270Y839849D01*
X759210Y839771D01*
X759142Y839699D01*
X759113Y839646D01*
X759076Y839598D01*
X759036Y839507D01*
X758988Y839420D01*
X758973Y839361D01*
X758949Y839306D01*
X758934Y839208D01*
X758909Y839112D01*
X758903Y839012D01*
X758899Y838992D01*
X758901Y838979D01*
X758899Y838951D01*
X758899Y817019D01*
X758911Y816921D01*
X758914Y816822D01*
X758931Y816763D01*
X758939Y816703D01*
X758975Y816611D01*
X759003Y816516D01*
X759033Y816464D01*
X759056Y816408D01*
X759114Y816328D01*
X759164Y816242D01*
X759230Y816167D01*
X759242Y816150D01*
X759252Y816142D01*
X759270Y816121D01*
X777632Y797760D01*
X777639Y797754D01*
X777645Y797747D01*
X777765Y797657D01*
X777883Y797565D01*
X777892Y797561D01*
X777899Y797556D01*
X778044Y797485D01*
X780703Y796383D01*
X783683Y793403D01*
X785297Y789508D01*
X785297Y785292D01*
X783683Y781397D01*
X780703Y778417D01*
X776808Y776803D01*
X772592Y776803D01*
X768697Y778417D01*
X765717Y781397D01*
X764615Y784056D01*
X764611Y784064D01*
X764608Y784073D01*
X764532Y784202D01*
X764458Y784333D01*
X764451Y784339D01*
X764446Y784347D01*
X764340Y784468D01*
X741532Y807276D01*
X740101Y810730D01*
X740101Y838951D01*
X740089Y839050D01*
X740086Y839149D01*
X740069Y839207D01*
X740061Y839267D01*
X740025Y839359D01*
X739997Y839454D01*
X739967Y839506D01*
X739944Y839563D01*
X739886Y839643D01*
X739836Y839728D01*
X739770Y839803D01*
X739758Y839820D01*
X739748Y839828D01*
X739730Y839849D01*
X738196Y841382D01*
X738196Y860418D01*
X739530Y861751D01*
X739590Y861829D01*
X739658Y861901D01*
X739687Y861954D01*
X739724Y862002D01*
X739764Y862093D01*
X739812Y862180D01*
X739827Y862239D01*
X739851Y862294D01*
X739866Y862392D01*
X739891Y862488D01*
X739897Y862588D01*
X739901Y862608D01*
X739899Y862621D01*
X739901Y862649D01*
X739901Y889826D01*
X739892Y889895D01*
X739894Y889965D01*
X739873Y890052D01*
X739861Y890141D01*
X739836Y890207D01*
X739819Y890275D01*
X739777Y890354D01*
X739744Y890437D01*
X739703Y890494D01*
X739670Y890556D01*
X739610Y890622D01*
X739558Y890694D01*
X739504Y890739D01*
X739456Y890791D01*
X739382Y890840D01*
X739313Y890897D01*
X739249Y890927D01*
X739191Y890966D01*
X739106Y890995D01*
X739025Y891033D01*
X738956Y891046D01*
X738890Y891069D01*
X738800Y891076D01*
X738713Y891093D01*
X738643Y891088D01*
X738573Y891094D01*
X738484Y891078D01*
X738395Y891073D01*
X738329Y891051D01*
X738259Y891039D01*
X738178Y891002D01*
X738093Y890975D01*
X738033Y890937D01*
X737970Y890909D01*
X737900Y890853D01*
X737824Y890805D01*
X737776Y890754D01*
X737721Y890710D01*
X737667Y890638D01*
X737606Y890573D01*
X737590Y890543D01*
X735115Y888069D01*
X731958Y886761D01*
X728542Y886761D01*
X725385Y888069D01*
X722794Y890660D01*
X722716Y890720D01*
X722644Y890788D01*
X722591Y890817D01*
X722543Y890854D01*
X722452Y890894D01*
X722365Y890942D01*
X722307Y890957D01*
X722251Y890981D01*
X722153Y890996D01*
X722057Y891021D01*
X721957Y891027D01*
X721937Y891031D01*
X721925Y891029D01*
X721897Y891031D01*
X694153Y891031D01*
X694055Y891019D01*
X693956Y891016D01*
X693898Y890999D01*
X693838Y890991D01*
X693746Y890955D01*
X693651Y890927D01*
X693598Y890897D01*
X693542Y890874D01*
X693462Y890816D01*
X693377Y890766D01*
X693301Y890700D01*
X693285Y890688D01*
X693277Y890678D01*
X693256Y890660D01*
X690665Y888069D01*
X687508Y886761D01*
X684092Y886761D01*
X680935Y888069D01*
X678519Y890485D01*
X677211Y893642D01*
X677211Y897058D01*
X678519Y900215D01*
X680935Y902631D01*
X684092Y903939D01*
X687508Y903939D01*
X690665Y902631D01*
X693256Y900040D01*
X693334Y899980D01*
X693406Y899912D01*
X693459Y899883D01*
X693507Y899846D01*
X693598Y899806D01*
X693685Y899758D01*
X693743Y899743D01*
X693799Y899719D01*
X693897Y899704D01*
X693993Y899679D01*
X694093Y899673D01*
X694113Y899669D01*
X694125Y899671D01*
X694153Y899669D01*
X721897Y899669D01*
X721995Y899681D01*
X722094Y899684D01*
X722152Y899701D01*
X722212Y899709D01*
X722304Y899745D01*
X722399Y899773D01*
X722452Y899803D01*
X722508Y899826D01*
X722588Y899884D01*
X722673Y899934D01*
X722749Y900000D01*
X722765Y900012D01*
X722773Y900022D01*
X722794Y900040D01*
X725385Y902631D01*
X728542Y903939D01*
X731958Y903939D01*
X735115Y902631D01*
X737594Y900152D01*
X737617Y900113D01*
X737665Y900062D01*
X737706Y900006D01*
X737775Y899948D01*
X737838Y899884D01*
X737898Y899847D01*
X737951Y899803D01*
X738032Y899765D01*
X738109Y899718D01*
X738176Y899697D01*
X738239Y899667D01*
X738327Y899650D01*
X738413Y899624D01*
X738483Y899621D01*
X738552Y899607D01*
X738641Y899613D01*
X738730Y899609D01*
X738799Y899623D01*
X738869Y899627D01*
X738954Y899655D01*
X739042Y899673D01*
X739105Y899704D01*
X739171Y899725D01*
X739247Y899773D01*
X739328Y899813D01*
X739381Y899858D01*
X739440Y899895D01*
X739502Y899961D01*
X739570Y900019D01*
X739610Y900076D01*
X739658Y900127D01*
X739701Y900206D01*
X739753Y900279D01*
X739778Y900344D01*
X739812Y900406D01*
X739834Y900492D01*
X739866Y900576D01*
X739874Y900646D01*
X739891Y900713D01*
X739901Y900874D01*
X739901Y910082D01*
X739886Y910200D01*
X739879Y910319D01*
X739866Y910357D01*
X739861Y910398D01*
X739818Y910508D01*
X739781Y910621D01*
X739759Y910656D01*
X739744Y910693D01*
X739675Y910789D01*
X739611Y910890D01*
X739581Y910918D01*
X739558Y910951D01*
X739466Y911027D01*
X739379Y911108D01*
X739344Y911128D01*
X739313Y911153D01*
X739205Y911204D01*
X739101Y911262D01*
X739061Y911272D01*
X739025Y911289D01*
X738908Y911311D01*
X738793Y911341D01*
X738733Y911345D01*
X738713Y911349D01*
X738692Y911347D01*
X738632Y911351D01*
X582168Y911351D01*
X582050Y911336D01*
X581931Y911329D01*
X581893Y911316D01*
X581852Y911311D01*
X581742Y911268D01*
X581629Y911231D01*
X581594Y911209D01*
X581557Y911194D01*
X581461Y911125D01*
X581360Y911061D01*
X581332Y911031D01*
X581299Y911008D01*
X581223Y910916D01*
X581142Y910829D01*
X581122Y910794D01*
X581097Y910763D01*
X581046Y910655D01*
X580988Y910551D01*
X580978Y910511D01*
X580961Y910475D01*
X580939Y910358D01*
X580909Y910243D01*
X580905Y910183D01*
X580901Y910163D01*
X580903Y910142D01*
X580899Y910082D01*
X580899Y863049D01*
X580911Y862950D01*
X580914Y862851D01*
X580931Y862793D01*
X580939Y862733D01*
X580975Y862641D01*
X581003Y862546D01*
X581033Y862494D01*
X581056Y862437D01*
X581114Y862357D01*
X581164Y862272D01*
X581230Y862197D01*
X581242Y862180D01*
X581252Y862172D01*
X581270Y862151D01*
X583004Y860418D01*
X583004Y841382D01*
X581470Y839849D01*
X581410Y839771D01*
X581342Y839699D01*
X581313Y839646D01*
X581276Y839598D01*
X581236Y839507D01*
X581188Y839420D01*
X581173Y839362D01*
X581149Y839306D01*
X581134Y839208D01*
X581109Y839112D01*
X581103Y839012D01*
X581099Y838992D01*
X581101Y838979D01*
X581099Y838951D01*
X581099Y817019D01*
X581111Y816921D01*
X581114Y816822D01*
X581131Y816763D01*
X581139Y816703D01*
X581175Y816611D01*
X581203Y816516D01*
X581233Y816464D01*
X581256Y816408D01*
X581314Y816328D01*
X581364Y816242D01*
X581430Y816167D01*
X581442Y816150D01*
X581452Y816142D01*
X581470Y816121D01*
X599832Y797760D01*
X599839Y797754D01*
X599845Y797747D01*
X599964Y797658D01*
X600083Y797565D01*
X600092Y797561D01*
X600099Y797556D01*
X600244Y797485D01*
X602903Y796383D01*
X605883Y793403D01*
X607497Y789508D01*
X607497Y785292D01*
X605883Y781397D01*
X602903Y778417D01*
X599008Y776803D01*
X594792Y776803D01*
X590897Y778417D01*
X587917Y781397D01*
X586815Y784056D01*
X586811Y784064D01*
X586808Y784073D01*
X586732Y784202D01*
X586658Y784333D01*
X586651Y784339D01*
X586646Y784347D01*
X586540Y784468D01*
X563732Y807276D01*
X562301Y810730D01*
X562301Y838951D01*
X562289Y839050D01*
X562286Y839149D01*
X562269Y839207D01*
X562261Y839267D01*
X562225Y839359D01*
X562197Y839454D01*
X562167Y839506D01*
X562144Y839563D01*
X562086Y839643D01*
X562036Y839728D01*
X561970Y839803D01*
X561958Y839820D01*
X561948Y839828D01*
X561930Y839849D01*
X560396Y841382D01*
X560396Y860418D01*
X561730Y861751D01*
X561790Y861829D01*
X561858Y861901D01*
X561887Y861954D01*
X561924Y862002D01*
X561964Y862093D01*
X562012Y862180D01*
X562027Y862238D01*
X562051Y862294D01*
X562066Y862392D01*
X562091Y862488D01*
X562097Y862588D01*
X562101Y862608D01*
X562099Y862621D01*
X562101Y862649D01*
X562101Y888521D01*
X562084Y888659D01*
X562071Y888797D01*
X562064Y888816D01*
X562061Y888836D01*
X562010Y888966D01*
X561963Y889096D01*
X561952Y889113D01*
X561944Y889132D01*
X561863Y889244D01*
X561785Y889360D01*
X561769Y889373D01*
X561758Y889389D01*
X561650Y889478D01*
X561546Y889570D01*
X561528Y889579D01*
X561513Y889592D01*
X561387Y889651D01*
X561263Y889715D01*
X561243Y889719D01*
X561225Y889728D01*
X561088Y889754D01*
X560953Y889784D01*
X560932Y889784D01*
X560913Y889787D01*
X560774Y889779D01*
X560635Y889775D01*
X560615Y889769D01*
X560595Y889768D01*
X560463Y889725D01*
X560329Y889686D01*
X560312Y889676D01*
X560293Y889670D01*
X560175Y889595D01*
X560055Y889525D01*
X560034Y889506D01*
X560024Y889499D01*
X560010Y889484D01*
X559935Y889418D01*
X558585Y888069D01*
X555428Y886761D01*
X552012Y886761D01*
X548855Y888069D01*
X546264Y890660D01*
X546186Y890720D01*
X546114Y890788D01*
X546061Y890817D01*
X546013Y890854D01*
X545922Y890894D01*
X545835Y890942D01*
X545777Y890957D01*
X545721Y890981D01*
X545623Y890996D01*
X545527Y891021D01*
X545427Y891027D01*
X545407Y891031D01*
X545395Y891029D01*
X545367Y891031D01*
X514369Y891031D01*
X514271Y891019D01*
X514172Y891016D01*
X514114Y890999D01*
X514054Y890991D01*
X513962Y890955D01*
X513867Y890927D01*
X513814Y890897D01*
X513758Y890874D01*
X513678Y890816D01*
X513593Y890766D01*
X513517Y890700D01*
X513501Y890688D01*
X513493Y890678D01*
X513472Y890660D01*
X510881Y888069D01*
X507724Y886761D01*
X504308Y886761D01*
X501151Y888069D01*
X498735Y890485D01*
X497427Y893642D01*
X497427Y897058D01*
X498735Y900215D01*
X501151Y902631D01*
X504308Y903939D01*
X507724Y903939D01*
X510881Y902631D01*
X513472Y900040D01*
X513550Y899980D01*
X513622Y899912D01*
X513675Y899883D01*
X513723Y899846D01*
X513814Y899806D01*
X513901Y899758D01*
X513959Y899743D01*
X514015Y899719D01*
X514113Y899704D01*
X514209Y899679D01*
X514309Y899673D01*
X514329Y899669D01*
X514341Y899671D01*
X514369Y899669D01*
X545367Y899669D01*
X545465Y899681D01*
X545564Y899684D01*
X545622Y899701D01*
X545682Y899709D01*
X545774Y899745D01*
X545869Y899773D01*
X545922Y899803D01*
X545978Y899826D01*
X546058Y899884D01*
X546143Y899934D01*
X546219Y900000D01*
X546235Y900012D01*
X546243Y900022D01*
X546264Y900040D01*
X548855Y902631D01*
X552012Y903939D01*
X555428Y903939D01*
X558585Y902631D01*
X559935Y901282D01*
X560044Y901197D01*
X560151Y901108D01*
X560170Y901099D01*
X560186Y901087D01*
X560313Y901032D01*
X560439Y900972D01*
X560459Y900969D01*
X560478Y900960D01*
X560616Y900939D01*
X560752Y900913D01*
X560772Y900914D01*
X560792Y900911D01*
X560931Y900924D01*
X561069Y900932D01*
X561088Y900939D01*
X561108Y900940D01*
X561240Y900988D01*
X561371Y901030D01*
X561389Y901041D01*
X561408Y901048D01*
X561523Y901126D01*
X561640Y901201D01*
X561654Y901215D01*
X561671Y901227D01*
X561763Y901331D01*
X561858Y901432D01*
X561868Y901450D01*
X561881Y901465D01*
X561945Y901589D01*
X562012Y901711D01*
X562017Y901730D01*
X562026Y901748D01*
X562056Y901884D01*
X562091Y902019D01*
X562093Y902047D01*
X562096Y902059D01*
X562095Y902079D01*
X562101Y902179D01*
X562101Y910082D01*
X562086Y910200D01*
X562079Y910319D01*
X562066Y910357D01*
X562061Y910398D01*
X562018Y910508D01*
X561981Y910621D01*
X561959Y910656D01*
X561944Y910693D01*
X561875Y910789D01*
X561811Y910890D01*
X561781Y910918D01*
X561758Y910951D01*
X561666Y911027D01*
X561579Y911108D01*
X561544Y911128D01*
X561513Y911153D01*
X561405Y911204D01*
X561301Y911262D01*
X561261Y911272D01*
X561225Y911289D01*
X561108Y911311D01*
X560993Y911341D01*
X560933Y911345D01*
X560913Y911349D01*
X560892Y911347D01*
X560832Y911351D01*
X404368Y911351D01*
X404250Y911336D01*
X404131Y911329D01*
X404093Y911316D01*
X404052Y911311D01*
X403942Y911268D01*
X403829Y911231D01*
X403794Y911209D01*
X403757Y911194D01*
X403661Y911125D01*
X403560Y911061D01*
X403532Y911031D01*
X403499Y911008D01*
X403423Y910916D01*
X403342Y910829D01*
X403322Y910794D01*
X403297Y910763D01*
X403246Y910655D01*
X403188Y910551D01*
X403178Y910511D01*
X403161Y910475D01*
X403139Y910358D01*
X403109Y910243D01*
X403105Y910183D01*
X403101Y910163D01*
X403103Y910142D01*
X403099Y910082D01*
X403099Y863049D01*
X403111Y862950D01*
X403114Y862851D01*
X403131Y862793D01*
X403139Y862733D01*
X403175Y862641D01*
X403203Y862546D01*
X403233Y862494D01*
X403256Y862437D01*
X403314Y862357D01*
X403364Y862272D01*
X403430Y862197D01*
X403442Y862180D01*
X403452Y862172D01*
X403470Y862151D01*
X405204Y860418D01*
X405204Y841382D01*
X403670Y839849D01*
X403610Y839771D01*
X403542Y839699D01*
X403513Y839646D01*
X403476Y839598D01*
X403436Y839507D01*
X403388Y839420D01*
X403373Y839362D01*
X403349Y839306D01*
X403334Y839208D01*
X403309Y839112D01*
X403303Y839012D01*
X403299Y838992D01*
X403301Y838979D01*
X403299Y838951D01*
X403299Y817019D01*
X403311Y816921D01*
X403314Y816822D01*
X403331Y816763D01*
X403339Y816703D01*
X403375Y816611D01*
X403403Y816516D01*
X403433Y816464D01*
X403456Y816408D01*
X403514Y816328D01*
X403564Y816242D01*
X403630Y816167D01*
X403642Y816150D01*
X403652Y816142D01*
X403670Y816121D01*
X422032Y797760D01*
X422039Y797754D01*
X422045Y797747D01*
X422165Y797657D01*
X422283Y797565D01*
X422292Y797561D01*
X422299Y797556D01*
X422444Y797485D01*
X425103Y796383D01*
X428083Y793403D01*
X429697Y789508D01*
X429697Y785292D01*
X428083Y781397D01*
X425103Y778417D01*
X421208Y776803D01*
X416992Y776803D01*
G37*
%LPD*%
%LPC*%
G36*
X237213Y931951D02*
X237213Y931951D01*
X229660Y935080D01*
X223880Y940860D01*
X220751Y948413D01*
X220751Y956587D01*
X223880Y964140D01*
X229660Y969920D01*
X237213Y973049D01*
X245387Y973049D01*
X252940Y969920D01*
X258720Y964140D01*
X261849Y956587D01*
X261849Y948413D01*
X258720Y940860D01*
X252940Y935080D01*
X245387Y931951D01*
X237213Y931951D01*
G37*
%LPD*%
%LPC*%
G36*
X948413Y462051D02*
X948413Y462051D01*
X940860Y465180D01*
X935080Y470960D01*
X931951Y478513D01*
X931951Y486687D01*
X935080Y494240D01*
X940860Y500020D01*
X948413Y503149D01*
X956587Y503149D01*
X964140Y500020D01*
X969920Y494240D01*
X973049Y486687D01*
X973049Y478513D01*
X969920Y470960D01*
X964140Y465180D01*
X956587Y462051D01*
X948413Y462051D01*
G37*
%LPD*%
%LPC*%
G36*
X237213Y462051D02*
X237213Y462051D01*
X229660Y465180D01*
X223880Y470960D01*
X220751Y478513D01*
X220751Y486687D01*
X223880Y494240D01*
X229660Y500020D01*
X237213Y503149D01*
X245387Y503149D01*
X252940Y500020D01*
X258720Y494240D01*
X261849Y486687D01*
X261849Y478513D01*
X258720Y470960D01*
X252940Y465180D01*
X245387Y462051D01*
X237213Y462051D01*
G37*
%LPD*%
%LPC*%
G36*
X948413Y931951D02*
X948413Y931951D01*
X940860Y935080D01*
X935080Y940860D01*
X931951Y948413D01*
X931951Y956587D01*
X935080Y964140D01*
X940860Y969920D01*
X948413Y973049D01*
X956587Y973049D01*
X964140Y969920D01*
X969920Y964140D01*
X973049Y956587D01*
X973049Y948413D01*
X969920Y940860D01*
X964140Y935080D01*
X956587Y931951D01*
X948413Y931951D01*
G37*
%LPD*%
%LPC*%
G36*
X150692Y772461D02*
X150692Y772461D01*
X147535Y773769D01*
X145119Y776185D01*
X143811Y779342D01*
X143811Y782758D01*
X145119Y785915D01*
X147710Y788506D01*
X147770Y788584D01*
X147838Y788656D01*
X147867Y788709D01*
X147904Y788757D01*
X147944Y788848D01*
X147992Y788935D01*
X148007Y788993D01*
X148031Y789049D01*
X148046Y789147D01*
X148071Y789243D01*
X148077Y789343D01*
X148081Y789363D01*
X148079Y789375D01*
X148081Y789403D01*
X148081Y842547D01*
X148069Y842645D01*
X148066Y842744D01*
X148049Y842802D01*
X148041Y842862D01*
X148005Y842954D01*
X147977Y843049D01*
X147947Y843102D01*
X147924Y843158D01*
X147866Y843238D01*
X147816Y843323D01*
X147750Y843399D01*
X147738Y843415D01*
X147728Y843423D01*
X147710Y843444D01*
X145119Y846035D01*
X143811Y849192D01*
X143811Y852608D01*
X145119Y855765D01*
X147535Y858181D01*
X150692Y859489D01*
X154108Y859489D01*
X157265Y858181D01*
X159681Y855765D01*
X160989Y852608D01*
X160989Y849192D01*
X159681Y846035D01*
X157090Y843444D01*
X157030Y843366D01*
X156962Y843294D01*
X156933Y843241D01*
X156896Y843193D01*
X156856Y843102D01*
X156808Y843015D01*
X156793Y842957D01*
X156769Y842901D01*
X156754Y842803D01*
X156729Y842707D01*
X156723Y842607D01*
X156719Y842587D01*
X156721Y842575D01*
X156719Y842547D01*
X156719Y789403D01*
X156731Y789305D01*
X156734Y789206D01*
X156751Y789148D01*
X156759Y789088D01*
X156795Y788996D01*
X156823Y788901D01*
X156853Y788848D01*
X156876Y788792D01*
X156934Y788712D01*
X156984Y788627D01*
X157050Y788551D01*
X157062Y788535D01*
X157072Y788527D01*
X157090Y788506D01*
X159681Y785915D01*
X160989Y782758D01*
X160989Y779342D01*
X159681Y776185D01*
X157265Y773769D01*
X154108Y772461D01*
X150692Y772461D01*
G37*
%LPD*%
%LPC*%
G36*
X156019Y956563D02*
X156019Y956563D01*
X151911Y958265D01*
X148767Y961409D01*
X147065Y965517D01*
X147065Y969963D01*
X148767Y974071D01*
X151911Y977215D01*
X156019Y978917D01*
X176721Y978917D01*
X180829Y977215D01*
X183973Y974071D01*
X185675Y969963D01*
X185675Y965517D01*
X183973Y961409D01*
X180829Y958265D01*
X176721Y956563D01*
X156019Y956563D01*
G37*
%LPD*%
%LPC*%
G36*
X238774Y808359D02*
X238774Y808359D01*
X234106Y810293D01*
X230533Y813866D01*
X228599Y818534D01*
X228599Y823586D01*
X230533Y828254D01*
X234106Y831827D01*
X238774Y833761D01*
X243826Y833761D01*
X248494Y831827D01*
X252067Y828254D01*
X254001Y823586D01*
X254001Y818534D01*
X252067Y813866D01*
X248494Y810293D01*
X243826Y808359D01*
X238774Y808359D01*
G37*
%LPD*%
%LPC*%
G36*
X543624Y520953D02*
X543624Y520953D01*
X539050Y522848D01*
X535548Y526350D01*
X533653Y530924D01*
X533653Y535876D01*
X535548Y540450D01*
X539050Y543952D01*
X543624Y545847D01*
X548576Y545847D01*
X553150Y543952D01*
X556652Y540450D01*
X558547Y535876D01*
X558547Y530924D01*
X556652Y526350D01*
X553150Y522848D01*
X548576Y520953D01*
X543624Y520953D01*
G37*
%LPD*%
%LPC*%
G36*
X772224Y520953D02*
X772224Y520953D01*
X767650Y522848D01*
X764148Y526350D01*
X762253Y530924D01*
X762253Y535876D01*
X764148Y540450D01*
X767650Y543952D01*
X772224Y545847D01*
X777176Y545847D01*
X781750Y543952D01*
X785252Y540450D01*
X787147Y535876D01*
X787147Y530924D01*
X785252Y526350D01*
X781750Y522848D01*
X777176Y520953D01*
X772224Y520953D01*
G37*
%LPD*%
%LPC*%
G36*
X886524Y520953D02*
X886524Y520953D01*
X881950Y522848D01*
X878448Y526350D01*
X876553Y530924D01*
X876553Y535876D01*
X878448Y540450D01*
X881950Y543952D01*
X886524Y545847D01*
X891476Y545847D01*
X896050Y543952D01*
X899552Y540450D01*
X901447Y535876D01*
X901447Y530924D01*
X899552Y526350D01*
X896050Y522848D01*
X891476Y520953D01*
X886524Y520953D01*
G37*
%LPD*%
%LPC*%
G36*
X657924Y520953D02*
X657924Y520953D01*
X653350Y522848D01*
X649848Y526350D01*
X647953Y530924D01*
X647953Y535876D01*
X649848Y540450D01*
X653350Y543952D01*
X657924Y545847D01*
X662876Y545847D01*
X667450Y543952D01*
X670952Y540450D01*
X672847Y535876D01*
X672847Y530924D01*
X670952Y526350D01*
X667450Y522848D01*
X662876Y520953D01*
X657924Y520953D01*
G37*
%LPD*%
%LPC*%
G36*
X340677Y954023D02*
X340677Y954023D01*
X336569Y955725D01*
X333425Y958869D01*
X331723Y962977D01*
X331723Y967423D01*
X333425Y971531D01*
X336569Y974675D01*
X340677Y976377D01*
X345123Y976377D01*
X349231Y974675D01*
X352375Y971531D01*
X354077Y967423D01*
X354077Y962977D01*
X352375Y958869D01*
X349231Y955725D01*
X345123Y954023D01*
X340677Y954023D01*
G37*
%LPD*%
%LPC*%
G36*
X874077Y954023D02*
X874077Y954023D01*
X869969Y955725D01*
X866825Y958869D01*
X865123Y962977D01*
X865123Y967423D01*
X866825Y971531D01*
X869969Y974675D01*
X874077Y976377D01*
X878523Y976377D01*
X882631Y974675D01*
X885775Y971531D01*
X887477Y967423D01*
X887477Y962977D01*
X885775Y958869D01*
X882631Y955725D01*
X878523Y954023D01*
X874077Y954023D01*
G37*
%LPD*%
%LPC*%
G36*
X848677Y954023D02*
X848677Y954023D01*
X844569Y955725D01*
X841425Y958869D01*
X839723Y962977D01*
X839723Y967423D01*
X841425Y971531D01*
X844569Y974675D01*
X848677Y976377D01*
X853123Y976377D01*
X857231Y974675D01*
X860375Y971531D01*
X862077Y967423D01*
X862077Y962977D01*
X860375Y958869D01*
X857231Y955725D01*
X853123Y954023D01*
X848677Y954023D01*
G37*
%LPD*%
%LPC*%
G36*
X823277Y954023D02*
X823277Y954023D01*
X819169Y955725D01*
X816025Y958869D01*
X814323Y962977D01*
X814323Y967423D01*
X816025Y971531D01*
X819169Y974675D01*
X823277Y976377D01*
X827723Y976377D01*
X831831Y974675D01*
X834975Y971531D01*
X836677Y967423D01*
X836677Y962977D01*
X834975Y958869D01*
X831831Y955725D01*
X827723Y954023D01*
X823277Y954023D01*
G37*
%LPD*%
%LPC*%
G36*
X797877Y954023D02*
X797877Y954023D01*
X793769Y955725D01*
X790625Y958869D01*
X788923Y962977D01*
X788923Y967423D01*
X790625Y971531D01*
X793769Y974675D01*
X797877Y976377D01*
X802323Y976377D01*
X806431Y974675D01*
X809575Y971531D01*
X811277Y967423D01*
X811277Y962977D01*
X809575Y958869D01*
X806431Y955725D01*
X802323Y954023D01*
X797877Y954023D01*
G37*
%LPD*%
%LPC*%
G36*
X721677Y954023D02*
X721677Y954023D01*
X717569Y955725D01*
X714425Y958869D01*
X712723Y962977D01*
X712723Y967423D01*
X714425Y971531D01*
X717569Y974675D01*
X721677Y976377D01*
X726123Y976377D01*
X730231Y974675D01*
X733375Y971531D01*
X735077Y967423D01*
X735077Y962977D01*
X733375Y958869D01*
X730231Y955725D01*
X726123Y954023D01*
X721677Y954023D01*
G37*
%LPD*%
%LPC*%
G36*
X696277Y954023D02*
X696277Y954023D01*
X692169Y955725D01*
X689025Y958869D01*
X687323Y962977D01*
X687323Y967423D01*
X689025Y971531D01*
X692169Y974675D01*
X696277Y976377D01*
X700723Y976377D01*
X704831Y974675D01*
X707975Y971531D01*
X709677Y967423D01*
X709677Y962977D01*
X707975Y958869D01*
X704831Y955725D01*
X700723Y954023D01*
X696277Y954023D01*
G37*
%LPD*%
%LPC*%
G36*
X670877Y954023D02*
X670877Y954023D01*
X666769Y955725D01*
X663625Y958869D01*
X661923Y962977D01*
X661923Y967423D01*
X663625Y971531D01*
X666769Y974675D01*
X670877Y976377D01*
X675323Y976377D01*
X679431Y974675D01*
X682575Y971531D01*
X684277Y967423D01*
X684277Y962977D01*
X682575Y958869D01*
X679431Y955725D01*
X675323Y954023D01*
X670877Y954023D01*
G37*
%LPD*%
%LPC*%
G36*
X645477Y954023D02*
X645477Y954023D01*
X641369Y955725D01*
X638225Y958869D01*
X636523Y962977D01*
X636523Y967423D01*
X638225Y971531D01*
X641369Y974675D01*
X645477Y976377D01*
X649923Y976377D01*
X654031Y974675D01*
X657175Y971531D01*
X658877Y967423D01*
X658877Y962977D01*
X657175Y958869D01*
X654031Y955725D01*
X649923Y954023D01*
X645477Y954023D01*
G37*
%LPD*%
%LPC*%
G36*
X569277Y954023D02*
X569277Y954023D01*
X565169Y955725D01*
X562025Y958869D01*
X560323Y962977D01*
X560323Y967423D01*
X562025Y971531D01*
X565169Y974675D01*
X569277Y976377D01*
X573723Y976377D01*
X577831Y974675D01*
X580975Y971531D01*
X582677Y967423D01*
X582677Y962977D01*
X580975Y958869D01*
X577831Y955725D01*
X573723Y954023D01*
X569277Y954023D01*
G37*
%LPD*%
%LPC*%
G36*
X543877Y954023D02*
X543877Y954023D01*
X539769Y955725D01*
X536625Y958869D01*
X534923Y962977D01*
X534923Y967423D01*
X536625Y971531D01*
X539769Y974675D01*
X543877Y976377D01*
X548323Y976377D01*
X552431Y974675D01*
X555575Y971531D01*
X557277Y967423D01*
X557277Y962977D01*
X555575Y958869D01*
X552431Y955725D01*
X548323Y954023D01*
X543877Y954023D01*
G37*
%LPD*%
%LPC*%
G36*
X518477Y954023D02*
X518477Y954023D01*
X514369Y955725D01*
X511225Y958869D01*
X509523Y962977D01*
X509523Y967423D01*
X511225Y971531D01*
X514369Y974675D01*
X518477Y976377D01*
X522923Y976377D01*
X527031Y974675D01*
X530175Y971531D01*
X531877Y967423D01*
X531877Y962977D01*
X530175Y958869D01*
X527031Y955725D01*
X522923Y954023D01*
X518477Y954023D01*
G37*
%LPD*%
%LPC*%
G36*
X493077Y954023D02*
X493077Y954023D01*
X488969Y955725D01*
X485825Y958869D01*
X484123Y962977D01*
X484123Y967423D01*
X485825Y971531D01*
X488969Y974675D01*
X493077Y976377D01*
X497523Y976377D01*
X501631Y974675D01*
X504775Y971531D01*
X506477Y967423D01*
X506477Y962977D01*
X504775Y958869D01*
X501631Y955725D01*
X497523Y954023D01*
X493077Y954023D01*
G37*
%LPD*%
%LPC*%
G36*
X416877Y954023D02*
X416877Y954023D01*
X412769Y955725D01*
X409625Y958869D01*
X407923Y962977D01*
X407923Y967423D01*
X409625Y971531D01*
X412769Y974675D01*
X416877Y976377D01*
X421323Y976377D01*
X425431Y974675D01*
X428575Y971531D01*
X430277Y967423D01*
X430277Y962977D01*
X428575Y958869D01*
X425431Y955725D01*
X421323Y954023D01*
X416877Y954023D01*
G37*
%LPD*%
%LPC*%
G36*
X23177Y776223D02*
X23177Y776223D01*
X19069Y777925D01*
X15925Y781069D01*
X14223Y785177D01*
X14223Y789623D01*
X15925Y793731D01*
X19069Y796875D01*
X23177Y798577D01*
X27623Y798577D01*
X31731Y796875D01*
X34875Y793731D01*
X36577Y789623D01*
X36577Y785177D01*
X34875Y781069D01*
X31731Y777925D01*
X27623Y776223D01*
X23177Y776223D01*
G37*
%LPD*%
%LPC*%
G36*
X23177Y801623D02*
X23177Y801623D01*
X19069Y803325D01*
X15925Y806469D01*
X14223Y810577D01*
X14223Y815023D01*
X15925Y819131D01*
X19069Y822275D01*
X23177Y823977D01*
X27623Y823977D01*
X31731Y822275D01*
X34875Y819131D01*
X36577Y815023D01*
X36577Y810577D01*
X34875Y806469D01*
X31731Y803325D01*
X27623Y801623D01*
X23177Y801623D01*
G37*
%LPD*%
%LPC*%
G36*
X175577Y827023D02*
X175577Y827023D01*
X171469Y828725D01*
X168325Y831869D01*
X166623Y835977D01*
X166623Y840423D01*
X168325Y844531D01*
X171469Y847675D01*
X175577Y849377D01*
X180023Y849377D01*
X184131Y847675D01*
X187275Y844531D01*
X188977Y840423D01*
X188977Y835977D01*
X187275Y831869D01*
X184131Y828725D01*
X180023Y827023D01*
X175577Y827023D01*
G37*
%LPD*%
%LPC*%
G36*
X23177Y827023D02*
X23177Y827023D01*
X19069Y828725D01*
X15925Y831869D01*
X14223Y835977D01*
X14223Y840423D01*
X15925Y844531D01*
X19069Y847675D01*
X23177Y849377D01*
X27623Y849377D01*
X31731Y847675D01*
X34875Y844531D01*
X36577Y840423D01*
X36577Y835977D01*
X34875Y831869D01*
X31731Y828725D01*
X27623Y827023D01*
X23177Y827023D01*
G37*
%LPD*%
%LPC*%
G36*
X391477Y954023D02*
X391477Y954023D01*
X387369Y955725D01*
X384225Y958869D01*
X382523Y962977D01*
X382523Y967423D01*
X384225Y971531D01*
X387369Y974675D01*
X391477Y976377D01*
X395923Y976377D01*
X400031Y974675D01*
X403175Y971531D01*
X404877Y967423D01*
X404877Y962977D01*
X403175Y958869D01*
X400031Y955725D01*
X395923Y954023D01*
X391477Y954023D01*
G37*
%LPD*%
%LPC*%
G36*
X366077Y954023D02*
X366077Y954023D01*
X361969Y955725D01*
X358825Y958869D01*
X357123Y962977D01*
X357123Y967423D01*
X358825Y971531D01*
X361969Y974675D01*
X366077Y976377D01*
X370523Y976377D01*
X374631Y974675D01*
X377775Y971531D01*
X379477Y967423D01*
X379477Y962977D01*
X377775Y958869D01*
X374631Y955725D01*
X370523Y954023D01*
X366077Y954023D01*
G37*
%LPD*%
%LPC*%
G36*
X645592Y649803D02*
X645592Y649803D01*
X641697Y651417D01*
X638717Y654397D01*
X637103Y658292D01*
X637103Y662508D01*
X638717Y666403D01*
X641697Y669383D01*
X645592Y670997D01*
X649808Y670997D01*
X653703Y669383D01*
X656683Y666403D01*
X658297Y662508D01*
X658297Y658292D01*
X656683Y654397D01*
X653703Y651417D01*
X649808Y649803D01*
X645592Y649803D01*
G37*
%LPD*%
%LPC*%
G36*
X289992Y649803D02*
X289992Y649803D01*
X286097Y651417D01*
X283117Y654397D01*
X281503Y658292D01*
X281503Y662508D01*
X283117Y666403D01*
X286097Y669383D01*
X289992Y670997D01*
X294208Y670997D01*
X298103Y669383D01*
X301083Y666403D01*
X302697Y662508D01*
X302697Y658292D01*
X301083Y654397D01*
X298103Y651417D01*
X294208Y649803D01*
X289992Y649803D01*
G37*
%LPD*%
%LPC*%
G36*
X467792Y649803D02*
X467792Y649803D01*
X463897Y651417D01*
X460917Y654397D01*
X459303Y658292D01*
X459303Y662508D01*
X460917Y666403D01*
X463897Y669383D01*
X467792Y670997D01*
X472008Y670997D01*
X475903Y669383D01*
X478883Y666403D01*
X480497Y662508D01*
X480497Y658292D01*
X478883Y654397D01*
X475903Y651417D01*
X472008Y649803D01*
X467792Y649803D01*
G37*
%LPD*%
%LPC*%
G36*
X950392Y624403D02*
X950392Y624403D01*
X946497Y626017D01*
X943517Y628997D01*
X941903Y632892D01*
X941903Y637108D01*
X943517Y641003D01*
X946497Y643983D01*
X950392Y645597D01*
X954608Y645597D01*
X958503Y643983D01*
X961483Y641003D01*
X963097Y637108D01*
X963097Y632892D01*
X961483Y628997D01*
X958503Y626017D01*
X954608Y624403D01*
X950392Y624403D01*
G37*
%LPD*%
%LPC*%
G36*
X645592Y751403D02*
X645592Y751403D01*
X641697Y753017D01*
X638717Y755997D01*
X637103Y759892D01*
X637103Y764108D01*
X638717Y768003D01*
X641697Y770983D01*
X645592Y772597D01*
X649808Y772597D01*
X653703Y770983D01*
X656683Y768003D01*
X658297Y764108D01*
X658297Y759892D01*
X656683Y755997D01*
X653703Y753017D01*
X649808Y751403D01*
X645592Y751403D01*
G37*
%LPD*%
%LPC*%
G36*
X823392Y751403D02*
X823392Y751403D01*
X819497Y753017D01*
X816517Y755997D01*
X814903Y759892D01*
X814903Y764108D01*
X816517Y768003D01*
X819497Y770983D01*
X823392Y772597D01*
X827608Y772597D01*
X831503Y770983D01*
X834483Y768003D01*
X836097Y764108D01*
X836097Y759892D01*
X834483Y755997D01*
X831503Y753017D01*
X827608Y751403D01*
X823392Y751403D01*
G37*
%LPD*%
%LPC*%
G36*
X289992Y751403D02*
X289992Y751403D01*
X286097Y753017D01*
X283117Y755997D01*
X281503Y759892D01*
X281503Y764108D01*
X283117Y768003D01*
X286097Y770983D01*
X289992Y772597D01*
X294208Y772597D01*
X298103Y770983D01*
X301083Y768003D01*
X302697Y764108D01*
X302697Y759892D01*
X301083Y755997D01*
X298103Y753017D01*
X294208Y751403D01*
X289992Y751403D01*
G37*
%LPD*%
%LPC*%
G36*
X467792Y751403D02*
X467792Y751403D01*
X463897Y753017D01*
X460917Y755997D01*
X459303Y759892D01*
X459303Y764108D01*
X460917Y768003D01*
X463897Y770983D01*
X467792Y772597D01*
X472008Y772597D01*
X475903Y770983D01*
X478883Y768003D01*
X480497Y764108D01*
X480497Y759892D01*
X478883Y755997D01*
X475903Y753017D01*
X472008Y751403D01*
X467792Y751403D01*
G37*
%LPD*%
%LPC*%
G36*
X289992Y726003D02*
X289992Y726003D01*
X286097Y727617D01*
X283117Y730597D01*
X281503Y734492D01*
X281503Y738708D01*
X283117Y742603D01*
X286097Y745583D01*
X289992Y747197D01*
X294208Y747197D01*
X298103Y745583D01*
X301083Y742603D01*
X302697Y738708D01*
X302697Y734492D01*
X301083Y730597D01*
X298103Y727617D01*
X294208Y726003D01*
X289992Y726003D01*
G37*
%LPD*%
%LPC*%
G36*
X950392Y726003D02*
X950392Y726003D01*
X946497Y727617D01*
X943517Y730597D01*
X941903Y734492D01*
X941903Y738708D01*
X943517Y742603D01*
X946497Y745583D01*
X950392Y747197D01*
X954608Y747197D01*
X958503Y745583D01*
X961483Y742603D01*
X963097Y738708D01*
X963097Y734492D01*
X961483Y730597D01*
X958503Y727617D01*
X954608Y726003D01*
X950392Y726003D01*
G37*
%LPD*%
%LPC*%
G36*
X467792Y726003D02*
X467792Y726003D01*
X463897Y727617D01*
X460917Y730597D01*
X459303Y734492D01*
X459303Y738708D01*
X460917Y742603D01*
X463897Y745583D01*
X467792Y747197D01*
X472008Y747197D01*
X475903Y745583D01*
X478883Y742603D01*
X480497Y738708D01*
X480497Y734492D01*
X478883Y730597D01*
X475903Y727617D01*
X472008Y726003D01*
X467792Y726003D01*
G37*
%LPD*%
%LPC*%
G36*
X645592Y726003D02*
X645592Y726003D01*
X641697Y727617D01*
X638717Y730597D01*
X637103Y734492D01*
X637103Y738708D01*
X638717Y742603D01*
X641697Y745583D01*
X645592Y747197D01*
X649808Y747197D01*
X653703Y745583D01*
X656683Y742603D01*
X658297Y738708D01*
X658297Y734492D01*
X656683Y730597D01*
X653703Y727617D01*
X649808Y726003D01*
X645592Y726003D01*
G37*
%LPD*%
%LPC*%
G36*
X823392Y726003D02*
X823392Y726003D01*
X819497Y727617D01*
X816517Y730597D01*
X814903Y734492D01*
X814903Y738708D01*
X816517Y742603D01*
X819497Y745583D01*
X823392Y747197D01*
X827608Y747197D01*
X831503Y745583D01*
X834483Y742603D01*
X836097Y738708D01*
X836097Y734492D01*
X834483Y730597D01*
X831503Y727617D01*
X827608Y726003D01*
X823392Y726003D01*
G37*
%LPD*%
%LPC*%
G36*
X289992Y700603D02*
X289992Y700603D01*
X286097Y702217D01*
X283117Y705197D01*
X281503Y709092D01*
X281503Y713308D01*
X283117Y717203D01*
X286097Y720183D01*
X289992Y721797D01*
X294208Y721797D01*
X298103Y720183D01*
X301083Y717203D01*
X302697Y713308D01*
X302697Y709092D01*
X301083Y705197D01*
X298103Y702217D01*
X294208Y700603D01*
X289992Y700603D01*
G37*
%LPD*%
%LPC*%
G36*
X467792Y700603D02*
X467792Y700603D01*
X463897Y702217D01*
X460917Y705197D01*
X459303Y709092D01*
X459303Y713308D01*
X460917Y717203D01*
X463897Y720183D01*
X467792Y721797D01*
X472008Y721797D01*
X475903Y720183D01*
X478883Y717203D01*
X480497Y713308D01*
X480497Y709092D01*
X478883Y705197D01*
X475903Y702217D01*
X472008Y700603D01*
X467792Y700603D01*
G37*
%LPD*%
%LPC*%
G36*
X645592Y700603D02*
X645592Y700603D01*
X641697Y702217D01*
X638717Y705197D01*
X637103Y709092D01*
X637103Y713308D01*
X638717Y717203D01*
X641697Y720183D01*
X645592Y721797D01*
X649808Y721797D01*
X653703Y720183D01*
X656683Y717203D01*
X658297Y713308D01*
X658297Y709092D01*
X656683Y705197D01*
X653703Y702217D01*
X649808Y700603D01*
X645592Y700603D01*
G37*
%LPD*%
%LPC*%
G36*
X823392Y700603D02*
X823392Y700603D01*
X819497Y702217D01*
X816517Y705197D01*
X814903Y709092D01*
X814903Y713308D01*
X816517Y717203D01*
X819497Y720183D01*
X823392Y721797D01*
X827608Y721797D01*
X831503Y720183D01*
X834483Y717203D01*
X836097Y713308D01*
X836097Y709092D01*
X834483Y705197D01*
X831503Y702217D01*
X827608Y700603D01*
X823392Y700603D01*
G37*
%LPD*%
%LPC*%
G36*
X950392Y700603D02*
X950392Y700603D01*
X946497Y702217D01*
X943517Y705197D01*
X941903Y709092D01*
X941903Y713308D01*
X943517Y717203D01*
X946497Y720183D01*
X950392Y721797D01*
X954608Y721797D01*
X958503Y720183D01*
X961483Y717203D01*
X963097Y713308D01*
X963097Y709092D01*
X961483Y705197D01*
X958503Y702217D01*
X954608Y700603D01*
X950392Y700603D01*
G37*
%LPD*%
%LPC*%
G36*
X467792Y675203D02*
X467792Y675203D01*
X463897Y676817D01*
X460917Y679797D01*
X459303Y683692D01*
X459303Y687908D01*
X460917Y691803D01*
X463897Y694783D01*
X467792Y696397D01*
X472008Y696397D01*
X475903Y694783D01*
X478883Y691803D01*
X480497Y687908D01*
X480497Y683692D01*
X478883Y679797D01*
X475903Y676817D01*
X472008Y675203D01*
X467792Y675203D01*
G37*
%LPD*%
%LPC*%
G36*
X823392Y675203D02*
X823392Y675203D01*
X819497Y676817D01*
X816517Y679797D01*
X814903Y683692D01*
X814903Y687908D01*
X816517Y691803D01*
X819497Y694783D01*
X823392Y696397D01*
X827608Y696397D01*
X831503Y694783D01*
X834483Y691803D01*
X836097Y687908D01*
X836097Y683692D01*
X834483Y679797D01*
X831503Y676817D01*
X827608Y675203D01*
X823392Y675203D01*
G37*
%LPD*%
%LPC*%
G36*
X950392Y675203D02*
X950392Y675203D01*
X946497Y676817D01*
X943517Y679797D01*
X941903Y683692D01*
X941903Y687908D01*
X943517Y691803D01*
X946497Y694783D01*
X950392Y696397D01*
X954608Y696397D01*
X958503Y694783D01*
X961483Y691803D01*
X963097Y687908D01*
X963097Y683692D01*
X961483Y679797D01*
X958503Y676817D01*
X954608Y675203D01*
X950392Y675203D01*
G37*
%LPD*%
%LPC*%
G36*
X645592Y675203D02*
X645592Y675203D01*
X641697Y676817D01*
X638717Y679797D01*
X637103Y683692D01*
X637103Y687908D01*
X638717Y691803D01*
X641697Y694783D01*
X645592Y696397D01*
X649808Y696397D01*
X653703Y694783D01*
X656683Y691803D01*
X658297Y687908D01*
X658297Y683692D01*
X656683Y679797D01*
X653703Y676817D01*
X649808Y675203D01*
X645592Y675203D01*
G37*
%LPD*%
%LPC*%
G36*
X289992Y675203D02*
X289992Y675203D01*
X286097Y676817D01*
X283117Y679797D01*
X281503Y683692D01*
X281503Y687908D01*
X283117Y691803D01*
X286097Y694783D01*
X289992Y696397D01*
X294208Y696397D01*
X298103Y694783D01*
X301083Y691803D01*
X302697Y687908D01*
X302697Y683692D01*
X301083Y679797D01*
X298103Y676817D01*
X294208Y675203D01*
X289992Y675203D01*
G37*
%LPD*%
%LPC*%
G36*
X950392Y649803D02*
X950392Y649803D01*
X946497Y651417D01*
X943517Y654397D01*
X941903Y658292D01*
X941903Y662508D01*
X943517Y666403D01*
X946497Y669383D01*
X950392Y670997D01*
X954608Y670997D01*
X958503Y669383D01*
X961483Y666403D01*
X963097Y662508D01*
X963097Y658292D01*
X961483Y654397D01*
X958503Y651417D01*
X954608Y649803D01*
X950392Y649803D01*
G37*
%LPD*%
%LPC*%
G36*
X823392Y649803D02*
X823392Y649803D01*
X819497Y651417D01*
X816517Y654397D01*
X814903Y658292D01*
X814903Y662508D01*
X816517Y666403D01*
X819497Y669383D01*
X823392Y670997D01*
X827608Y670997D01*
X831503Y669383D01*
X834483Y666403D01*
X836097Y662508D01*
X836097Y658292D01*
X834483Y654397D01*
X831503Y651417D01*
X827608Y649803D01*
X823392Y649803D01*
G37*
%LPD*%
%LPC*%
G36*
X35089Y949705D02*
X35089Y949705D01*
X35089Y970141D01*
X36428Y969990D01*
X38959Y969412D01*
X41410Y968555D01*
X43749Y967428D01*
X45947Y966047D01*
X47977Y964429D01*
X49813Y962593D01*
X51431Y960563D01*
X52812Y958365D01*
X53939Y956026D01*
X54796Y953575D01*
X55374Y951044D01*
X55525Y949705D01*
X35089Y949705D01*
G37*
%LPD*%
%LPC*%
G36*
X9575Y949705D02*
X9575Y949705D01*
X9726Y951044D01*
X10304Y953575D01*
X11161Y956026D01*
X12288Y958365D01*
X12773Y959138D01*
X13571Y960407D01*
X13669Y960563D01*
X15287Y962593D01*
X17123Y964429D01*
X19153Y966047D01*
X21351Y967428D01*
X23690Y968555D01*
X26141Y969412D01*
X28672Y969990D01*
X30011Y970141D01*
X30011Y949705D01*
X9575Y949705D01*
G37*
%LPD*%
%LPC*%
G36*
X35089Y944627D02*
X35089Y944627D01*
X55525Y944627D01*
X55374Y943288D01*
X54796Y940757D01*
X53939Y938306D01*
X52812Y935967D01*
X51431Y933769D01*
X49813Y931739D01*
X47977Y929903D01*
X45947Y928285D01*
X43749Y926904D01*
X41410Y925777D01*
X38959Y924920D01*
X36428Y924342D01*
X35089Y924191D01*
X35089Y944627D01*
G37*
%LPD*%
%LPC*%
G36*
X51005Y912343D02*
X51005Y912343D01*
X51156Y913682D01*
X51734Y916213D01*
X52591Y918664D01*
X53718Y921003D01*
X55099Y923201D01*
X56717Y925231D01*
X58553Y927067D01*
X60583Y928685D01*
X62781Y930066D01*
X65120Y931193D01*
X67571Y932050D01*
X70102Y932628D01*
X71441Y932779D01*
X71441Y912343D01*
X51005Y912343D01*
G37*
%LPD*%
%LPC*%
G36*
X76519Y907265D02*
X76519Y907265D01*
X96955Y907265D01*
X96804Y905926D01*
X96226Y903395D01*
X95369Y900944D01*
X94242Y898605D01*
X94054Y898306D01*
X93257Y897037D01*
X93257Y897036D01*
X92861Y896407D01*
X91243Y894377D01*
X89407Y892541D01*
X87377Y890923D01*
X85179Y889542D01*
X82840Y888415D01*
X80389Y887558D01*
X77858Y886980D01*
X76519Y886829D01*
X76519Y907265D01*
G37*
%LPD*%
%LPC*%
G36*
X28672Y924342D02*
X28672Y924342D01*
X26141Y924920D01*
X23690Y925777D01*
X21351Y926904D01*
X19153Y928285D01*
X17123Y929903D01*
X15287Y931739D01*
X13669Y933769D01*
X12288Y935967D01*
X11161Y938306D01*
X10304Y940757D01*
X9726Y943288D01*
X9575Y944627D01*
X30011Y944627D01*
X30011Y924191D01*
X28672Y924342D01*
G37*
%LPD*%
%LPC*%
G36*
X70102Y886980D02*
X70102Y886980D01*
X67571Y887558D01*
X65120Y888415D01*
X62781Y889542D01*
X60583Y890923D01*
X58553Y892541D01*
X56717Y894377D01*
X55099Y896407D01*
X53718Y898605D01*
X52591Y900944D01*
X51734Y903395D01*
X51156Y905926D01*
X51005Y907265D01*
X71441Y907265D01*
X71441Y886829D01*
X70102Y886980D01*
G37*
%LPD*%
%LPC*%
G36*
X168909Y944879D02*
X168909Y944879D01*
X168909Y953009D01*
X175338Y953009D01*
X176996Y952746D01*
X178593Y952227D01*
X180090Y951465D01*
X181448Y950478D01*
X182636Y949290D01*
X183623Y947932D01*
X184385Y946435D01*
X184891Y944879D01*
X168909Y944879D01*
G37*
%LPD*%
%LPC*%
G36*
X147849Y944879D02*
X147849Y944879D01*
X148355Y946435D01*
X149117Y947932D01*
X150104Y949290D01*
X151292Y950478D01*
X152650Y951465D01*
X154147Y952227D01*
X155744Y952746D01*
X157402Y953009D01*
X163831Y953009D01*
X163831Y944879D01*
X147849Y944879D01*
G37*
%LPD*%
%LPC*%
G36*
X700749Y535649D02*
X700749Y535649D01*
X700749Y545131D01*
X701296Y545045D01*
X703083Y544464D01*
X704757Y543611D01*
X706278Y542506D01*
X707606Y541178D01*
X708711Y539657D01*
X709564Y537983D01*
X710145Y536196D01*
X710231Y535649D01*
X700749Y535649D01*
G37*
%LPD*%
%LPC*%
G36*
X815049Y535649D02*
X815049Y535649D01*
X815049Y545131D01*
X815596Y545045D01*
X817383Y544464D01*
X819057Y543611D01*
X820578Y542506D01*
X821906Y541178D01*
X823011Y539657D01*
X823864Y537983D01*
X824445Y536196D01*
X824531Y535649D01*
X815049Y535649D01*
G37*
%LPD*%
%LPC*%
G36*
X472149Y535649D02*
X472149Y535649D01*
X472149Y545131D01*
X472696Y545045D01*
X474483Y544464D01*
X476157Y543611D01*
X477678Y542506D01*
X479006Y541178D01*
X480111Y539657D01*
X480964Y537983D01*
X481545Y536196D01*
X481631Y535649D01*
X472149Y535649D01*
G37*
%LPD*%
%LPC*%
G36*
X586449Y535649D02*
X586449Y535649D01*
X586449Y545131D01*
X586996Y545045D01*
X588783Y544464D01*
X590457Y543611D01*
X591978Y542506D01*
X593306Y541178D01*
X594411Y539657D01*
X595264Y537983D01*
X595845Y536196D01*
X595931Y535649D01*
X586449Y535649D01*
G37*
%LPD*%
%LPC*%
G36*
X801069Y535649D02*
X801069Y535649D01*
X801155Y536196D01*
X801736Y537983D01*
X802589Y539657D01*
X803694Y541178D01*
X805022Y542506D01*
X806543Y543611D01*
X808217Y544464D01*
X810004Y545045D01*
X810551Y545131D01*
X810551Y535649D01*
X801069Y535649D01*
G37*
%LPD*%
%LPC*%
G36*
X458169Y535649D02*
X458169Y535649D01*
X458255Y536196D01*
X458836Y537983D01*
X459689Y539657D01*
X460794Y541178D01*
X462122Y542506D01*
X463643Y543611D01*
X465317Y544464D01*
X467104Y545045D01*
X467651Y545131D01*
X467651Y535649D01*
X458169Y535649D01*
G37*
%LPD*%
%LPC*%
G36*
X815049Y531151D02*
X815049Y531151D01*
X824531Y531151D01*
X824445Y530604D01*
X823864Y528817D01*
X823011Y527143D01*
X821906Y525622D01*
X820578Y524294D01*
X819057Y523189D01*
X817383Y522336D01*
X815596Y521755D01*
X815049Y521669D01*
X815049Y531151D01*
G37*
%LPD*%
%LPC*%
G36*
X700749Y531151D02*
X700749Y531151D01*
X710231Y531151D01*
X710145Y530604D01*
X709564Y528817D01*
X708711Y527143D01*
X707606Y525622D01*
X706278Y524294D01*
X704757Y523189D01*
X703083Y522336D01*
X701296Y521755D01*
X700749Y521669D01*
X700749Y531151D01*
G37*
%LPD*%
%LPC*%
G36*
X586449Y531151D02*
X586449Y531151D01*
X595931Y531151D01*
X595845Y530604D01*
X595264Y528817D01*
X594411Y527143D01*
X593306Y525622D01*
X591978Y524294D01*
X590457Y523189D01*
X588783Y522336D01*
X586996Y521755D01*
X586449Y521669D01*
X586449Y531151D01*
G37*
%LPD*%
%LPC*%
G36*
X472149Y531151D02*
X472149Y531151D01*
X481631Y531151D01*
X481545Y530604D01*
X480964Y528817D01*
X480111Y527143D01*
X479006Y525622D01*
X477678Y524294D01*
X476157Y523189D01*
X474483Y522336D01*
X472696Y521755D01*
X472149Y521669D01*
X472149Y531151D01*
G37*
%LPD*%
%LPC*%
G36*
X572469Y535649D02*
X572469Y535649D01*
X572555Y536196D01*
X573136Y537983D01*
X573989Y539657D01*
X575094Y541178D01*
X576422Y542506D01*
X577943Y543611D01*
X579617Y544464D01*
X581404Y545045D01*
X581951Y545131D01*
X581951Y535649D01*
X572469Y535649D01*
G37*
%LPD*%
%LPC*%
G36*
X686769Y535649D02*
X686769Y535649D01*
X686855Y536196D01*
X687436Y537983D01*
X688289Y539657D01*
X689394Y541178D01*
X690722Y542506D01*
X692243Y543611D01*
X693917Y544464D01*
X695704Y545045D01*
X696251Y545131D01*
X696251Y535649D01*
X686769Y535649D01*
G37*
%LPD*%
%LPC*%
G36*
X581404Y521755D02*
X581404Y521755D01*
X579617Y522336D01*
X577943Y523189D01*
X576422Y524294D01*
X575094Y525622D01*
X573989Y527143D01*
X573136Y528817D01*
X572555Y530604D01*
X572469Y531151D01*
X581951Y531151D01*
X581951Y521669D01*
X581404Y521755D01*
G37*
%LPD*%
%LPC*%
G36*
X467104Y521755D02*
X467104Y521755D01*
X465317Y522336D01*
X463643Y523189D01*
X462122Y524294D01*
X460794Y525622D01*
X459689Y527143D01*
X458836Y528817D01*
X458255Y530604D01*
X458169Y531151D01*
X467651Y531151D01*
X467651Y521669D01*
X467104Y521755D01*
G37*
%LPD*%
%LPC*%
G36*
X695704Y521755D02*
X695704Y521755D01*
X693917Y522336D01*
X692243Y523189D01*
X690722Y524294D01*
X689394Y525622D01*
X688289Y527143D01*
X687436Y528817D01*
X686855Y530604D01*
X686769Y531151D01*
X696251Y531151D01*
X696251Y521669D01*
X695704Y521755D01*
G37*
%LPD*%
%LPC*%
G36*
X810004Y521755D02*
X810004Y521755D01*
X808217Y522336D01*
X806543Y523189D01*
X805022Y524294D01*
X803694Y525622D01*
X802589Y527143D01*
X801736Y528817D01*
X801155Y530604D01*
X801069Y531151D01*
X810551Y531151D01*
X810551Y521669D01*
X810004Y521755D01*
G37*
%LPD*%
%LPC*%
G36*
X598449Y852649D02*
X598449Y852649D01*
X598449Y861553D01*
X599228Y861430D01*
X600844Y860905D01*
X602358Y860133D01*
X603733Y859135D01*
X604935Y857933D01*
X605933Y856558D01*
X606705Y855044D01*
X607230Y853428D01*
X607353Y852649D01*
X598449Y852649D01*
G37*
%LPD*%
%LPC*%
G36*
X954049Y852649D02*
X954049Y852649D01*
X954049Y861553D01*
X954828Y861430D01*
X956444Y860905D01*
X957958Y860133D01*
X959333Y859135D01*
X960535Y857933D01*
X961533Y856558D01*
X962305Y855044D01*
X962830Y853428D01*
X962953Y852649D01*
X954049Y852649D01*
G37*
%LPD*%
%LPC*%
G36*
X420649Y852649D02*
X420649Y852649D01*
X420649Y861553D01*
X421428Y861430D01*
X423044Y860905D01*
X424558Y860133D01*
X425933Y859135D01*
X427135Y857933D01*
X428133Y856558D01*
X428905Y855044D01*
X429430Y853428D01*
X429553Y852649D01*
X420649Y852649D01*
G37*
%LPD*%
%LPC*%
G36*
X776249Y852649D02*
X776249Y852649D01*
X776249Y861553D01*
X777028Y861430D01*
X778644Y860905D01*
X780158Y860133D01*
X781533Y859135D01*
X782735Y857933D01*
X783733Y856558D01*
X784505Y855044D01*
X785030Y853428D01*
X785153Y852649D01*
X776249Y852649D01*
G37*
%LPD*%
%LPC*%
G36*
X408247Y852649D02*
X408247Y852649D01*
X408370Y853428D01*
X408895Y855044D01*
X409667Y856558D01*
X410665Y857933D01*
X411867Y859135D01*
X413242Y860133D01*
X414756Y860905D01*
X416372Y861430D01*
X417151Y861553D01*
X417151Y852649D01*
X408247Y852649D01*
G37*
%LPD*%
%LPC*%
G36*
X586047Y852649D02*
X586047Y852649D01*
X586170Y853428D01*
X586695Y855044D01*
X587467Y856558D01*
X588465Y857933D01*
X589667Y859135D01*
X591042Y860133D01*
X592556Y860905D01*
X594172Y861430D01*
X594951Y861553D01*
X594951Y852649D01*
X586047Y852649D01*
G37*
%LPD*%
%LPC*%
G36*
X763847Y852649D02*
X763847Y852649D01*
X763970Y853428D01*
X764495Y855044D01*
X765267Y856558D01*
X766265Y857933D01*
X767467Y859135D01*
X768842Y860133D01*
X770356Y860905D01*
X771972Y861430D01*
X772751Y861553D01*
X772751Y852649D01*
X763847Y852649D01*
G37*
%LPD*%
%LPC*%
G36*
X941647Y852649D02*
X941647Y852649D01*
X941770Y853428D01*
X942295Y855044D01*
X943067Y856558D01*
X944065Y857933D01*
X945267Y859135D01*
X946642Y860133D01*
X948156Y860905D01*
X949772Y861430D01*
X950551Y861553D01*
X950551Y852649D01*
X941647Y852649D01*
G37*
%LPD*%
%LPC*%
G36*
X954049Y849151D02*
X954049Y849151D01*
X962953Y849151D01*
X962830Y848372D01*
X962305Y846756D01*
X961533Y845242D01*
X960535Y843867D01*
X959333Y842665D01*
X957958Y841667D01*
X956444Y840895D01*
X954828Y840370D01*
X954049Y840247D01*
X954049Y849151D01*
G37*
%LPD*%
%LPC*%
G36*
X776249Y849151D02*
X776249Y849151D01*
X785153Y849151D01*
X785030Y848372D01*
X784505Y846756D01*
X783733Y845242D01*
X782735Y843867D01*
X781533Y842665D01*
X780158Y841667D01*
X778644Y840895D01*
X777028Y840370D01*
X776249Y840247D01*
X776249Y849151D01*
G37*
%LPD*%
%LPC*%
G36*
X598449Y849151D02*
X598449Y849151D01*
X607353Y849151D01*
X607230Y848372D01*
X606705Y846756D01*
X605933Y845242D01*
X604935Y843867D01*
X603733Y842665D01*
X602358Y841667D01*
X600844Y840895D01*
X599228Y840370D01*
X598449Y840247D01*
X598449Y849151D01*
G37*
%LPD*%
%LPC*%
G36*
X420649Y849151D02*
X420649Y849151D01*
X429553Y849151D01*
X429430Y848372D01*
X428905Y846756D01*
X428133Y845242D01*
X427135Y843867D01*
X425933Y842665D01*
X424558Y841667D01*
X423044Y840895D01*
X421428Y840370D01*
X420649Y840247D01*
X420649Y849151D01*
G37*
%LPD*%
%LPC*%
G36*
X949772Y840370D02*
X949772Y840370D01*
X948156Y840895D01*
X946642Y841667D01*
X945267Y842665D01*
X944065Y843867D01*
X943067Y845242D01*
X942295Y846756D01*
X941770Y848372D01*
X941647Y849151D01*
X950551Y849151D01*
X950551Y840247D01*
X949772Y840370D01*
G37*
%LPD*%
%LPC*%
G36*
X416372Y840370D02*
X416372Y840370D01*
X414756Y840895D01*
X413242Y841667D01*
X411867Y842665D01*
X410665Y843867D01*
X409667Y845242D01*
X408895Y846756D01*
X408370Y848372D01*
X408247Y849151D01*
X417151Y849151D01*
X417151Y840247D01*
X416372Y840370D01*
G37*
%LPD*%
%LPC*%
G36*
X771972Y840370D02*
X771972Y840370D01*
X770356Y840895D01*
X768842Y841667D01*
X767467Y842665D01*
X766265Y843867D01*
X765267Y845242D01*
X764495Y846756D01*
X763970Y848372D01*
X763847Y849151D01*
X772751Y849151D01*
X772751Y840247D01*
X771972Y840370D01*
G37*
%LPD*%
%LPC*%
G36*
X594172Y840370D02*
X594172Y840370D01*
X592556Y840895D01*
X591042Y841667D01*
X589667Y842665D01*
X588465Y843867D01*
X587467Y845242D01*
X586695Y846756D01*
X586170Y848372D01*
X586047Y849151D01*
X594951Y849151D01*
X594951Y840247D01*
X594172Y840370D01*
G37*
%LPD*%
%LPC*%
G36*
X27939Y764539D02*
X27939Y764539D01*
X27939Y772393D01*
X29495Y771887D01*
X30992Y771125D01*
X32350Y770138D01*
X33538Y768950D01*
X34525Y767592D01*
X35287Y766095D01*
X35793Y764539D01*
X27939Y764539D01*
G37*
%LPD*%
%LPC*%
G36*
X180339Y815339D02*
X180339Y815339D01*
X180339Y823193D01*
X181895Y822687D01*
X183392Y821925D01*
X184750Y820938D01*
X185938Y819750D01*
X186925Y818392D01*
X187687Y816895D01*
X188193Y815339D01*
X180339Y815339D01*
G37*
%LPD*%
%LPC*%
G36*
X15007Y764539D02*
X15007Y764539D01*
X15513Y766095D01*
X16275Y767592D01*
X17262Y768950D01*
X18450Y770138D01*
X19808Y771125D01*
X21305Y771887D01*
X22861Y772393D01*
X22861Y764539D01*
X15007Y764539D01*
G37*
%LPD*%
%LPC*%
G36*
X27939Y759461D02*
X27939Y759461D01*
X35793Y759461D01*
X35287Y757905D01*
X34525Y756408D01*
X33538Y755050D01*
X32350Y753862D01*
X30992Y752875D01*
X29495Y752113D01*
X27939Y751607D01*
X27939Y759461D01*
G37*
%LPD*%
%LPC*%
G36*
X167407Y815339D02*
X167407Y815339D01*
X167913Y816895D01*
X168675Y818392D01*
X169662Y819750D01*
X170850Y820938D01*
X172208Y821925D01*
X173705Y822687D01*
X175261Y823193D01*
X175261Y815339D01*
X167407Y815339D01*
G37*
%LPD*%
%LPC*%
G36*
X180339Y810261D02*
X180339Y810261D01*
X188193Y810261D01*
X187687Y808705D01*
X186925Y807208D01*
X185938Y805850D01*
X184750Y804662D01*
X183392Y803675D01*
X181895Y802913D01*
X180339Y802407D01*
X180339Y810261D01*
G37*
%LPD*%
%LPC*%
G36*
X383539Y467361D02*
X383539Y467361D01*
X391393Y467361D01*
X390887Y465805D01*
X390125Y464308D01*
X389138Y462950D01*
X387950Y461762D01*
X386592Y460775D01*
X385095Y460013D01*
X383539Y459507D01*
X383539Y467361D01*
G37*
%LPD*%
%LPC*%
G36*
X376905Y460013D02*
X376905Y460013D01*
X375408Y460775D01*
X374050Y461762D01*
X372862Y462950D01*
X371875Y464308D01*
X371113Y465805D01*
X370607Y467361D01*
X378461Y467361D01*
X378461Y459507D01*
X376905Y460013D01*
G37*
%LPD*%
%LPC*%
G36*
X173705Y802913D02*
X173705Y802913D01*
X172208Y803675D01*
X170850Y804662D01*
X169662Y805850D01*
X168675Y807208D01*
X167913Y808705D01*
X167407Y810261D01*
X175261Y810261D01*
X175261Y802407D01*
X173705Y802913D01*
G37*
%LPD*%
%LPC*%
G36*
X21305Y752113D02*
X21305Y752113D01*
X19808Y752875D01*
X18450Y753862D01*
X17262Y755050D01*
X16275Y756408D01*
X15513Y757905D01*
X15007Y759461D01*
X22861Y759461D01*
X22861Y751607D01*
X21305Y752113D01*
G37*
%LPD*%
%LPC*%
G36*
X954749Y764249D02*
X954749Y764249D01*
X954749Y771858D01*
X954862Y771840D01*
X956373Y771350D01*
X957788Y770629D01*
X959072Y769695D01*
X960195Y768572D01*
X961129Y767288D01*
X961850Y765873D01*
X962340Y764362D01*
X962358Y764249D01*
X954749Y764249D01*
G37*
%LPD*%
%LPC*%
G36*
X954749Y611849D02*
X954749Y611849D01*
X954749Y619458D01*
X954862Y619440D01*
X956373Y618950D01*
X957788Y618229D01*
X959072Y617295D01*
X960195Y616172D01*
X961129Y614888D01*
X961850Y613473D01*
X962340Y611962D01*
X962358Y611849D01*
X954749Y611849D01*
G37*
%LPD*%
%LPC*%
G36*
X409242Y611849D02*
X409242Y611849D01*
X409260Y611962D01*
X409750Y613473D01*
X410471Y614888D01*
X411405Y616172D01*
X412528Y617295D01*
X413812Y618229D01*
X415227Y618950D01*
X416738Y619440D01*
X416851Y619458D01*
X416851Y611849D01*
X409242Y611849D01*
G37*
%LPD*%
%LPC*%
G36*
X409242Y764249D02*
X409242Y764249D01*
X409260Y764362D01*
X409750Y765873D01*
X410471Y767288D01*
X411405Y768572D01*
X412528Y769695D01*
X413812Y770629D01*
X415227Y771350D01*
X416738Y771840D01*
X416851Y771858D01*
X416851Y764249D01*
X409242Y764249D01*
G37*
%LPD*%
%LPC*%
G36*
X764842Y611849D02*
X764842Y611849D01*
X764860Y611962D01*
X765350Y613473D01*
X766071Y614888D01*
X767005Y616172D01*
X768128Y617295D01*
X769412Y618229D01*
X770827Y618950D01*
X772338Y619440D01*
X772451Y619458D01*
X772451Y611849D01*
X764842Y611849D01*
G37*
%LPD*%
%LPC*%
G36*
X587042Y611849D02*
X587042Y611849D01*
X587060Y611962D01*
X587550Y613473D01*
X588271Y614888D01*
X589205Y616172D01*
X590328Y617295D01*
X591612Y618229D01*
X593027Y618950D01*
X594538Y619440D01*
X594651Y619458D01*
X594651Y611849D01*
X587042Y611849D01*
G37*
%LPD*%
%LPC*%
G36*
X954749Y759751D02*
X954749Y759751D01*
X962358Y759751D01*
X962340Y759638D01*
X961850Y758127D01*
X961129Y756712D01*
X960195Y755428D01*
X959072Y754305D01*
X957788Y753371D01*
X956373Y752650D01*
X954862Y752160D01*
X954749Y752142D01*
X954749Y759751D01*
G37*
%LPD*%
%LPC*%
G36*
X954749Y607351D02*
X954749Y607351D01*
X962358Y607351D01*
X962340Y607238D01*
X961850Y605727D01*
X961129Y604312D01*
X960195Y603028D01*
X959072Y601905D01*
X957788Y600971D01*
X956373Y600250D01*
X954862Y599760D01*
X954749Y599742D01*
X954749Y607351D01*
G37*
%LPD*%
%LPC*%
G36*
X942642Y611849D02*
X942642Y611849D01*
X942660Y611962D01*
X943150Y613473D01*
X943871Y614888D01*
X944805Y616172D01*
X945928Y617295D01*
X947212Y618229D01*
X948627Y618950D01*
X950138Y619440D01*
X950251Y619458D01*
X950251Y611849D01*
X942642Y611849D01*
G37*
%LPD*%
%LPC*%
G36*
X764842Y764249D02*
X764842Y764249D01*
X764860Y764362D01*
X765350Y765873D01*
X766071Y767288D01*
X767005Y768572D01*
X768128Y769695D01*
X769412Y770629D01*
X770827Y771350D01*
X772338Y771840D01*
X772451Y771858D01*
X772451Y764249D01*
X764842Y764249D01*
G37*
%LPD*%
%LPC*%
G36*
X587042Y764249D02*
X587042Y764249D01*
X587060Y764362D01*
X587550Y765873D01*
X588271Y767288D01*
X589205Y768572D01*
X590328Y769695D01*
X591612Y770629D01*
X593027Y771350D01*
X594538Y771840D01*
X594651Y771858D01*
X594651Y764249D01*
X587042Y764249D01*
G37*
%LPD*%
%LPC*%
G36*
X942642Y764249D02*
X942642Y764249D01*
X942660Y764362D01*
X943150Y765873D01*
X943871Y767288D01*
X944805Y768572D01*
X945928Y769695D01*
X947212Y770629D01*
X948627Y771350D01*
X950138Y771840D01*
X950251Y771858D01*
X950251Y764249D01*
X942642Y764249D01*
G37*
%LPD*%
%LPC*%
G36*
X416738Y752160D02*
X416738Y752160D01*
X415227Y752650D01*
X413812Y753371D01*
X412528Y754305D01*
X411405Y755428D01*
X410471Y756712D01*
X409750Y758127D01*
X409260Y759638D01*
X409242Y759751D01*
X416851Y759751D01*
X416851Y752142D01*
X416738Y752160D01*
G37*
%LPD*%
%LPC*%
G36*
X594538Y599760D02*
X594538Y599760D01*
X593027Y600250D01*
X591612Y600971D01*
X590328Y601905D01*
X589205Y603028D01*
X588271Y604312D01*
X587550Y605727D01*
X587060Y607238D01*
X587042Y607351D01*
X594651Y607351D01*
X594651Y599742D01*
X594538Y599760D01*
G37*
%LPD*%
%LPC*%
G36*
X772338Y599760D02*
X772338Y599760D01*
X770827Y600250D01*
X769412Y600971D01*
X768128Y601905D01*
X767005Y603028D01*
X766071Y604312D01*
X765350Y605727D01*
X764860Y607238D01*
X764842Y607351D01*
X772451Y607351D01*
X772451Y599742D01*
X772338Y599760D01*
G37*
%LPD*%
%LPC*%
G36*
X950138Y752160D02*
X950138Y752160D01*
X948627Y752650D01*
X947212Y753371D01*
X945928Y754305D01*
X944805Y755428D01*
X943871Y756712D01*
X943150Y758127D01*
X942660Y759638D01*
X942642Y759751D01*
X950251Y759751D01*
X950251Y752142D01*
X950138Y752160D01*
G37*
%LPD*%
%LPC*%
G36*
X950138Y599760D02*
X950138Y599760D01*
X948627Y600250D01*
X947212Y600971D01*
X945928Y601905D01*
X944805Y603028D01*
X943871Y604312D01*
X943150Y605727D01*
X942660Y607238D01*
X942642Y607351D01*
X950251Y607351D01*
X950251Y599742D01*
X950138Y599760D01*
G37*
%LPD*%
%LPC*%
G36*
X772338Y752160D02*
X772338Y752160D01*
X770827Y752650D01*
X769412Y753371D01*
X768128Y754305D01*
X767005Y755428D01*
X766071Y756712D01*
X765350Y758127D01*
X764860Y759638D01*
X764842Y759751D01*
X772451Y759751D01*
X772451Y752142D01*
X772338Y752160D01*
G37*
%LPD*%
%LPC*%
G36*
X416738Y599760D02*
X416738Y599760D01*
X415227Y600250D01*
X413812Y600971D01*
X412528Y601905D01*
X411405Y603028D01*
X410471Y604312D01*
X409750Y605727D01*
X409260Y607238D01*
X409242Y607351D01*
X416851Y607351D01*
X416851Y599742D01*
X416738Y599760D01*
G37*
%LPD*%
%LPC*%
G36*
X594538Y752160D02*
X594538Y752160D01*
X593027Y752650D01*
X591612Y753371D01*
X590328Y754305D01*
X589205Y755428D01*
X588271Y756712D01*
X587550Y758127D01*
X587060Y759638D01*
X587042Y759751D01*
X594651Y759751D01*
X594651Y752142D01*
X594538Y752160D01*
G37*
%LPD*%
%LPC*%
G36*
X32549Y947165D02*
X32549Y947165D01*
X32549Y947167D01*
X32551Y947167D01*
X32551Y947165D01*
X32549Y947165D01*
G37*
%LPD*%
%LPC*%
G36*
X73979Y909803D02*
X73979Y909803D01*
X73979Y909805D01*
X73981Y909805D01*
X73981Y909803D01*
X73979Y909803D01*
G37*
%LPD*%
%LPC*%
G36*
X177799Y812799D02*
X177799Y812799D01*
X177799Y812801D01*
X177801Y812801D01*
X177801Y812799D01*
X177799Y812799D01*
G37*
%LPD*%
%LPC*%
G36*
X25399Y761999D02*
X25399Y761999D01*
X25399Y762001D01*
X25401Y762001D01*
X25401Y761999D01*
X25399Y761999D01*
G37*
%LPD*%
D10*
X418900Y850900D03*
D11*
X393900Y850900D03*
D10*
X596700Y850900D03*
D11*
X571700Y850900D03*
D10*
X774500Y850900D03*
D11*
X749500Y850900D03*
D10*
X952300Y850900D03*
D11*
X927300Y850900D03*
D12*
X241300Y821060D03*
X241300Y901060D03*
D13*
X174498Y916940D02*
X158242Y916940D01*
X158242Y942340D02*
X174498Y942340D01*
X174498Y967740D02*
X158242Y967740D01*
D14*
X105758Y947420D03*
D15*
X32550Y947166D03*
X73980Y909804D03*
D16*
X25400Y660400D03*
X25400Y685800D03*
X25400Y711200D03*
X25400Y736600D03*
X25400Y762000D03*
X25400Y787400D03*
X25400Y635000D03*
X25400Y609600D03*
X25400Y584200D03*
X25400Y558800D03*
X25400Y533400D03*
X25400Y508000D03*
X25400Y482600D03*
X25400Y812800D03*
X25400Y838200D03*
X177800Y660400D03*
X177800Y635000D03*
X177800Y609600D03*
X177800Y584200D03*
X177800Y558800D03*
X177800Y533400D03*
X177800Y685800D03*
X177800Y711200D03*
X177800Y736600D03*
X177800Y762000D03*
X177800Y787400D03*
X177800Y812800D03*
X177800Y838200D03*
X177800Y508000D03*
X177800Y482600D03*
D17*
X469900Y533400D03*
X546100Y533400D03*
X584200Y533400D03*
X660400Y533400D03*
X698500Y533400D03*
X774700Y533400D03*
X812800Y533400D03*
X889000Y533400D03*
D18*
X292100Y787400D03*
X292100Y762000D03*
X292100Y736600D03*
X292100Y711200D03*
X292100Y685800D03*
X292100Y660400D03*
X292100Y635000D03*
X292100Y609600D03*
X419100Y609600D03*
X419100Y635000D03*
X419100Y660400D03*
X419100Y685800D03*
X419100Y711200D03*
X419100Y736600D03*
X419100Y762000D03*
X419100Y787400D03*
X469900Y787400D03*
X469900Y762000D03*
X469900Y736600D03*
X469900Y711200D03*
X469900Y685800D03*
X469900Y660400D03*
X469900Y635000D03*
X469900Y609600D03*
X596900Y609600D03*
X596900Y635000D03*
X596900Y660400D03*
X596900Y685800D03*
X596900Y711200D03*
X596900Y736600D03*
X596900Y762000D03*
X596900Y787400D03*
X647700Y787400D03*
X647700Y762000D03*
X647700Y736600D03*
X647700Y711200D03*
X647700Y685800D03*
X647700Y660400D03*
X647700Y635000D03*
X647700Y609600D03*
X774700Y609600D03*
X774700Y635000D03*
X774700Y660400D03*
X774700Y685800D03*
X774700Y711200D03*
X774700Y736600D03*
X774700Y762000D03*
X774700Y787400D03*
X825500Y787400D03*
X825500Y762000D03*
X825500Y736600D03*
X825500Y711200D03*
X825500Y685800D03*
X825500Y660400D03*
X825500Y635000D03*
X825500Y609600D03*
X952500Y609600D03*
X952500Y635000D03*
X952500Y660400D03*
X952500Y685800D03*
X952500Y711200D03*
X952500Y736600D03*
X952500Y762000D03*
X952500Y787400D03*
D16*
X368300Y965200D03*
X393700Y965200D03*
X419100Y965200D03*
X342900Y965200D03*
X520700Y965200D03*
X546100Y965200D03*
X571500Y965200D03*
X495300Y965200D03*
X673100Y965200D03*
X698500Y965200D03*
X723900Y965200D03*
X647700Y965200D03*
X825500Y965200D03*
X850900Y965200D03*
X876300Y965200D03*
X800100Y965200D03*
X520700Y469900D03*
X495300Y469900D03*
X635000Y469900D03*
X609600Y469900D03*
X749300Y469900D03*
X723900Y469900D03*
X863600Y469900D03*
X838200Y469900D03*
X381000Y469900D03*
X355600Y469900D03*
X330200Y469900D03*
X406400Y469900D03*
D19*
X393700Y927100D02*
X571500Y927100D01*
X749300Y927100D01*
D20*
X419100Y787400D02*
X393900Y812600D01*
X393900Y850900D01*
X571700Y812600D02*
X596900Y787400D01*
X571700Y812600D02*
X571700Y850900D01*
X393900Y850900D02*
X393700Y851100D01*
X393700Y927100D01*
X571500Y851100D02*
X571700Y850900D01*
X571500Y851100D02*
X571500Y927100D01*
X749500Y812600D02*
X774700Y787400D01*
X749500Y812600D02*
X749500Y850900D01*
X749300Y851100D01*
X749300Y927100D01*
X927300Y812600D02*
X952500Y787400D01*
X927300Y812600D02*
X927300Y850900D01*
X927100Y851100D01*
D19*
X241300Y901060D02*
X216540Y901060D01*
X241300Y901060D02*
X241940Y901700D01*
X266700Y901700D01*
X292100Y927100D01*
X393700Y927100D01*
X749300Y927100D02*
X901700Y927100D01*
D20*
X927100Y901700D01*
X927100Y851100D01*
D19*
X136238Y916940D02*
X105758Y947420D01*
X136238Y916940D02*
X166370Y916940D01*
X200660Y916940D01*
X216540Y901060D01*
D21*
X328930Y895350D03*
D22*
X374650Y895350D01*
D21*
X374650Y895350D03*
X506016Y895350D03*
D22*
X553720Y895350D01*
D21*
X553720Y895350D03*
X685800Y895350D03*
D22*
X730250Y895350D01*
D21*
X730250Y895350D03*
X152400Y850900D03*
D22*
X152400Y781050D01*
D21*
X152400Y781050D03*
X241300Y535940D03*
D22*
X406400Y535940D01*
D21*
X406400Y535940D03*
X800100Y508000D03*
X685800Y508000D03*
X571500Y508000D03*
X457200Y508000D03*
D22*
X571500Y508000D02*
X685800Y508000D01*
X571500Y508000D02*
X457200Y508000D01*
X429260Y535940D01*
X406400Y535940D01*
X685800Y508000D02*
X800100Y508000D01*
X203200Y787400D02*
X177800Y762000D01*
X203200Y787400D02*
X228600Y787400D01*
D21*
X228600Y787400D03*
D22*
X616458Y488442D02*
X635000Y469900D01*
X301910Y488442D02*
X292100Y498252D01*
D21*
X292100Y498252D03*
D22*
X301910Y488442D02*
X616458Y488442D01*
X726186Y493014D02*
X749300Y469900D01*
X310450Y493014D02*
X292100Y511364D01*
D21*
X292100Y511364D03*
D22*
X310450Y493014D02*
X726186Y493014D01*
X835914Y497586D02*
X863600Y469900D01*
X320260Y497586D02*
X293370Y524476D01*
X292100Y524476D01*
D21*
X292100Y524476D03*
D22*
X320260Y497586D02*
X835914Y497586D01*
X520700Y469900D02*
X506730Y483870D01*
X293370Y483870D01*
X292100Y485140D01*
D21*
X292100Y485140D03*
D22*
X38100Y520700D02*
X25400Y508000D01*
X38100Y520700D02*
X190155Y520700D01*
X226223Y556768D01*
X772668Y569468D02*
X787400Y584200D01*
X787400Y774700D01*
X800100Y787400D01*
X825500Y787400D01*
X443163Y556768D02*
X226223Y556768D01*
X443163Y556768D02*
X455863Y569468D01*
X772668Y569468D01*
X38100Y596900D02*
X25400Y584200D01*
X38100Y596900D02*
X260003Y596900D01*
X286419Y570484D01*
X437481Y570484D01*
X609600Y584200D02*
X609600Y762000D01*
X635000Y787400D01*
X647700Y787400D01*
X450181Y583184D02*
X437481Y570484D01*
X450181Y583184D02*
X608584Y583184D01*
X609600Y584200D01*
X38100Y571500D02*
X25400Y558800D01*
X614172Y582306D02*
X614172Y601472D01*
X647700Y635000D01*
X278937Y571500D02*
X38100Y571500D01*
X278937Y571500D02*
X284525Y565912D01*
X439375Y565912D02*
X452075Y578612D01*
X439375Y565912D02*
X284525Y565912D01*
X452075Y578612D02*
X609600Y578612D01*
X610108Y578612D01*
X610478Y578612D01*
X614172Y582306D01*
X205395Y561340D02*
X190155Y546100D01*
X38100Y546100D01*
X612372Y574040D02*
X618744Y580412D01*
X618744Y580644D01*
X647700Y609600D01*
X38100Y546100D02*
X25400Y533400D01*
X205395Y561340D02*
X441269Y561340D01*
X453969Y574040D01*
X612372Y574040D01*
X38100Y673100D02*
X25400Y660400D01*
X38100Y673100D02*
X203200Y673100D01*
X292100Y584200D01*
X431800Y584200D01*
X431800Y762000D01*
X457200Y787400D01*
X469900Y787400D01*
X38100Y647700D02*
X25400Y635000D01*
X38100Y647700D02*
X222134Y647700D01*
X290206Y579628D01*
X433694Y579628D02*
X436372Y582306D01*
X433694Y579628D02*
X290206Y579628D01*
X436372Y582306D02*
X436372Y601472D01*
X469900Y635000D01*
X38100Y622300D02*
X25400Y609600D01*
X38100Y622300D02*
X241068Y622300D01*
X288312Y575056D01*
X435588Y575056D01*
X440944Y580412D01*
X440944Y580644D01*
X469900Y609600D01*
X38100Y749300D02*
X25400Y736600D01*
X38100Y749300D02*
X254000Y749300D01*
X292100Y787400D01*
X38100Y723900D02*
X25400Y711200D01*
X38100Y723900D02*
X203200Y723900D01*
X292100Y635000D01*
X38100Y698500D02*
X25400Y685800D01*
X38100Y698500D02*
X203200Y698500D01*
X292100Y609600D01*
X776456Y560324D02*
X796544Y580412D01*
X796544Y580644D01*
X825500Y609600D01*
X459651Y560324D02*
X446951Y547624D01*
X459651Y560324D02*
X776456Y560324D01*
X190500Y482600D02*
X177800Y482600D01*
X190500Y482600D02*
X205232Y497332D01*
X205232Y515620D01*
X237236Y547624D01*
X446951Y547624D01*
X190155Y495300D02*
X38100Y495300D01*
X774562Y564896D02*
X791972Y582306D01*
X791972Y609600D01*
X817372Y635000D01*
X825500Y635000D01*
X38100Y495300D02*
X25400Y482600D01*
X445057Y552196D02*
X457757Y564896D01*
X774562Y564896D01*
X199390Y504536D02*
X190155Y495300D01*
X199390Y517906D02*
X233680Y552196D01*
X199390Y517906D02*
X199390Y504536D01*
X233680Y552196D02*
X445057Y552196D01*
M02*
