G04 EAGLE Gerber RS-274X export*
G75*
%MOMM*%
%FSLAX34Y34*%
%LPD*%
%INSoldermask Top*%
%IPPOS*%
%AMOC8*
5,1,8,0,0,1.08239X$1,22.5*%
G01*
%ADD10C,3.703200*%
%ADD11C,2.540000*%
%ADD12C,1.854200*%
%ADD13R,1.854200X1.854200*%
%ADD14C,2.133600*%
%ADD15C,1.828800*%
%ADD16C,4.419200*%
%ADD17C,4.318000*%
%ADD18C,1.828800*%
%ADD19R,0.838200X1.473200*%
%ADD20C,2.082800*%
%ADD21C,1.712800*%
%ADD22C,1.311200*%


D10*
X241300Y952500D03*
X241300Y482600D03*
X952500Y482600D03*
X952500Y952500D03*
D11*
X237490Y661670D03*
D12*
X418900Y850900D03*
D13*
X393900Y850900D03*
D12*
X596700Y850900D03*
D13*
X571700Y850900D03*
D12*
X774500Y850900D03*
D13*
X749500Y850900D03*
D12*
X952300Y850900D03*
D13*
X927300Y850900D03*
D14*
X241300Y821060D03*
X241300Y901060D03*
D15*
X174498Y916940D02*
X158242Y916940D01*
X158242Y942340D02*
X174498Y942340D01*
X174498Y967740D02*
X158242Y967740D01*
D16*
X105758Y947420D03*
D17*
X32550Y947166D03*
X73980Y909804D03*
D18*
X25400Y660400D03*
X25400Y685800D03*
X25400Y711200D03*
X25400Y736600D03*
X25400Y762000D03*
X25400Y787400D03*
X25400Y635000D03*
X25400Y609600D03*
X25400Y584200D03*
X25400Y558800D03*
X25400Y533400D03*
X25400Y508000D03*
X25400Y482600D03*
X25400Y812800D03*
X25400Y838200D03*
X177800Y660400D03*
X177800Y635000D03*
X177800Y609600D03*
X177800Y584200D03*
X177800Y558800D03*
X177800Y533400D03*
X177800Y685800D03*
X177800Y711200D03*
X177800Y736600D03*
X177800Y762000D03*
X177800Y787400D03*
X177800Y812800D03*
X177800Y838200D03*
X177800Y508000D03*
X177800Y482600D03*
D19*
X296164Y850900D03*
X288036Y850900D03*
X829564Y850900D03*
X821436Y850900D03*
X857504Y850900D03*
X849376Y850900D03*
X885444Y850900D03*
X877316Y850900D03*
X237236Y762000D03*
X245364Y762000D03*
X324104Y850900D03*
X315976Y850900D03*
X352044Y850900D03*
X343916Y850900D03*
X473964Y850900D03*
X465836Y850900D03*
X501904Y850900D03*
X493776Y850900D03*
X529844Y850900D03*
X521716Y850900D03*
X651764Y850900D03*
X643636Y850900D03*
X679704Y850900D03*
X671576Y850900D03*
X707644Y850900D03*
X699516Y850900D03*
D20*
X469900Y533400D03*
X546100Y533400D03*
X584200Y533400D03*
X660400Y533400D03*
X698500Y533400D03*
X774700Y533400D03*
X812800Y533400D03*
X889000Y533400D03*
D21*
X292100Y787400D03*
X292100Y762000D03*
X292100Y736600D03*
X292100Y711200D03*
X292100Y685800D03*
X292100Y660400D03*
X292100Y635000D03*
X292100Y609600D03*
X419100Y609600D03*
X419100Y635000D03*
X419100Y660400D03*
X419100Y685800D03*
X419100Y711200D03*
X419100Y736600D03*
X419100Y762000D03*
X419100Y787400D03*
X469900Y787400D03*
X469900Y762000D03*
X469900Y736600D03*
X469900Y711200D03*
X469900Y685800D03*
X469900Y660400D03*
X469900Y635000D03*
X469900Y609600D03*
X596900Y609600D03*
X596900Y635000D03*
X596900Y660400D03*
X596900Y685800D03*
X596900Y711200D03*
X596900Y736600D03*
X596900Y762000D03*
X596900Y787400D03*
X647700Y787400D03*
X647700Y762000D03*
X647700Y736600D03*
X647700Y711200D03*
X647700Y685800D03*
X647700Y660400D03*
X647700Y635000D03*
X647700Y609600D03*
X774700Y609600D03*
X774700Y635000D03*
X774700Y660400D03*
X774700Y685800D03*
X774700Y711200D03*
X774700Y736600D03*
X774700Y762000D03*
X774700Y787400D03*
X825500Y787400D03*
X825500Y762000D03*
X825500Y736600D03*
X825500Y711200D03*
X825500Y685800D03*
X825500Y660400D03*
X825500Y635000D03*
X825500Y609600D03*
X952500Y609600D03*
X952500Y635000D03*
X952500Y660400D03*
X952500Y685800D03*
X952500Y711200D03*
X952500Y736600D03*
X952500Y762000D03*
X952500Y787400D03*
D18*
X368300Y965200D03*
X393700Y965200D03*
X419100Y965200D03*
X342900Y965200D03*
X520700Y965200D03*
X546100Y965200D03*
X571500Y965200D03*
X495300Y965200D03*
X673100Y965200D03*
X698500Y965200D03*
X723900Y965200D03*
X647700Y965200D03*
X825500Y965200D03*
X850900Y965200D03*
X876300Y965200D03*
X800100Y965200D03*
X520700Y469900D03*
X495300Y469900D03*
X635000Y469900D03*
X609600Y469900D03*
X749300Y469900D03*
X723900Y469900D03*
X863600Y469900D03*
X838200Y469900D03*
X381000Y469900D03*
X355600Y469900D03*
X330200Y469900D03*
X406400Y469900D03*
D22*
X328930Y895350D03*
X374650Y895350D03*
X506016Y895350D03*
X553720Y895350D03*
X685800Y895350D03*
X730250Y895350D03*
X152400Y850900D03*
X152400Y781050D03*
X241300Y535940D03*
X406400Y535940D03*
X800100Y508000D03*
X685800Y508000D03*
X571500Y508000D03*
X457200Y508000D03*
X228600Y787400D03*
X292100Y498252D03*
X292100Y511364D03*
X292100Y524476D03*
X292100Y485140D03*
M02*
