M48
;GenerationSoftware,Autodesk,EAGLE,9.6.2*%
;CreationDate,2022-03-15T18:59:37Z*%
FMAT,2
ICI,OFF
METRIC,TZ,000.000
T8C0.600
T7C0.700
T6C0.900
T5C1.016
T4C1.118
T3C2.997
T2C3.200
T1C3.500
%
G90
M71
T1
X95250Y48260
X24130Y95250
X24130Y48260
X95250Y95250
T2
X10576Y94742
T3
X7398Y90980
X3255Y94717
T4
X24130Y82106
X24130Y90106
T5
X85090Y96520
X87630Y96520
X80010Y96520
X52070Y46990
X49530Y46990
X63500Y46990
X60960Y46990
X74930Y46990
X72390Y46990
X86360Y46990
X83820Y46990
X38100Y46990
X35560Y46990
X33020Y46990
X40640Y46990
X57150Y96520
X36830Y96520
X39370Y96520
X2540Y73660
X41910Y96520
X34290Y96520
X52070Y96520
X54610Y96520
X49530Y96520
X67310Y96520
X69850Y96520
X72390Y96520
X16637Y91694
X16637Y94234
X16637Y96774
X2540Y66040
X2540Y68580
X2540Y71120
X64770Y96520
X2540Y76200
X2540Y78740
X2540Y63500
X2540Y60960
X2540Y58420
X2540Y55880
X2540Y53340
X2540Y50800
X2540Y48260
X2540Y81280
X2540Y83820
X17780Y66040
X17780Y63500
X17780Y60960
X17780Y58420
X17780Y55880
X17780Y53340
X17780Y68580
X17780Y71120
X17780Y73660
X17780Y76200
X17780Y78740
X17780Y81280
X17780Y83820
X17780Y50800
X17780Y48260
X82550Y96520
T6
X41910Y66040
X41910Y68580
X41910Y71120
X41910Y73660
X41910Y76200
X29210Y60960
X41910Y78740
X46990Y78740
X46990Y76200
X46990Y73660
X46990Y71120
X46990Y68580
X77470Y66040
X46990Y66040
X46990Y63500
X59690Y60960
X59690Y63500
X59690Y66040
X59690Y68580
X59690Y71120
X59690Y73660
X59690Y76200
X59690Y78740
X64770Y78740
X64770Y76200
X64770Y73660
X82550Y76200
X46990Y53340
X54610Y53340
X58420Y53340
X66040Y53340
X69850Y53340
X77470Y53340
X81280Y53340
X88900Y53340
X29210Y78740
X29210Y76200
X29210Y73660
X29210Y71120
X29210Y68580
X29210Y66040
X29210Y63500
X64770Y71120
X64770Y68580
X64770Y66040
X64770Y63500
X64770Y60960
X77470Y60960
X77470Y63500
X46990Y60960
X77470Y68580
X77470Y71120
X77470Y73660
X77470Y76200
X77470Y78740
X82550Y78740
X41910Y60960
X82550Y73660
X82550Y71120
X82550Y68580
X82550Y66040
X82550Y63500
X82550Y60960
X95250Y60960
X95250Y63500
X95250Y66040
X95250Y68580
X95250Y71120
X95250Y73660
X95250Y76200
X95250Y78740
X41910Y63500
T7
X95230Y85090
X41890Y85090
X39390Y85090
X59670Y85090
X57170Y85090
X77450Y85090
X74950Y85090
X92730Y85090
T8
X50602Y89535
X55372Y89535
X68580Y89535
X73025Y89535
X15240Y85090
X15240Y78105
X24130Y53594
X40640Y53594
X80010Y50800
X68580Y50800
X57150Y50800
X22860Y78740
X29210Y49825
X29210Y51136
X29210Y52448
X29210Y48514
X45720Y50800
X32893Y89535
X37465Y89535
M30