G04 EAGLE Gerber RS-274X export*
G75*
%MOMM*%
%FSLAX34Y34*%
%LPD*%
%INBoard Outline*%
%IPPOS*%
%AMOC8*
5,1,8,0,0,1.08239X$1,22.5*%
G01*
%ADD10C,0.152400*%
%ADD11C,0.000000*%
%ADD12C,0.254000*%


D10*
X0Y444500D02*
X0Y990600D01*
X990600Y990600D01*
X990600Y444500D01*
X0Y444500D01*
D11*
X223800Y952500D02*
X223805Y952929D01*
X223821Y953359D01*
X223847Y953787D01*
X223884Y954215D01*
X223932Y954642D01*
X223989Y955068D01*
X224058Y955492D01*
X224136Y955914D01*
X224225Y956334D01*
X224324Y956752D01*
X224434Y957167D01*
X224554Y957580D01*
X224683Y957989D01*
X224823Y958396D01*
X224973Y958798D01*
X225132Y959197D01*
X225301Y959592D01*
X225480Y959982D01*
X225669Y960368D01*
X225866Y960749D01*
X226073Y961126D01*
X226290Y961497D01*
X226515Y961862D01*
X226749Y962222D01*
X226992Y962577D01*
X227244Y962925D01*
X227504Y963267D01*
X227772Y963602D01*
X228049Y963931D01*
X228333Y964252D01*
X228626Y964567D01*
X228926Y964874D01*
X229233Y965174D01*
X229548Y965467D01*
X229869Y965751D01*
X230198Y966028D01*
X230533Y966296D01*
X230875Y966556D01*
X231223Y966808D01*
X231578Y967051D01*
X231938Y967285D01*
X232303Y967510D01*
X232674Y967727D01*
X233051Y967934D01*
X233432Y968131D01*
X233818Y968320D01*
X234208Y968499D01*
X234603Y968668D01*
X235002Y968827D01*
X235404Y968977D01*
X235811Y969117D01*
X236220Y969246D01*
X236633Y969366D01*
X237048Y969476D01*
X237466Y969575D01*
X237886Y969664D01*
X238308Y969742D01*
X238732Y969811D01*
X239158Y969868D01*
X239585Y969916D01*
X240013Y969953D01*
X240441Y969979D01*
X240871Y969995D01*
X241300Y970000D01*
X241729Y969995D01*
X242159Y969979D01*
X242587Y969953D01*
X243015Y969916D01*
X243442Y969868D01*
X243868Y969811D01*
X244292Y969742D01*
X244714Y969664D01*
X245134Y969575D01*
X245552Y969476D01*
X245967Y969366D01*
X246380Y969246D01*
X246789Y969117D01*
X247196Y968977D01*
X247598Y968827D01*
X247997Y968668D01*
X248392Y968499D01*
X248782Y968320D01*
X249168Y968131D01*
X249549Y967934D01*
X249926Y967727D01*
X250297Y967510D01*
X250662Y967285D01*
X251022Y967051D01*
X251377Y966808D01*
X251725Y966556D01*
X252067Y966296D01*
X252402Y966028D01*
X252731Y965751D01*
X253052Y965467D01*
X253367Y965174D01*
X253674Y964874D01*
X253974Y964567D01*
X254267Y964252D01*
X254551Y963931D01*
X254828Y963602D01*
X255096Y963267D01*
X255356Y962925D01*
X255608Y962577D01*
X255851Y962222D01*
X256085Y961862D01*
X256310Y961497D01*
X256527Y961126D01*
X256734Y960749D01*
X256931Y960368D01*
X257120Y959982D01*
X257299Y959592D01*
X257468Y959197D01*
X257627Y958798D01*
X257777Y958396D01*
X257917Y957989D01*
X258046Y957580D01*
X258166Y957167D01*
X258276Y956752D01*
X258375Y956334D01*
X258464Y955914D01*
X258542Y955492D01*
X258611Y955068D01*
X258668Y954642D01*
X258716Y954215D01*
X258753Y953787D01*
X258779Y953359D01*
X258795Y952929D01*
X258800Y952500D01*
X258795Y952071D01*
X258779Y951641D01*
X258753Y951213D01*
X258716Y950785D01*
X258668Y950358D01*
X258611Y949932D01*
X258542Y949508D01*
X258464Y949086D01*
X258375Y948666D01*
X258276Y948248D01*
X258166Y947833D01*
X258046Y947420D01*
X257917Y947011D01*
X257777Y946604D01*
X257627Y946202D01*
X257468Y945803D01*
X257299Y945408D01*
X257120Y945018D01*
X256931Y944632D01*
X256734Y944251D01*
X256527Y943874D01*
X256310Y943503D01*
X256085Y943138D01*
X255851Y942778D01*
X255608Y942423D01*
X255356Y942075D01*
X255096Y941733D01*
X254828Y941398D01*
X254551Y941069D01*
X254267Y940748D01*
X253974Y940433D01*
X253674Y940126D01*
X253367Y939826D01*
X253052Y939533D01*
X252731Y939249D01*
X252402Y938972D01*
X252067Y938704D01*
X251725Y938444D01*
X251377Y938192D01*
X251022Y937949D01*
X250662Y937715D01*
X250297Y937490D01*
X249926Y937273D01*
X249549Y937066D01*
X249168Y936869D01*
X248782Y936680D01*
X248392Y936501D01*
X247997Y936332D01*
X247598Y936173D01*
X247196Y936023D01*
X246789Y935883D01*
X246380Y935754D01*
X245967Y935634D01*
X245552Y935524D01*
X245134Y935425D01*
X244714Y935336D01*
X244292Y935258D01*
X243868Y935189D01*
X243442Y935132D01*
X243015Y935084D01*
X242587Y935047D01*
X242159Y935021D01*
X241729Y935005D01*
X241300Y935000D01*
X240871Y935005D01*
X240441Y935021D01*
X240013Y935047D01*
X239585Y935084D01*
X239158Y935132D01*
X238732Y935189D01*
X238308Y935258D01*
X237886Y935336D01*
X237466Y935425D01*
X237048Y935524D01*
X236633Y935634D01*
X236220Y935754D01*
X235811Y935883D01*
X235404Y936023D01*
X235002Y936173D01*
X234603Y936332D01*
X234208Y936501D01*
X233818Y936680D01*
X233432Y936869D01*
X233051Y937066D01*
X232674Y937273D01*
X232303Y937490D01*
X231938Y937715D01*
X231578Y937949D01*
X231223Y938192D01*
X230875Y938444D01*
X230533Y938704D01*
X230198Y938972D01*
X229869Y939249D01*
X229548Y939533D01*
X229233Y939826D01*
X228926Y940126D01*
X228626Y940433D01*
X228333Y940748D01*
X228049Y941069D01*
X227772Y941398D01*
X227504Y941733D01*
X227244Y942075D01*
X226992Y942423D01*
X226749Y942778D01*
X226515Y943138D01*
X226290Y943503D01*
X226073Y943874D01*
X225866Y944251D01*
X225669Y944632D01*
X225480Y945018D01*
X225301Y945408D01*
X225132Y945803D01*
X224973Y946202D01*
X224823Y946604D01*
X224683Y947011D01*
X224554Y947420D01*
X224434Y947833D01*
X224324Y948248D01*
X224225Y948666D01*
X224136Y949086D01*
X224058Y949508D01*
X223989Y949932D01*
X223932Y950358D01*
X223884Y950785D01*
X223847Y951213D01*
X223821Y951641D01*
X223805Y952071D01*
X223800Y952500D01*
X223800Y482600D02*
X223805Y483029D01*
X223821Y483459D01*
X223847Y483887D01*
X223884Y484315D01*
X223932Y484742D01*
X223989Y485168D01*
X224058Y485592D01*
X224136Y486014D01*
X224225Y486434D01*
X224324Y486852D01*
X224434Y487267D01*
X224554Y487680D01*
X224683Y488089D01*
X224823Y488496D01*
X224973Y488898D01*
X225132Y489297D01*
X225301Y489692D01*
X225480Y490082D01*
X225669Y490468D01*
X225866Y490849D01*
X226073Y491226D01*
X226290Y491597D01*
X226515Y491962D01*
X226749Y492322D01*
X226992Y492677D01*
X227244Y493025D01*
X227504Y493367D01*
X227772Y493702D01*
X228049Y494031D01*
X228333Y494352D01*
X228626Y494667D01*
X228926Y494974D01*
X229233Y495274D01*
X229548Y495567D01*
X229869Y495851D01*
X230198Y496128D01*
X230533Y496396D01*
X230875Y496656D01*
X231223Y496908D01*
X231578Y497151D01*
X231938Y497385D01*
X232303Y497610D01*
X232674Y497827D01*
X233051Y498034D01*
X233432Y498231D01*
X233818Y498420D01*
X234208Y498599D01*
X234603Y498768D01*
X235002Y498927D01*
X235404Y499077D01*
X235811Y499217D01*
X236220Y499346D01*
X236633Y499466D01*
X237048Y499576D01*
X237466Y499675D01*
X237886Y499764D01*
X238308Y499842D01*
X238732Y499911D01*
X239158Y499968D01*
X239585Y500016D01*
X240013Y500053D01*
X240441Y500079D01*
X240871Y500095D01*
X241300Y500100D01*
X241729Y500095D01*
X242159Y500079D01*
X242587Y500053D01*
X243015Y500016D01*
X243442Y499968D01*
X243868Y499911D01*
X244292Y499842D01*
X244714Y499764D01*
X245134Y499675D01*
X245552Y499576D01*
X245967Y499466D01*
X246380Y499346D01*
X246789Y499217D01*
X247196Y499077D01*
X247598Y498927D01*
X247997Y498768D01*
X248392Y498599D01*
X248782Y498420D01*
X249168Y498231D01*
X249549Y498034D01*
X249926Y497827D01*
X250297Y497610D01*
X250662Y497385D01*
X251022Y497151D01*
X251377Y496908D01*
X251725Y496656D01*
X252067Y496396D01*
X252402Y496128D01*
X252731Y495851D01*
X253052Y495567D01*
X253367Y495274D01*
X253674Y494974D01*
X253974Y494667D01*
X254267Y494352D01*
X254551Y494031D01*
X254828Y493702D01*
X255096Y493367D01*
X255356Y493025D01*
X255608Y492677D01*
X255851Y492322D01*
X256085Y491962D01*
X256310Y491597D01*
X256527Y491226D01*
X256734Y490849D01*
X256931Y490468D01*
X257120Y490082D01*
X257299Y489692D01*
X257468Y489297D01*
X257627Y488898D01*
X257777Y488496D01*
X257917Y488089D01*
X258046Y487680D01*
X258166Y487267D01*
X258276Y486852D01*
X258375Y486434D01*
X258464Y486014D01*
X258542Y485592D01*
X258611Y485168D01*
X258668Y484742D01*
X258716Y484315D01*
X258753Y483887D01*
X258779Y483459D01*
X258795Y483029D01*
X258800Y482600D01*
X258795Y482171D01*
X258779Y481741D01*
X258753Y481313D01*
X258716Y480885D01*
X258668Y480458D01*
X258611Y480032D01*
X258542Y479608D01*
X258464Y479186D01*
X258375Y478766D01*
X258276Y478348D01*
X258166Y477933D01*
X258046Y477520D01*
X257917Y477111D01*
X257777Y476704D01*
X257627Y476302D01*
X257468Y475903D01*
X257299Y475508D01*
X257120Y475118D01*
X256931Y474732D01*
X256734Y474351D01*
X256527Y473974D01*
X256310Y473603D01*
X256085Y473238D01*
X255851Y472878D01*
X255608Y472523D01*
X255356Y472175D01*
X255096Y471833D01*
X254828Y471498D01*
X254551Y471169D01*
X254267Y470848D01*
X253974Y470533D01*
X253674Y470226D01*
X253367Y469926D01*
X253052Y469633D01*
X252731Y469349D01*
X252402Y469072D01*
X252067Y468804D01*
X251725Y468544D01*
X251377Y468292D01*
X251022Y468049D01*
X250662Y467815D01*
X250297Y467590D01*
X249926Y467373D01*
X249549Y467166D01*
X249168Y466969D01*
X248782Y466780D01*
X248392Y466601D01*
X247997Y466432D01*
X247598Y466273D01*
X247196Y466123D01*
X246789Y465983D01*
X246380Y465854D01*
X245967Y465734D01*
X245552Y465624D01*
X245134Y465525D01*
X244714Y465436D01*
X244292Y465358D01*
X243868Y465289D01*
X243442Y465232D01*
X243015Y465184D01*
X242587Y465147D01*
X242159Y465121D01*
X241729Y465105D01*
X241300Y465100D01*
X240871Y465105D01*
X240441Y465121D01*
X240013Y465147D01*
X239585Y465184D01*
X239158Y465232D01*
X238732Y465289D01*
X238308Y465358D01*
X237886Y465436D01*
X237466Y465525D01*
X237048Y465624D01*
X236633Y465734D01*
X236220Y465854D01*
X235811Y465983D01*
X235404Y466123D01*
X235002Y466273D01*
X234603Y466432D01*
X234208Y466601D01*
X233818Y466780D01*
X233432Y466969D01*
X233051Y467166D01*
X232674Y467373D01*
X232303Y467590D01*
X231938Y467815D01*
X231578Y468049D01*
X231223Y468292D01*
X230875Y468544D01*
X230533Y468804D01*
X230198Y469072D01*
X229869Y469349D01*
X229548Y469633D01*
X229233Y469926D01*
X228926Y470226D01*
X228626Y470533D01*
X228333Y470848D01*
X228049Y471169D01*
X227772Y471498D01*
X227504Y471833D01*
X227244Y472175D01*
X226992Y472523D01*
X226749Y472878D01*
X226515Y473238D01*
X226290Y473603D01*
X226073Y473974D01*
X225866Y474351D01*
X225669Y474732D01*
X225480Y475118D01*
X225301Y475508D01*
X225132Y475903D01*
X224973Y476302D01*
X224823Y476704D01*
X224683Y477111D01*
X224554Y477520D01*
X224434Y477933D01*
X224324Y478348D01*
X224225Y478766D01*
X224136Y479186D01*
X224058Y479608D01*
X223989Y480032D01*
X223932Y480458D01*
X223884Y480885D01*
X223847Y481313D01*
X223821Y481741D01*
X223805Y482171D01*
X223800Y482600D01*
X935000Y482600D02*
X935005Y483029D01*
X935021Y483459D01*
X935047Y483887D01*
X935084Y484315D01*
X935132Y484742D01*
X935189Y485168D01*
X935258Y485592D01*
X935336Y486014D01*
X935425Y486434D01*
X935524Y486852D01*
X935634Y487267D01*
X935754Y487680D01*
X935883Y488089D01*
X936023Y488496D01*
X936173Y488898D01*
X936332Y489297D01*
X936501Y489692D01*
X936680Y490082D01*
X936869Y490468D01*
X937066Y490849D01*
X937273Y491226D01*
X937490Y491597D01*
X937715Y491962D01*
X937949Y492322D01*
X938192Y492677D01*
X938444Y493025D01*
X938704Y493367D01*
X938972Y493702D01*
X939249Y494031D01*
X939533Y494352D01*
X939826Y494667D01*
X940126Y494974D01*
X940433Y495274D01*
X940748Y495567D01*
X941069Y495851D01*
X941398Y496128D01*
X941733Y496396D01*
X942075Y496656D01*
X942423Y496908D01*
X942778Y497151D01*
X943138Y497385D01*
X943503Y497610D01*
X943874Y497827D01*
X944251Y498034D01*
X944632Y498231D01*
X945018Y498420D01*
X945408Y498599D01*
X945803Y498768D01*
X946202Y498927D01*
X946604Y499077D01*
X947011Y499217D01*
X947420Y499346D01*
X947833Y499466D01*
X948248Y499576D01*
X948666Y499675D01*
X949086Y499764D01*
X949508Y499842D01*
X949932Y499911D01*
X950358Y499968D01*
X950785Y500016D01*
X951213Y500053D01*
X951641Y500079D01*
X952071Y500095D01*
X952500Y500100D01*
X952929Y500095D01*
X953359Y500079D01*
X953787Y500053D01*
X954215Y500016D01*
X954642Y499968D01*
X955068Y499911D01*
X955492Y499842D01*
X955914Y499764D01*
X956334Y499675D01*
X956752Y499576D01*
X957167Y499466D01*
X957580Y499346D01*
X957989Y499217D01*
X958396Y499077D01*
X958798Y498927D01*
X959197Y498768D01*
X959592Y498599D01*
X959982Y498420D01*
X960368Y498231D01*
X960749Y498034D01*
X961126Y497827D01*
X961497Y497610D01*
X961862Y497385D01*
X962222Y497151D01*
X962577Y496908D01*
X962925Y496656D01*
X963267Y496396D01*
X963602Y496128D01*
X963931Y495851D01*
X964252Y495567D01*
X964567Y495274D01*
X964874Y494974D01*
X965174Y494667D01*
X965467Y494352D01*
X965751Y494031D01*
X966028Y493702D01*
X966296Y493367D01*
X966556Y493025D01*
X966808Y492677D01*
X967051Y492322D01*
X967285Y491962D01*
X967510Y491597D01*
X967727Y491226D01*
X967934Y490849D01*
X968131Y490468D01*
X968320Y490082D01*
X968499Y489692D01*
X968668Y489297D01*
X968827Y488898D01*
X968977Y488496D01*
X969117Y488089D01*
X969246Y487680D01*
X969366Y487267D01*
X969476Y486852D01*
X969575Y486434D01*
X969664Y486014D01*
X969742Y485592D01*
X969811Y485168D01*
X969868Y484742D01*
X969916Y484315D01*
X969953Y483887D01*
X969979Y483459D01*
X969995Y483029D01*
X970000Y482600D01*
X969995Y482171D01*
X969979Y481741D01*
X969953Y481313D01*
X969916Y480885D01*
X969868Y480458D01*
X969811Y480032D01*
X969742Y479608D01*
X969664Y479186D01*
X969575Y478766D01*
X969476Y478348D01*
X969366Y477933D01*
X969246Y477520D01*
X969117Y477111D01*
X968977Y476704D01*
X968827Y476302D01*
X968668Y475903D01*
X968499Y475508D01*
X968320Y475118D01*
X968131Y474732D01*
X967934Y474351D01*
X967727Y473974D01*
X967510Y473603D01*
X967285Y473238D01*
X967051Y472878D01*
X966808Y472523D01*
X966556Y472175D01*
X966296Y471833D01*
X966028Y471498D01*
X965751Y471169D01*
X965467Y470848D01*
X965174Y470533D01*
X964874Y470226D01*
X964567Y469926D01*
X964252Y469633D01*
X963931Y469349D01*
X963602Y469072D01*
X963267Y468804D01*
X962925Y468544D01*
X962577Y468292D01*
X962222Y468049D01*
X961862Y467815D01*
X961497Y467590D01*
X961126Y467373D01*
X960749Y467166D01*
X960368Y466969D01*
X959982Y466780D01*
X959592Y466601D01*
X959197Y466432D01*
X958798Y466273D01*
X958396Y466123D01*
X957989Y465983D01*
X957580Y465854D01*
X957167Y465734D01*
X956752Y465624D01*
X956334Y465525D01*
X955914Y465436D01*
X955492Y465358D01*
X955068Y465289D01*
X954642Y465232D01*
X954215Y465184D01*
X953787Y465147D01*
X953359Y465121D01*
X952929Y465105D01*
X952500Y465100D01*
X952071Y465105D01*
X951641Y465121D01*
X951213Y465147D01*
X950785Y465184D01*
X950358Y465232D01*
X949932Y465289D01*
X949508Y465358D01*
X949086Y465436D01*
X948666Y465525D01*
X948248Y465624D01*
X947833Y465734D01*
X947420Y465854D01*
X947011Y465983D01*
X946604Y466123D01*
X946202Y466273D01*
X945803Y466432D01*
X945408Y466601D01*
X945018Y466780D01*
X944632Y466969D01*
X944251Y467166D01*
X943874Y467373D01*
X943503Y467590D01*
X943138Y467815D01*
X942778Y468049D01*
X942423Y468292D01*
X942075Y468544D01*
X941733Y468804D01*
X941398Y469072D01*
X941069Y469349D01*
X940748Y469633D01*
X940433Y469926D01*
X940126Y470226D01*
X939826Y470533D01*
X939533Y470848D01*
X939249Y471169D01*
X938972Y471498D01*
X938704Y471833D01*
X938444Y472175D01*
X938192Y472523D01*
X937949Y472878D01*
X937715Y473238D01*
X937490Y473603D01*
X937273Y473974D01*
X937066Y474351D01*
X936869Y474732D01*
X936680Y475118D01*
X936501Y475508D01*
X936332Y475903D01*
X936173Y476302D01*
X936023Y476704D01*
X935883Y477111D01*
X935754Y477520D01*
X935634Y477933D01*
X935524Y478348D01*
X935425Y478766D01*
X935336Y479186D01*
X935258Y479608D01*
X935189Y480032D01*
X935132Y480458D01*
X935084Y480885D01*
X935047Y481313D01*
X935021Y481741D01*
X935005Y482171D01*
X935000Y482600D01*
X935000Y952500D02*
X935005Y952929D01*
X935021Y953359D01*
X935047Y953787D01*
X935084Y954215D01*
X935132Y954642D01*
X935189Y955068D01*
X935258Y955492D01*
X935336Y955914D01*
X935425Y956334D01*
X935524Y956752D01*
X935634Y957167D01*
X935754Y957580D01*
X935883Y957989D01*
X936023Y958396D01*
X936173Y958798D01*
X936332Y959197D01*
X936501Y959592D01*
X936680Y959982D01*
X936869Y960368D01*
X937066Y960749D01*
X937273Y961126D01*
X937490Y961497D01*
X937715Y961862D01*
X937949Y962222D01*
X938192Y962577D01*
X938444Y962925D01*
X938704Y963267D01*
X938972Y963602D01*
X939249Y963931D01*
X939533Y964252D01*
X939826Y964567D01*
X940126Y964874D01*
X940433Y965174D01*
X940748Y965467D01*
X941069Y965751D01*
X941398Y966028D01*
X941733Y966296D01*
X942075Y966556D01*
X942423Y966808D01*
X942778Y967051D01*
X943138Y967285D01*
X943503Y967510D01*
X943874Y967727D01*
X944251Y967934D01*
X944632Y968131D01*
X945018Y968320D01*
X945408Y968499D01*
X945803Y968668D01*
X946202Y968827D01*
X946604Y968977D01*
X947011Y969117D01*
X947420Y969246D01*
X947833Y969366D01*
X948248Y969476D01*
X948666Y969575D01*
X949086Y969664D01*
X949508Y969742D01*
X949932Y969811D01*
X950358Y969868D01*
X950785Y969916D01*
X951213Y969953D01*
X951641Y969979D01*
X952071Y969995D01*
X952500Y970000D01*
X952929Y969995D01*
X953359Y969979D01*
X953787Y969953D01*
X954215Y969916D01*
X954642Y969868D01*
X955068Y969811D01*
X955492Y969742D01*
X955914Y969664D01*
X956334Y969575D01*
X956752Y969476D01*
X957167Y969366D01*
X957580Y969246D01*
X957989Y969117D01*
X958396Y968977D01*
X958798Y968827D01*
X959197Y968668D01*
X959592Y968499D01*
X959982Y968320D01*
X960368Y968131D01*
X960749Y967934D01*
X961126Y967727D01*
X961497Y967510D01*
X961862Y967285D01*
X962222Y967051D01*
X962577Y966808D01*
X962925Y966556D01*
X963267Y966296D01*
X963602Y966028D01*
X963931Y965751D01*
X964252Y965467D01*
X964567Y965174D01*
X964874Y964874D01*
X965174Y964567D01*
X965467Y964252D01*
X965751Y963931D01*
X966028Y963602D01*
X966296Y963267D01*
X966556Y962925D01*
X966808Y962577D01*
X967051Y962222D01*
X967285Y961862D01*
X967510Y961497D01*
X967727Y961126D01*
X967934Y960749D01*
X968131Y960368D01*
X968320Y959982D01*
X968499Y959592D01*
X968668Y959197D01*
X968827Y958798D01*
X968977Y958396D01*
X969117Y957989D01*
X969246Y957580D01*
X969366Y957167D01*
X969476Y956752D01*
X969575Y956334D01*
X969664Y955914D01*
X969742Y955492D01*
X969811Y955068D01*
X969868Y954642D01*
X969916Y954215D01*
X969953Y953787D01*
X969979Y953359D01*
X969995Y952929D01*
X970000Y952500D01*
X969995Y952071D01*
X969979Y951641D01*
X969953Y951213D01*
X969916Y950785D01*
X969868Y950358D01*
X969811Y949932D01*
X969742Y949508D01*
X969664Y949086D01*
X969575Y948666D01*
X969476Y948248D01*
X969366Y947833D01*
X969246Y947420D01*
X969117Y947011D01*
X968977Y946604D01*
X968827Y946202D01*
X968668Y945803D01*
X968499Y945408D01*
X968320Y945018D01*
X968131Y944632D01*
X967934Y944251D01*
X967727Y943874D01*
X967510Y943503D01*
X967285Y943138D01*
X967051Y942778D01*
X966808Y942423D01*
X966556Y942075D01*
X966296Y941733D01*
X966028Y941398D01*
X965751Y941069D01*
X965467Y940748D01*
X965174Y940433D01*
X964874Y940126D01*
X964567Y939826D01*
X964252Y939533D01*
X963931Y939249D01*
X963602Y938972D01*
X963267Y938704D01*
X962925Y938444D01*
X962577Y938192D01*
X962222Y937949D01*
X961862Y937715D01*
X961497Y937490D01*
X961126Y937273D01*
X960749Y937066D01*
X960368Y936869D01*
X959982Y936680D01*
X959592Y936501D01*
X959197Y936332D01*
X958798Y936173D01*
X958396Y936023D01*
X957989Y935883D01*
X957580Y935754D01*
X957167Y935634D01*
X956752Y935524D01*
X956334Y935425D01*
X955914Y935336D01*
X955492Y935258D01*
X955068Y935189D01*
X954642Y935132D01*
X954215Y935084D01*
X953787Y935047D01*
X953359Y935021D01*
X952929Y935005D01*
X952500Y935000D01*
X952071Y935005D01*
X951641Y935021D01*
X951213Y935047D01*
X950785Y935084D01*
X950358Y935132D01*
X949932Y935189D01*
X949508Y935258D01*
X949086Y935336D01*
X948666Y935425D01*
X948248Y935524D01*
X947833Y935634D01*
X947420Y935754D01*
X947011Y935883D01*
X946604Y936023D01*
X946202Y936173D01*
X945803Y936332D01*
X945408Y936501D01*
X945018Y936680D01*
X944632Y936869D01*
X944251Y937066D01*
X943874Y937273D01*
X943503Y937490D01*
X943138Y937715D01*
X942778Y937949D01*
X942423Y938192D01*
X942075Y938444D01*
X941733Y938704D01*
X941398Y938972D01*
X941069Y939249D01*
X940748Y939533D01*
X940433Y939826D01*
X940126Y940126D01*
X939826Y940433D01*
X939533Y940748D01*
X939249Y941069D01*
X938972Y941398D01*
X938704Y941733D01*
X938444Y942075D01*
X938192Y942423D01*
X937949Y942778D01*
X937715Y943138D01*
X937490Y943503D01*
X937273Y943874D01*
X937066Y944251D01*
X936869Y944632D01*
X936680Y945018D01*
X936501Y945408D01*
X936332Y945803D01*
X936173Y946202D01*
X936023Y946604D01*
X935883Y947011D01*
X935754Y947420D01*
X935634Y947833D01*
X935524Y948248D01*
X935425Y948666D01*
X935336Y949086D01*
X935258Y949508D01*
X935189Y949932D01*
X935132Y950358D01*
X935084Y950785D01*
X935047Y951213D01*
X935021Y951641D01*
X935005Y952071D01*
X935000Y952500D01*
D12*
X0Y444500D02*
X990600Y444500D01*
X990600Y990600D01*
X0Y990600D01*
X0Y444500D01*
X258800Y951927D02*
X258725Y950784D01*
X258576Y949648D01*
X258352Y948524D01*
X258055Y947417D01*
X257687Y946332D01*
X257249Y945274D01*
X256742Y944246D01*
X256169Y943254D01*
X255532Y942301D01*
X254835Y941392D01*
X254079Y940531D01*
X253269Y939721D01*
X252408Y938965D01*
X251499Y938268D01*
X250546Y937631D01*
X249554Y937058D01*
X248526Y936551D01*
X247468Y936113D01*
X246383Y935745D01*
X245276Y935448D01*
X244152Y935225D01*
X243016Y935075D01*
X241873Y935000D01*
X240727Y935000D01*
X239584Y935075D01*
X238448Y935225D01*
X237324Y935448D01*
X236217Y935745D01*
X235132Y936113D01*
X234074Y936551D01*
X233046Y937058D01*
X232054Y937631D01*
X231101Y938268D01*
X230192Y938965D01*
X229331Y939721D01*
X228521Y940531D01*
X227765Y941392D01*
X227068Y942301D01*
X226431Y943254D01*
X225858Y944246D01*
X225351Y945274D01*
X224913Y946332D01*
X224545Y947417D01*
X224248Y948524D01*
X224025Y949648D01*
X223875Y950784D01*
X223800Y951927D01*
X223800Y953073D01*
X223875Y954216D01*
X224025Y955352D01*
X224248Y956476D01*
X224545Y957583D01*
X224913Y958668D01*
X225351Y959726D01*
X225858Y960754D01*
X226431Y961746D01*
X227068Y962699D01*
X227765Y963608D01*
X228521Y964469D01*
X229331Y965279D01*
X230192Y966035D01*
X231101Y966732D01*
X232054Y967369D01*
X233046Y967942D01*
X234074Y968449D01*
X235132Y968887D01*
X236217Y969255D01*
X237324Y969552D01*
X238448Y969776D01*
X239584Y969925D01*
X240727Y970000D01*
X241873Y970000D01*
X243016Y969925D01*
X244152Y969776D01*
X245276Y969552D01*
X246383Y969255D01*
X247468Y968887D01*
X248526Y968449D01*
X249554Y967942D01*
X250546Y967369D01*
X251499Y966732D01*
X252408Y966035D01*
X253269Y965279D01*
X254079Y964469D01*
X254835Y963608D01*
X255532Y962699D01*
X256169Y961746D01*
X256742Y960754D01*
X257249Y959726D01*
X257687Y958668D01*
X258055Y957583D01*
X258352Y956476D01*
X258576Y955352D01*
X258725Y954216D01*
X258800Y953073D01*
X258800Y951927D01*
X258800Y482027D02*
X258725Y480884D01*
X258576Y479748D01*
X258352Y478624D01*
X258055Y477517D01*
X257687Y476432D01*
X257249Y475374D01*
X256742Y474346D01*
X256169Y473354D01*
X255532Y472401D01*
X254835Y471492D01*
X254079Y470631D01*
X253269Y469821D01*
X252408Y469065D01*
X251499Y468368D01*
X250546Y467731D01*
X249554Y467158D01*
X248526Y466651D01*
X247468Y466213D01*
X246383Y465845D01*
X245276Y465548D01*
X244152Y465325D01*
X243016Y465175D01*
X241873Y465100D01*
X240727Y465100D01*
X239584Y465175D01*
X238448Y465325D01*
X237324Y465548D01*
X236217Y465845D01*
X235132Y466213D01*
X234074Y466651D01*
X233046Y467158D01*
X232054Y467731D01*
X231101Y468368D01*
X230192Y469065D01*
X229331Y469821D01*
X228521Y470631D01*
X227765Y471492D01*
X227068Y472401D01*
X226431Y473354D01*
X225858Y474346D01*
X225351Y475374D01*
X224913Y476432D01*
X224545Y477517D01*
X224248Y478624D01*
X224025Y479748D01*
X223875Y480884D01*
X223800Y482027D01*
X223800Y483173D01*
X223875Y484316D01*
X224025Y485452D01*
X224248Y486576D01*
X224545Y487683D01*
X224913Y488768D01*
X225351Y489826D01*
X225858Y490854D01*
X226431Y491846D01*
X227068Y492799D01*
X227765Y493708D01*
X228521Y494569D01*
X229331Y495379D01*
X230192Y496135D01*
X231101Y496832D01*
X232054Y497469D01*
X233046Y498042D01*
X234074Y498549D01*
X235132Y498987D01*
X236217Y499355D01*
X237324Y499652D01*
X238448Y499876D01*
X239584Y500025D01*
X240727Y500100D01*
X241873Y500100D01*
X243016Y500025D01*
X244152Y499876D01*
X245276Y499652D01*
X246383Y499355D01*
X247468Y498987D01*
X248526Y498549D01*
X249554Y498042D01*
X250546Y497469D01*
X251499Y496832D01*
X252408Y496135D01*
X253269Y495379D01*
X254079Y494569D01*
X254835Y493708D01*
X255532Y492799D01*
X256169Y491846D01*
X256742Y490854D01*
X257249Y489826D01*
X257687Y488768D01*
X258055Y487683D01*
X258352Y486576D01*
X258576Y485452D01*
X258725Y484316D01*
X258800Y483173D01*
X258800Y482027D01*
X970000Y482027D02*
X969925Y480884D01*
X969776Y479748D01*
X969552Y478624D01*
X969255Y477517D01*
X968887Y476432D01*
X968449Y475374D01*
X967942Y474346D01*
X967369Y473354D01*
X966732Y472401D01*
X966035Y471492D01*
X965279Y470631D01*
X964469Y469821D01*
X963608Y469065D01*
X962699Y468368D01*
X961746Y467731D01*
X960754Y467158D01*
X959726Y466651D01*
X958668Y466213D01*
X957583Y465845D01*
X956476Y465548D01*
X955352Y465325D01*
X954216Y465175D01*
X953073Y465100D01*
X951927Y465100D01*
X950784Y465175D01*
X949648Y465325D01*
X948524Y465548D01*
X947417Y465845D01*
X946332Y466213D01*
X945274Y466651D01*
X944246Y467158D01*
X943254Y467731D01*
X942301Y468368D01*
X941392Y469065D01*
X940531Y469821D01*
X939721Y470631D01*
X938965Y471492D01*
X938268Y472401D01*
X937631Y473354D01*
X937058Y474346D01*
X936551Y475374D01*
X936113Y476432D01*
X935745Y477517D01*
X935448Y478624D01*
X935225Y479748D01*
X935075Y480884D01*
X935000Y482027D01*
X935000Y483173D01*
X935075Y484316D01*
X935225Y485452D01*
X935448Y486576D01*
X935745Y487683D01*
X936113Y488768D01*
X936551Y489826D01*
X937058Y490854D01*
X937631Y491846D01*
X938268Y492799D01*
X938965Y493708D01*
X939721Y494569D01*
X940531Y495379D01*
X941392Y496135D01*
X942301Y496832D01*
X943254Y497469D01*
X944246Y498042D01*
X945274Y498549D01*
X946332Y498987D01*
X947417Y499355D01*
X948524Y499652D01*
X949648Y499876D01*
X950784Y500025D01*
X951927Y500100D01*
X953073Y500100D01*
X954216Y500025D01*
X955352Y499876D01*
X956476Y499652D01*
X957583Y499355D01*
X958668Y498987D01*
X959726Y498549D01*
X960754Y498042D01*
X961746Y497469D01*
X962699Y496832D01*
X963608Y496135D01*
X964469Y495379D01*
X965279Y494569D01*
X966035Y493708D01*
X966732Y492799D01*
X967369Y491846D01*
X967942Y490854D01*
X968449Y489826D01*
X968887Y488768D01*
X969255Y487683D01*
X969552Y486576D01*
X969776Y485452D01*
X969925Y484316D01*
X970000Y483173D01*
X970000Y482027D01*
X970000Y951927D02*
X969925Y950784D01*
X969776Y949648D01*
X969552Y948524D01*
X969255Y947417D01*
X968887Y946332D01*
X968449Y945274D01*
X967942Y944246D01*
X967369Y943254D01*
X966732Y942301D01*
X966035Y941392D01*
X965279Y940531D01*
X964469Y939721D01*
X963608Y938965D01*
X962699Y938268D01*
X961746Y937631D01*
X960754Y937058D01*
X959726Y936551D01*
X958668Y936113D01*
X957583Y935745D01*
X956476Y935448D01*
X955352Y935225D01*
X954216Y935075D01*
X953073Y935000D01*
X951927Y935000D01*
X950784Y935075D01*
X949648Y935225D01*
X948524Y935448D01*
X947417Y935745D01*
X946332Y936113D01*
X945274Y936551D01*
X944246Y937058D01*
X943254Y937631D01*
X942301Y938268D01*
X941392Y938965D01*
X940531Y939721D01*
X939721Y940531D01*
X938965Y941392D01*
X938268Y942301D01*
X937631Y943254D01*
X937058Y944246D01*
X936551Y945274D01*
X936113Y946332D01*
X935745Y947417D01*
X935448Y948524D01*
X935225Y949648D01*
X935075Y950784D01*
X935000Y951927D01*
X935000Y953073D01*
X935075Y954216D01*
X935225Y955352D01*
X935448Y956476D01*
X935745Y957583D01*
X936113Y958668D01*
X936551Y959726D01*
X937058Y960754D01*
X937631Y961746D01*
X938268Y962699D01*
X938965Y963608D01*
X939721Y964469D01*
X940531Y965279D01*
X941392Y966035D01*
X942301Y966732D01*
X943254Y967369D01*
X944246Y967942D01*
X945274Y968449D01*
X946332Y968887D01*
X947417Y969255D01*
X948524Y969552D01*
X949648Y969776D01*
X950784Y969925D01*
X951927Y970000D01*
X953073Y970000D01*
X954216Y969925D01*
X955352Y969776D01*
X956476Y969552D01*
X957583Y969255D01*
X958668Y968887D01*
X959726Y968449D01*
X960754Y967942D01*
X961746Y967369D01*
X962699Y966732D01*
X963608Y966035D01*
X964469Y965279D01*
X965279Y964469D01*
X966035Y963608D01*
X966732Y962699D01*
X967369Y961746D01*
X967942Y960754D01*
X968449Y959726D01*
X968887Y958668D01*
X969255Y957583D01*
X969552Y956476D01*
X969776Y955352D01*
X969925Y954216D01*
X970000Y953073D01*
X970000Y951927D01*
M02*
